<?xml version="1.0" encoding="UTF-8"?>
<svg width="59px" height="52px" viewBox="0 0 59 52" version="1.1" xmlns="http://www.w3.org/2000/svg" xmlns:xlink="http://www.w3.org/1999/xlink">
    <!-- Generator: Sketch 39 (31667) - http://www.bohemiancoding.com/sketch -->
    <title>chat_icon</title>
    <desc>Created with Sketch.</desc>
    <defs></defs>
    <g id="Symbols" stroke="none" stroke-width="1" fill="none" fill-rule="evenodd">
        <g id="chat_icon" transform="translate(3.000000, 6.000000)">
            <path d="M20.8753,34.2006 L16.3903,40.0016 C16.0223,40.4766 15.3053,40.4806 14.9313,40.0106 L10.5853,34.5506 C10.4093,34.3296 10.1423,34.2006 9.8593,34.2006 L2.4723,34.2006 C1.1073,34.2006 0.0003,33.0936 0.0003,31.7286 L0.0003,9.2026 C0.0003,7.8366 1.1073,6.7296 2.4723,6.7296 L44.5273,6.7296 C45.8933,6.7296 47.0003,7.8366 47.0003,9.2026 L47.0003,31.7286 C47.0003,33.0936 45.8933,34.2006 44.5273,34.2006 L25.7483,34.2006" id="Stroke-1" stroke="#BCBCBC" stroke-width="1.5" stroke-linecap="round" stroke-linejoin="round"></path>
            <path d="M6.67,2.7299 L6.67,2.4799 C6.67,1.1099 7.77,-0.0001 9.14,-0.0001 L51.19,-0.0001 C52.56,-0.0001 53.67,1.1099 53.67,2.4799 L53.67,24.9999 C53.67,26.3699 52.56,27.4699 51.19,27.4699 L51,27.4699" id="Stroke-3" stroke="#BCBCBC" stroke-width="1.5" stroke-linecap="round" stroke-linejoin="round"></path>
            <path d="M13.5417,20.3751 C13.5417,21.0381001 13.0047,21.5751001 12.3417,21.5751001 C11.6787,21.5751001 11.1417,21.0381001 11.1417,20.3751 C11.1417,19.7121 11.6787,19.1751 12.3417,19.1751 C13.0047,19.1751 13.5417,19.7121 13.5417,20.3751" id="Fill-5" fill="#BCBCBC"></path>
            <path d="M24.1167,20.3751 C24.1167,21.0381001 23.5797,21.5751001 22.9167,21.5751001 C22.2537,21.5751001 21.7167,21.0381001 21.7167,20.3751 C21.7167,19.7121 22.2537,19.1751 22.9167,19.1751 C23.5797,19.1751 24.1167,19.7121 24.1167,20.3751" id="Fill-7" fill="#BCBCBC"></path>
            <path d="M34.6917,20.3751 C34.6917,21.0381001 34.1547,21.5751001 33.4917,21.5751001 C32.8287,21.5751001 32.2917,21.0381001 32.2917,20.3751 C32.2917,19.7121 32.8287,19.1751 33.4917,19.1751 C34.1547,19.1751 34.6917,19.7121 34.6917,20.3751" id="Fill-9" fill="#BCBCBC"></path>
        </g>
    </g>
</svg>