<?xml version="1.0" encoding="utf-8"?>
<!-- Generator: Adobe Illustrator 19.0.0, SVG Export Plug-In . SVG Version: 6.00 Build 0)  -->
<svg version="1.1" id="Layer_2" xmlns="http://www.w3.org/2000/svg" xmlns:xlink="http://www.w3.org/1999/xlink" x="0px" y="0px"
	 viewBox="-5 12 52 41" style="enable-background:new -5 12 52 41;" xml:space="preserve">
<style type="text/css">
	.st0{fill:#FFFFFF;}
</style>
<g>
	<path class="st0" d="M4.2,42.9h0.1l9.1-7.2c0.4-0.4,0.4-0.9,0.1-1.2c-0.4-0.4-0.9-0.4-1.2-0.1l-9,7.1C3.1,41.6,3,41.9,3,42.1
		c0,0.2,0.1,0.4,0.2,0.5C3.4,42.8,3.7,43,3.9,43C4,43,4.2,42.9,4.2,42.9z"/>
	<path class="st0" d="M38,42.9l-0.1,0l-9-7.3c-0.4-0.4-0.4-0.9-0.1-1.2c0.4-0.4,0.9-0.4,1.2-0.1l8.9,7.2c0.2,0.2,0.3,0.5,0.3,0.7
		c0,0.2-0.1,0.4-0.2,0.5c-0.2,0.2-0.4,0.3-0.7,0.3C38.1,43,38,43,38,42.9z"/>
	<path class="st0" d="M41.7,17.5H1.1c-0.8,0-1.5,0.5-1.8,1.3c-0.2,0.7,0,1.5,0.6,2l19.4,14.1c1,0.7,2.4,0.7,3.4,0l15-11.2
		c0.4-0.4,0.4-0.9,0.1-1.2c-0.4-0.4-0.9-0.4-1.2-0.1L21.8,33.5c-0.5,0.3-1,0.3-1.4,0L1.1,19.3l0-0.1h40.6c0.6,0,1,0.5,1,1v24.6
		c0,0.5-0.5,0.9-1,0.9H0.2c-0.6,0-1-0.4-1-0.9V23.9c0-0.5-0.4-0.9-0.9-0.9s-0.9,0.4-0.9,0.9v20.9c0,1.4,1.3,2.7,2.8,2.7h41.5
		c0.8,0,1.6-0.3,2.1-0.9c0.5-0.5,0.7-1.1,0.6-1.8V20.3C44.5,18.8,43.3,17.5,41.7,17.5z"/>
</g>
</svg>
