<?xml version="1.0" encoding="utf-8"?>
<!-- Generator: Adobe Illustrator 19.0.0, SVG Export Plug-In . SVG Version: 6.00 Build 0)  -->
<svg version="1.1" id="Layer_1" xmlns="http://www.w3.org/2000/svg" xmlns:xlink="http://www.w3.org/1999/xlink" x="0px" y="0px"
	 viewBox="-394.7 579.3 53.4 33.6" style="enable-background:new -394.7 579.3 53.4 33.6;" xml:space="preserve">
<style type="text/css">
	.st0{fill:#BCBCBC;}
</style>
<title>Slice 2</title>
<desc>Created with Sketch.</desc>
<g id="Symbols">
	<g id="Mail">
		<g id="Group-2" transform="translate(1.000000, 5.000000)">
			<g id="Group">
				<g id="Stroke-1">
					<path class="st0" d="M-389,603.4c-0.3,0-0.6-0.1-0.8-0.4c-0.3-0.4-0.3-1.1,0.2-1.4l11.7-9.3c0.4-0.3,1.1-0.3,1.4,0.2
						c0.3,0.4,0.3,1.1-0.2,1.4l-11.7,9.3C-388.5,603.4-388.8,603.4-389,603.4z"/>
				</g>
				<g id="Stroke-2">
					<path class="st0" d="M-349,603.4c-0.2,0-0.4-0.1-0.6-0.2l-11.6-9.4c-0.4-0.3-0.5-1-0.1-1.4c0.3-0.4,1-0.5,1.4-0.1l11.6,9.4
						c0.4,0.3,0.5,1,0.1,1.4C-348.4,603.3-348.7,603.4-349,603.4z"/>
				</g>
				<g id="Stroke-3">
					<path class="st0" d="M-346,607.6h-46c-1.7,0-3.1-1.4-3.1-3l0-24.8c0-0.6,0.4-1,1-1s1,0.4,1,1l0,24.8c0,0.6,0.5,1,1.1,1h46
						c0.6,0,1.1-0.5,1.1-1v-27c0-0.6-0.5-1-1.1-1h-45l21.3,15.7c0.4,0.3,1,0.3,1.4,0l18-13.2c0.4-0.3,1.1-0.2,1.4,0.2
						c0.3,0.4,0.2,1.1-0.2,1.4l-18,13.2c-1.1,0.8-2.7,0.8-3.8,0l-21.4-15.7c-0.7-0.5-1-1.4-0.7-2.2c0.3-0.8,1.1-1.4,2-1.4h45
						c1.7,0,3.1,1.4,3.1,3v27C-342.8,606.3-344.3,607.6-346,607.6z"/>
				</g>
			</g>
		</g>
	</g>
</g>
</svg>
