<?xml version="1.0" standalone="no"?>
<!DOCTYPE svg PUBLIC "-//W3C//DTD SVG 1.1//EN" "http://www.w3.org/Graphics/SVG/1.1/DTD/svg11.dtd" >
<svg xmlns="http://www.w3.org/2000/svg">
<metadata>
Created by FontPrep 20130207 at Sun Jan  1 12:09:02 2017
 By Simon McManus
 Copyright (c)2014 Talbot Type. All Rights Reserved
</metadata>
<defs>
<font id="4f5c3f794c32456fa1066dffdcd34710" horiz-adv-x='1024' >
  <font-face 
    font-family="KroppenRound-Regular"
    font-weight="400"
    font-stretch="normal"
    units-per-em="2048"
    panose-1="2 0 5 3 0 0 0 0 0 0"
    ascent="1645"
    descent="-403"
    x-height="1186"
    cap-height="1552"
    bbox="-82 -402 1922.33 1686"
    underline-thickness="57"
    underline-position="-148"
    unicode-range="U+0020-007E"
  />
<missing-glyph horiz-adv-x="1024" 
 />
    <glyph glyph-name=".notdef" horiz-adv-x="1024" 
 />
    <glyph glyph-name=".null" horiz-adv-x="0" 
 />
    <glyph glyph-name="nonmarkingreturn" horiz-adv-x="681" 
 />
    <glyph glyph-name="space" unicode=" " horiz-adv-x="552" 
 />
    <glyph glyph-name="exclam" unicode="!" horiz-adv-x="385" 
d="M88 88q0 43 31 74t74 31t73 -31t31 -74q0 -43 -31 -74q-32 -30 -74 -30t-73 30t-31 74zM192 1552q30 0 50 -20t20 -49l-20 -1100q0 -21 -14 -35t-35 -14q-20 0 -35 14t-15 35l-20 1100q0 29 20 49q19 20 49 20z" />
    <glyph glyph-name="quotedbl" unicode="&#x22;" horiz-adv-x="473" 
d="M276 1165v340q0 19 14 33t34 14t33 -13t14 -34v-340q1 -19 -13 -33t-34 -14t-34 14t-14 33zM148 1552q46 0 49 -47v-340q0 -18 -13 -35q-16 -12 -34 -12t-35 12q-13 17 -13 35v340q0 18 13 35q13 12 33 12z" />
    <glyph glyph-name="numbersign" unicode="#" horiz-adv-x="1269" 
d="M797 899h-262l-56 -264h260zM280 -16q-22 0 -34 16t-8 41l106 483h-264q-23 0 -39 16t-16 40q0 22 16 38t39 17h285l57 264h-342q-18 0 -39 16q-14 19 -14 39t16 41q16 16 37 17h366l99 483q2 18 24 41q27 16 46 16t36 -16q12 -16 8 -41l-98 -483h262l99 483q2 18 24 41
q27 16 46 16t36 -16q12 -16 8 -41l-98 -483h252q23 0 39 -18t16 -41q0 -22 -16 -38t-39 -16h-281l-57 -264h338q23 -1 39 -17t16 -38t-16 -39q-16 -16 -39 -17h-356l-109 -483q-2 -18 -25 -41q-27 -16 -46 -16t-36 16q-12 16 -8 41l109 483h-262l-109 -483q-4 -23 -24 -41
q-22 -16 -44 -16z" />
    <glyph glyph-name="dollar" unicode="$" horiz-adv-x="1210" 
d="M535 1477v137q0 33 22 49q16 23 49 23t49 -23q23 -16 23 -49v-72q195 -14 369 -129q33 -20 33 -54t-21 -54q-20 -21 -48 -21t-42 12q-162 104 -363 109q-29 -1 -50 21t-21 51zM678 59v-149q0 -33 -23 -49q-16 -23 -49 -23t-49 23q-23 16 -22 49v84q-242 25 -424 164
q-29 18 -29 52t20 54t46 20t45 -12q176 -139 413 -141q28 1 50 -21t22 -51zM260 1153q0 -86 47 -145q53 -59 127 -82q55 -22 173 -50t179 -49q90 -25 168 -67t126 -131q48 -88 48 -211q0 -217 -260 -373q-14 -8 -38 -8t-44 20t-20 59t47 56q172 82 172 246q0 92 -47 155
q-49 63 -126 95t-228 66q-151 33 -293 102q-78 43 -127 120q-47 82 -47 192q0 224 221 337q20 12 44 12t44 -20t20 -50q0 -51 -45 -65q-141 -72 -141 -209z" />
    <glyph glyph-name="percent" unicode="%" horiz-adv-x="1781" 
d="M1561 358q0 109 -75 184q-75 74 -182 74q-108 0 -184 -76t-76 -183q0 -108 78 -183q74 -76 182 -76t182 76t75 184zM1700 358q0 -162 -117 -278t-279 -115q-162 0 -280 117q-119 112 -119 274t119 279q121 115 281 115q159 0 277 -115t118 -277zM383 12q-55 41 -18 97
l950 1411q16 26 45 30t51 -12q25 -14 29 -43t-10 -53l-953 -1411q-15 -25 -43 -29t-51 10zM737 1180q0 106 -73 184q-78 74 -184 74t-183 -76q-76 -76 -76 -184t76 -183q75 -75 183 -75t184 75q73 79 73 185zM480 1571q160 1 279 -113q118 -114 118 -277t-117 -280
q-119 -115 -280 -115q-162 0 -280 116t-118 278t119 274q119 117 279 117z" />
    <glyph glyph-name="ampersand" unicode="&#x26;" horiz-adv-x="1361" 
d="M1194 -16q-102 0 -174 72t-72 171v541q0 100 72 172t174 72h16q30 0 50 -20t20 -50q0 -29 -20 -49t-50 -21h-16q-45 0 -76 -30t-31 -74v-541q0 -43 31 -73t76 -31h16q30 -1 50 -21t20 -49t-20 -49t-50 -20h-16zM940 1221q0 -143 -103 -247t-252 -104t-255 -112t-105 -270
q-1 -158 105 -272t258 -114q88 0 172 45q51 35 90 -6q20 -20 20 -54t-34 -56q-109 -66 -248 -66q-211 0 -359 154q-147 155 -147 369t147 368t359 154q86 0 147 62t61 148t-59 152q-61 62 -149 62t-148 -64t-59 -149q0 -25 16 -101q5 -26 -19 -48t-50 -21q-53 0 -66 43
q-25 68 -24 127q0 143 101 246t247 103t250 -102q104 -104 104 -247z" />
    <glyph glyph-name="quotesingle" unicode="'" horiz-adv-x="299" 
d="M148 1552q46 0 49 -47v-340q0 -18 -13 -35q-16 -12 -34 -12t-35 12q-13 17 -13 35v340q0 18 13 35q13 12 33 12z" />
    <glyph glyph-name="parenleft" unicode="(" horiz-adv-x="573" 
d="M307 593q0 -538 195 -904q14 -33 2 -62q-18 -29 -56 -29t-53 37q-231 427 -231 957t231 958q15 37 53 37t56 -28q12 -29 -2 -62q-195 -366 -195 -904z" />
    <glyph glyph-name="parenright" unicode=")" horiz-adv-x="573" 
d="M266 593q0 538 -194 904q-14 33 -2 62q18 29 56 29t52 -38q232 -428 232 -957t-232 -958q-14 -37 -52 -37t-56 29q-12 29 2 62q194 366 194 904z" />
    <glyph glyph-name="asterisk" unicode="*" horiz-adv-x="733" 
d="M553 1278q45 -25 20 -72q-10 -20 -30 -24t-41 8l-99 70l15 -119q0 -23 -15 -39q-37 -29 -73 0q-14 16 -15 39l13 121l-97 -72q-20 -12 -42 -7t-29 25q-10 18 -5 40t25 30l111 49l-111 49q-20 8 -25 30t4 40q9 20 30 25t42 -7l97 -71l-13 120q0 23 15 39q38 29 73 0
q14 -16 15 -39l-15 -120l99 71q47 27 73 -18q23 -47 -22 -70l-113 -49z" />
    <glyph glyph-name="plus" unicode="+" horiz-adv-x="1390" 
d="M86 592q0 29 20 49t50 21h471v471q0 29 20 49t49 20t49 -20t21 -49v-471h469q29 0 49 -20t20 -50q0 -29 -20 -49t-49 -21h-469v-469q0 -29 -20 -49t-50 -20q-29 0 -49 20t-20 49v469h-471q-30 0 -50 20t-20 50z" />
    <glyph glyph-name="comma" unicode="," horiz-adv-x="454" 
d="M84 -184q0 41 41 41q29 0 47 26q23 25 23 60v45q-8 -4 -19 -4q-45 0 -75 30q-29 30 -29 75q0 44 30 75t73 31q44 0 75 -31t31 -74v-137q0 -70 -43 -125q-47 -51 -113 -53q-41 0 -41 41z" />
    <glyph glyph-name="hyphen" unicode="-" horiz-adv-x="952" 
d="M131 592q-1 29 19 49t49 21h557q29 0 49 -20t20 -50q0 -29 -20 -49t-49 -21h-557q-29 0 -49 20t-19 50z" />
    <glyph glyph-name="period" unicode="." horiz-adv-x="454" 
d="M281 88q0 -44 -31 -74t-74 -30t-74 30t-30 74q0 43 30 74q31 31 74 31t74 -31t31 -74z" />
    <glyph glyph-name="slash" unicode="/" horiz-adv-x="933" 
d="M166 -16q-33 0 -51 24q-14 27 0 58l606 1456q8 30 45 30t49 -24q16 -20 6 -51l-608 -1461q-14 -32 -47 -32z" />
    <glyph glyph-name="zero" unicode="0" horiz-adv-x="1224" 
d="M979 471v592q0 155 -108 263q-109 108 -259 108t-258 -109t-108 -262v-592q0 -153 108 -261t257 -108q148 0 261 109q107 110 107 260zM1118 1063v-592q0 -209 -147 -357t-357 -149q-210 1 -359 149q-148 148 -149 357v592q0 211 149 359t359 149q210 -1 356 -149
q148 -148 148 -359z" />
    <glyph glyph-name="one" unicode="1" horiz-adv-x="690" 
d="M424 53v1301l-227 -131q-16 -11 -41 -11t-45 20q-21 20 -21 55q0 36 41 59l322 192q20 14 47 14t45 -20q23 -20 22 -49v-1430q0 -27 -21 -48t-51 -21t-51 20q-20 20 -20 49z" />
    <glyph glyph-name="two" unicode="2" horiz-adv-x="1214" 
d="M190 0q-29 0 -49 20t-20 52q0 31 24 51l707 651q137 113 137 282q1 169 -111 273q-112 105 -271 105t-271 -113t-113 -274q0 -29 -20 -49t-50 -21q-30 0 -51 20q-20 20 -20 50q0 219 154 371t372 153q218 0 371 -146q154 -141 154 -371t-191 -388l-565 -527h635
q29 0 49 -20t20 -49q0 -30 -20 -50t-49 -20h-822z" />
    <glyph glyph-name="three" unicode="3" horiz-adv-x="1208" 
d="M211 814q0 34 29 52l557 531h-545q-29 0 -49 20t-21 49q0 30 20 50t50 20h715q29 0 49 -20t20 -52t-24 -51l-682 -653q-20 -20 -49 -20t-49 20t-21 54zM655 922q1 29 21 49t40 20t40 -6q160 -47 266 -186q104 -141 104 -314q0 -217 -155 -366q-154 -154 -362 -154
q-209 0 -355 126t-172 310q-6 41 16 64q18 25 48 25t52 -22q22 -20 23 -44q20 -137 131 -229q104 -93 255 -93t263 113t113 257q0 144 -77 246t-199 136q-52 15 -52 68z" />
    <glyph glyph-name="four" unicode="4" horiz-adv-x="1255" 
d="M809 678v573l-571 -762h886q30 0 50 -20t20 -50t-20 -50q-23 -18 -50 -19h-176v-297q0 -29 -20 -49t-49 -20t-50 20q-20 20 -20 49v297h-703q-29 0 -49 20t-20 49q0 28 18 48l764 1055q21 30 55 30t54 -20t20 -49v-805q0 -29 -20 -48q-20 -20 -49 -20t-49 20t-21 48z" />
    <glyph glyph-name="five" unicode="5" horiz-adv-x="1212" 
d="M358 1536h547q29 0 49 -20t20 -50t-20 -49q-20 -20 -49 -20h-487l-88 -623q-2 -25 -27 -45q-26 -12 -54 -9q-28 2 -44 26t-12 53l98 671q10 66 67 66zM457 932q0 29 18 47q18 23 52 27t75 4q217 0 373 -154q155 -154 155 -371t-155 -366q-156 -154 -373 -154t-371 153
t-153 367q0 29 20 49t50 21q30 0 51 -20t20 -50q0 -159 113 -271q114 -112 272 -112t268 113q115 113 115 273t-113 272q-113 113 -272 112q-23 0 -63 -6t-60 19q-22 18 -22 47z" />
    <glyph glyph-name="six" unicode="6" horiz-adv-x="1216" 
d="M575 938q0 29 21 49q23 18 49 19q197 0 342 -158q147 -154 147 -367t-155 -362q-154 -154 -371 -154t-370 154q-156 150 -156 366q0 154 94 297l492 740q20 30 53 30t53 -20q39 -39 8 -90l-483 -729q-74 -102 -74 -244q0 -143 113 -255q112 -112 270 -112t271 113
t113 269t-101 262q-100 108 -246 122q-29 0 -49 20t-21 50z" />
    <glyph glyph-name="seven" unicode="7" horiz-adv-x="1103" 
d="M410 -16q-38 0 -59 21t-21 43t8 42l545 1307h-768q-29 0 -49 20t-21 49q1 30 21 50t49 20h874q29 0 56 -27t8 -73l-586 -1409q-19 -43 -57 -43z" />
    <glyph glyph-name="eight" unicode="8" horiz-adv-x="1232" 
d="M338 948q0 -27 -19 -47q-20 -18 -52 -18t-52 26q-82 96 -82 240q0 193 137 307q143 115 346 115t347 -115q137 -115 137 -305t-137 -305q-143 -115 -332 -115t-299 -80q-109 -85 -109 -237t110 -232q109 -80 283 -80t285 80q109 80 109 234q0 117 -74 194q-27 20 -27 52
t21 51q18 20 50 20t50 -22q123 -121 123 -295q0 -213 -154 -330q-147 -121 -379 -121t-386 120q-155 120 -154 333q0 213 154 333t382 119q150 0 245 71t95 206t-96 211t-245 76t-243 -76t-96 -209q0 -92 46 -152q16 -22 16 -49z" />
    <glyph glyph-name="nine" unicode="9" horiz-adv-x="1216" 
d="M641 598q0 -29 -20 -49q-23 -18 -50 -19q-197 0 -342 158q-147 154 -147 367t156 362q154 154 370 154t371 -154q156 -150 156 -366q0 -154 -95 -297l-491 -740q-20 -30 -53 -30t-54 20q-20 20 -20 44t12 46l484 729q74 102 73 228q-1 159 -113 271t-270 112t-270 -113
t-113 -269q1 -156 101 -262q100 -108 245 -122q29 0 49 -20t21 -50z" />
    <glyph glyph-name="colon" unicode=":" horiz-adv-x="454" 
d="M72 1097q0 45 30 75t74 30q43 0 74 -31t31 -75t-31 -74q-31 -31 -74 -31t-74 31q-30 31 -30 75zM281 88q0 -43 -31 -74q-31 -30 -74 -30t-74 30t-30 74q0 43 30 74q31 31 74 31t74 -31t31 -74z" />
    <glyph glyph-name="semicolon" unicode=";" horiz-adv-x="454" 
d="M84 -184q0 41 41 41q29 0 47 26q23 25 23 60v45q-8 -4 -19 -4q-45 0 -75 30q-29 30 -29 75q0 44 30 75t73 31q44 0 75 -31t31 -74v-137q0 -70 -43 -125q-47 -51 -113 -53q-41 0 -41 41zM72 1097q0 45 30 75t74 30q43 0 74 -31t31 -75t-31 -74q-31 -31 -74 -31t-74 31
q-30 31 -30 75z" />
    <glyph glyph-name="less" unicode="&#x3c;" horiz-adv-x="882" 
d="M49 592q0 35 39 65l598 428q18 19 47 19t45 -23q23 -16 23 -48t-29 -54l-543 -387l543 -387q29 -23 29 -55t-23 -48q-16 -22 -45 -22t-47 18l-598 428q-39 31 -39 66z" />
    <glyph glyph-name="equal" unicode="=" horiz-adv-x="1390" 
d="M86 420q0 29 19 49t49 20h1081q29 0 49 -20t20 -49t-20 -49t-49 -21h-1081q-28 0 -48 20t-20 50zM86 768q0 29 20 49t50 21h1079q31 -4 50 -24t19 -47q0 -28 -22 -48q-18 -20 -49 -21h-1077q-30 0 -50 20t-20 50z" />
    <glyph glyph-name="greater" unicode="&#x3e;" horiz-adv-x="882" 
d="M834 592q0 -34 -39 -66l-598 -428q-18 -18 -46 -18q-29 0 -49 20t-20 52t29 53l542 387l-542 387q-29 23 -29 53t20 49q20 23 48 23t47 -19l598 -428q39 -31 39 -65z" />
    <glyph glyph-name="question" unicode="?" horiz-adv-x="1208" 
d="M598 195q44 0 74 -31t30 -75t-30 -75q-30 -30 -74 -30q-43 0 -74 30q-30 30 -30 75q0 44 30 75q31 31 74 31zM530 420v176q0 29 20 49t50 21q158 0 270 112t113 271q0 160 -115 272q-111 113 -260 113t-260 -93q-109 -96 -129 -229q-2 -25 -23 -45q-22 -20 -52 -20
q-30 -1 -52 25t-12 63q31 184 176 310t352 126t363 -152q155 -153 155 -359t-131 -355q-135 -147 -325 -175v-110q0 -29 -20 -49q-20 -21 -50 -21t-50 20t-20 50z" />
    <glyph glyph-name="at" unicode="@" horiz-adv-x="1792" 
d="M887 453q76 0 137 31t94 -5q20 -20 20 -55t-36 -55q-96 -53 -215 -54q-186 0 -322 131q-133 136 -133 322t132 318t322 132t323 -132q132 -132 132 -318v-209q0 -43 31 -76q35 -31 76 -31t72 32q31 30 30 75v209q0 274 -194 470t-468 196q-273 0 -468 -197t-195 -469
t195 -469t467 -197q145 0 299 74q31 14 67 -4q33 -26 33 -68t-49 -61q-172 -78 -350 -78q-334 0 -570 236q-235 235 -235 567t236 568t568 235q332 0 568 -236t236 -567v-209q0 -102 -71 -173t-172 -71t-173 72t-72 172v209q0 129 -92 221t-222 92t-221 -92t-91 -222
t90 -222q92 -92 221 -92z" />
    <glyph glyph-name="A" unicode="A" horiz-adv-x="1413" 
d="M526 485h623q43 0 63 -43l154 -362q6 -12 6 -35t-19 -42t-58 -19t-58 41l-129 321h-582q-29 0 -49 20t-20 50q0 29 20 49t49 20zM119 -16q-39 0 -59 19t-19 41q0 22 6 36l596 1431q15 41 63 41t64 -41l342 -823q6 -12 6 -35t-19 -42t-59 -19t-57 41l-276 672l-531 -1280
q-18 -41 -57 -41z" />
    <glyph glyph-name="B" unicode="B" horiz-adv-x="1357" 
d="M1098 909q-32 1 -52 21t-20 40t20 61q20 40 19 104q0 113 -78 184q-72 78 -182 78h-543v-1258h578q119 0 209 86q86 88 86 211t-86 209q-90 86 -209 86h-383q-29 1 -49 21t-21 49q1 29 21 49t49 20h383q180 0 309 -127t129 -306t-127 -310q-131 -127 -311 -127h-647
q-29 0 -50 20q-20 20 -20 50v1396q0 30 20 50t50 20h612q166 0 285 -118t118 -283q0 -102 -55 -189q-23 -37 -55 -37z" />
    <glyph glyph-name="C" unicode="C" horiz-adv-x="1529" 
d="M867 1434q-272 0 -461 -197q-197 -193 -193 -471q-4 -276 193 -469q190 -195 464 -195t476 193q22 18 50 18q28 1 50 -21t16 -46q0 -29 -20 -49q-244 -233 -573 -233t-565 235t-234 569q0 334 236 570t564 235q330 0 572 -242q20 -20 22 -49t-19 -49q-21 -21 -50 -21
t-49 21q-207 201 -479 201z" />
    <glyph glyph-name="D" unicode="D" horiz-adv-x="1486" 
d="M123 53v1413q0 30 19 50t48 20h455q317 0 543 -225t227 -543q0 -318 -226 -542q-226 -226 -544 -226h-190q-29 0 -49 20t-20 50t20 49q20 20 49 20h190q260 0 445 185q182 186 182 446t-183 443t-444 184h-383v-1344q0 -29 -20 -49t-49 -20t-50 20q-20 20 -20 49z" />
    <glyph glyph-name="E" unicode="E" horiz-adv-x="1312" 
d="M123 1049v417q0 30 20 50t50 20h978q29 0 49 -20t21 -50q0 -30 -20 -49q-20 -20 -50 -20h-909v-348q0 -29 -20 -49t-49 -21q-29 0 -50 20q-20 21 -20 50zM123 766q0 29 20 49t50 21h837q29 0 49 -20q21 -20 21 -50q0 -29 -20 -49t-50 -21h-768v-557h909q31 -4 51 -23
t19 -47q0 -29 -20 -49t-50 -20h-978q-29 0 -50 20q-20 20 -20 50v696z" />
    <glyph glyph-name="F" unicode="F" horiz-adv-x="1234" 
d="M123 1049v417q0 30 20 50t50 20h942q29 0 49 -20t20 -50t-20 -49q-20 -20 -49 -20h-873v-348q0 -29 -20 -49t-49 -21q-29 0 -50 20q-20 21 -20 50zM123 53v713q0 29 20 49t50 21h800q29 0 49 -20t20 -50q0 -29 -20 -49t-49 -21h-731v-643q0 -29 -20 -49t-49 -20t-50 20
q-20 20 -20 49z" />
    <glyph glyph-name="G" unicode="G" horiz-adv-x="1599" 
d="M874 836h541q29 0 49 -20t21 -48v-496q0 -27 -19 -47q-242 -262 -592 -260q-332 -2 -568 234q-236 237 -234 569q0 332 236 568t564 235q330 0 574 -238q20 -20 20 -49q0 -28 -22 -50t-48 -22t-48 23q-207 199 -476 199t-464 -197t-195 -469t195 -469t466 -197t472 199
v395h-472q-29 0 -51 21q-20 25 -20 49t20 49q22 21 51 21z" />
    <glyph glyph-name="H" unicode="H" horiz-adv-x="1431" 
d="M1169 53v428q1 29 21 49t49 20t49 -20t21 -49v-428q-1 -29 -21 -49t-49 -20t-49 20t-21 49zM123 1483q0 29 20 49q19 20 49 20t50 -20t20 -49v-434q0 -29 -20 -49t-49 -21q-29 0 -50 20q-20 20 -20 50v434zM123 766q0 29 20 49t50 21h976v647q0 29 19 49q20 20 50 20
t48 -20q23 -20 23 -49v-717q0 -29 -23 -49q-18 -20 -49 -21h-975v-643q-4 -31 -23 -50t-47 -19t-49 20q-20 20 -20 49v713z" />
    <glyph glyph-name="I" unicode="I" horiz-adv-x="385" 
d="M123 53v1430q0 29 20 49q19 20 49 20t50 -20t20 -49v-1430q0 -29 -20 -49t-49 -20t-50 20q-20 20 -20 49z" />
    <glyph glyph-name="J" unicode="J" horiz-adv-x="892" 
d="M770 1485v-1098q0 -184 -119 -303q-121 -117 -297 -118t-301 124q-23 24 -23 52t22 50t52 18q30 -3 54 -28q84 -80 202 -80t193 76q76 76 80 207l-2 1100q-4 29 20 47q16 22 49 20q34 -2 52 -20t18 -47z" />
    <glyph glyph-name="K" unicode="K" horiz-adv-x="1263" 
d="M123 53v1430q0 29 20 49q19 20 49 20t50 -20t20 -49v-1430q0 -29 -20 -49t-49 -20t-50 20q-20 20 -20 49zM1139 1552q29 0 49 -20t20 -51q4 -27 -18 -49l-664 -664l664 -666q49 -49 0 -98q-20 -20 -49 -20t-49 20l-715 717q-20 20 -21 49q1 29 21 49l713 713q20 20 49 20
z" />
    <glyph glyph-name="L" unicode="L" horiz-adv-x="1200" 
d="M123 70v1413q0 29 20 49q19 20 49 20t50 -20t20 -49v-1344h838q29 0 49 -20t20 -49q0 -30 -20 -50t-49 -20h-907q-29 0 -50 20q-20 21 -20 50z" />
    <glyph glyph-name="M" unicode="M" horiz-adv-x="1781" 
d="M1659 1483v-1430q-1 -29 -21 -49t-49 -20t-49 20t-20 49v1262l-580 -582q-20 -20 -49 -20t-49 20l-580 582v-1262q0 -29 -20 -49t-49 -20t-50 20q-20 20 -20 49v1430q0 29 20 49q19 20 49 20t50 -20l649 -647l647 647q20 20 49 20t51 -20q21 -24 21 -49z" />
    <glyph glyph-name="N" unicode="N" horiz-adv-x="1433" 
d="M1241 1552q29 0 49 -20t21 -49v-1430q0 -25 -21 -49q-22 -20 -54 -20t-54 30l-920 1260v-1221q0 -29 -20 -49t-49 -20t-50 20q-20 20 -20 49v1430q0 29 20 49q19 20 53 20t54 -26l921 -1264v1221q1 29 21 49t49 20z" />
    <glyph glyph-name="O" unicode="O" horiz-adv-x="1753" 
d="M1681 768q0 -328 -235 -567q-238 -236 -570 -236t-569 236q-235 235 -235 567t236 568t568 235q333 0 570 -236q235 -239 235 -567zM1538 768q0 276 -195 469q-190 197 -466 197t-467 -197q-195 -193 -195 -469t195 -469q190 -197 466 -197t467 197q195 193 195 469z" />
    <glyph glyph-name="P" unicode="P" horiz-adv-x="1347" 
d="M387 629q0 27 19 49q20 20 49 20h333q142 0 244 102t102 248t-102 246q-98 102 -244 103h-526v-1344q0 -25 -20 -49q-23 -20 -52 -20t-48 20t-19 49v1413q0 25 20 50q23 20 52 20h593q201 0 347 -143q143 -147 143 -345t-143 -346q-145 -143 -347 -143h-333q-29 0 -49 21
q-19 22 -19 49z" />
    <glyph glyph-name="Q" unicode="Q" horiz-adv-x="1757" 
d="M1325 311q0 29 18 49q160 180 160 435t-188 448q-189 191 -457 191t-456 -192t-187 -459q0 -267 188 -455t455 -189h694q31 0 52 -20q20 -20 20 -49q0 -30 -20 -50t-52 -20h-694q-328 0 -557 229t-229 557t231 553q225 231 554 231t558 -231q231 -227 232 -555
q0 -285 -191 -508q-22 -34 -56 -34t-54 20t-21 49z" />
    <glyph glyph-name="R" unicode="R" horiz-adv-x="1357" 
d="M512 630q0 28 19 48t49 20h208q139 0 244 101q100 103 100 249t-100 247q-102 101 -244 102h-526v-1344q0 -29 -20 -49t-49 -20t-50 20q-20 20 -20 49v1413q0 30 20 50t50 20h595q200 0 344 -143t144 -345t-143 -346t-345 -143h-67l338 -465q16 -26 11 -54t-28 -45
q-22 -17 -50 -13t-48 28l-416 570q-16 22 -16 50z" />
    <glyph glyph-name="S" unicode="S" horiz-adv-x="1210" 
d="M612 102q373 0 373 310q0 182 -174 256q-76 33 -161 51t-191 51q-102 35 -168 70q-78 39 -126 122t-48 197q0 195 132 303q131 108 361 109q230 0 437 -133q33 -20 33 -54t-21 -55q-20 -20 -48 -20t-42 12q-175 113 -351 113t-270 -70q-88 -76 -88 -205q0 -167 179 -232
q83 -30 163 -46q124 -33 202 -58t150 -69q78 -41 126 -130t48 -212q0 -211 -140 -329t-376 -118q-283 0 -501 168q-29 18 -29 52q0 35 20 55t46 20t45 -12q188 -145 419 -146z" />
    <glyph glyph-name="T" unicode="T" horiz-adv-x="1226" 
d="M545 53v1413q0 30 20 50t49 20h523q29 0 49 -20t20 -50t-20 -49q-20 -20 -49 -20h-453v-1344q0 -29 -20 -49t-50 -20t-49 20q-20 20 -20 49zM20 1466q0 30 20 50t50 20h264q29 0 48 -20q20 -20 20 -50t-20 -49q-20 -20 -48 -20h-264q-30 0 -50 20t-20 49z" />
    <glyph glyph-name="U" unicode="U" horiz-adv-x="1431" 
d="M1169 1483q1 29 21 49t49 20t49 -20t21 -49v-924q0 -246 -174 -420t-419 -174t-419 174t-174 420v924q0 29 20 49q19 20 49 20t50 -20t20 -49v-924q0 -188 133 -322q133 -135 321 -135t320 136q133 133 133 321v924z" />
    <glyph glyph-name="V" unicode="V" horiz-adv-x="1392" 
d="M1284 1552q39 0 65 -26t7 -70l-596 -1431q-16 -41 -64 -41t-63 41l-596 1431q-6 12 -6 35t19 42q18 19 58 19t58 -41l530 -1280l531 1280q18 41 57 41z" />
    <glyph glyph-name="W" unicode="W" horiz-adv-x="1951" 
d="M1844 1552q42 0 65 -28q20 -29 10 -64l-436 -1427q-17 -49 -69 -49t-66 49l-371 1216l-371 -1216q-16 -49 -69 -49t-68 49l-436 1427q-8 33 11 63q19 29 63 29t61 -49l371 -1206l370 1206q15 51 69 50t69 -50l368 -1206l369 1206q18 49 60 49z" />
    <glyph glyph-name="X" unicode="X" horiz-adv-x="1298" 
d="M426 944l-373 496q-18 20 -14 50q5 30 27 46t53 16q33 -6 47 -28l373 -496q18 -20 13 -51t-28 -48q-22 -17 -52 -13t-46 28zM1128 12l-372 496q-18 20 -14 50t28 48q25 18 53 12q29 0 45 -26l373 -496q18 -23 12 -51q-1 -31 -25 -48t-54 -13t-46 28zM1241 1440
l-1075 -1428q-16 -24 -46 -28t-52 14q-25 16 -27 47q-6 29 12 51l1075 1428q14 23 48 28q32 0 54 -16t26 -46t-15 -50z" />
    <glyph glyph-name="Y" unicode="Y" horiz-adv-x="1282" 
d="M418 905l-383 539q-16 24 -11 52q4 28 30 45t52 11q29 0 46 -26l383 -539q16 -23 10 -53t-30 -45q-25 -17 -53 -13t-44 29zM702 53q0 -29 -20 -49t-49 -20t-49 20t-21 49v670q0 29 15 43l538 758q23 28 62 28q38 0 58 -38t-5 -72l-529 -740v-649z" />
    <glyph glyph-name="Z" unicode="Z" horiz-adv-x="1312" 
d="M1268 70q0 -30 -20 -50t-50 -20h-1083q-29 0 -49 20t-20 46t15 49l990 1282h-936q-29 0 -49 20t-21 49q1 30 21 50t49 20h1083q29 0 49 -20q21 -20 21 -46t-17 -49l-989 -1282h936q30 0 50 -20t20 -49z" />
    <glyph glyph-name="bracketleft" unicode="[" horiz-adv-x="575" 
d="M461 -350h-228q-29 0 -49 19t-20 48v1749q0 30 20 50t49 20h228q29 0 49 -20t20 -50t-20 -49q-23 -18 -49 -18h-160v-1612h160q29 0 49 -20q20 -19 20 -49t-20 -50q-22 -18 -49 -18z" />
    <glyph glyph-name="backslash" unicode="\" horiz-adv-x="933" 
d="M768 -16q-33 0 -47 32l-608 1461q-10 31 6 51q12 24 49 24t45 -30l606 -1456q14 -31 0 -58q-18 -24 -51 -24z" />
    <glyph glyph-name="bracketright" unicode="]" horiz-adv-x="575" 
d="M342 -350h-227q-29 0 -49 19t-21 48q1 29 21 49t49 21h159v1612h-159q-29 0 -49 19t-21 48q1 30 21 50t49 20h227q29 0 49 -20t21 -50v-1749q0 -29 -21 -49q-22 -18 -49 -18z" />
    <glyph glyph-name="asciicircum" unicode="^" horiz-adv-x="1103" 
d="M143 733q-57 37 -26 94l375 689q20 36 59 36t61 -36l375 -689q31 -57 -26 -94q-57 -27 -93 29l-317 584l-315 -584q-36 -56 -93 -29z" />
    <glyph glyph-name="underscore" unicode="_" horiz-adv-x="1062" 
d="M0 -186h1186v-52h-1186v52z" />
    <glyph glyph-name="grave" unicode="`" horiz-adv-x="718" 
d="M518 1452q35 -22 22 -53t-48 -21l-273 70q-27 8 -39 33t-3 53t36 39q25 8 51 0z" />
    <glyph glyph-name="a" unicode="a" 
d="M715 102q141 0 272 82q58 34 94 -4q21 -20 21 -55t-41 -57q-152 -102 -346 -103q-257 1 -445 185t-188 443t186 443q188 184 447 185q305 0 487 -275v187q0 29 20 49t50 20q29 0 49 -20t20 -49v-1080q0 -29 -20 -49t-48 -20q-27 0 -49 22t-22 47v541q0 203 -143 346
t-345 143t-345 -143t-143 -347q0 -203 142 -347q144 -144 347 -144z" />
    <glyph glyph-name="b" unicode="b" 
d="M750 1083q-141 0 -273 -82q-27 -16 -51 -16q-24 1 -43 21q-21 20 -21 55t41 57q152 102 347 103q258 -1 445 -185t187 -443t-187 -443t-445 -185q-305 0 -488 275v-187q0 -29 -20 -49t-49 -20t-50 20q-20 20 -20 49v1430q0 29 20 49q21 20 47 20t52 -20q20 -27 20 -49
v-891q0 -203 144 -346q144 -144 345 -144q202 0 345 144t143 347q0 204 -143 347t-346 143z" />
    <glyph glyph-name="c" unicode="c" horiz-adv-x="1247" 
d="M1108 268q26 0 47 -20t23 -49t-21 -47q-193 -186 -446 -187q-264 4 -445 187q-184 180 -184 442t182 442t447 185q260 0 446 -185q19 -20 21 -49t-20 -49t-52 -18q-31 2 -49 20q-147 141 -346 143q-203 -4 -344 -145t-141 -344t142 -347q144 -144 344 -144t347 147
q23 18 49 18z" />
    <glyph glyph-name="d" unicode="d" 
d="M715 102q141 0 272 82q58 34 94 -4q21 -20 21 -55t-41 -57q-152 -102 -346 -103q-257 1 -445 185t-188 443t186 443q188 184 447 185q305 0 487 -275v537q0 29 20 49t50 20q29 0 49 -20t20 -49v-1430q0 -29 -20 -49t-48 -20q-27 0 -49 22t-22 47v541q0 203 -143 346
t-345 143t-345 -143t-143 -347q0 -203 142 -347q144 -144 347 -144z" />
    <glyph glyph-name="e" unicode="e" horiz-adv-x="1417" 
d="M330 594q0 29 20 49t49 21h793q-29 182 -165 301q-137 119 -327 119t-332 -144q-142 -143 -142 -347t142 -347t343 -144q121 0 224 56t167 151q22 35 62 35t60 -38t-3 -73q-76 -111 -213 -192q-145 -76 -297 -76q-261 1 -445 185t-184 445t184 443t442 182t441 -182
q182 -184 186 -444q0 -25 -20 -49q-23 -20 -51 -21h-865q-29 0 -49 20t-20 50z" />
    <glyph glyph-name="f" unicode="f" horiz-adv-x="684" 
d="M250 -16q-29 0 -49 20t-21 49v821q0 30 20 50t50 20q29 0 49 -20t20 -50v-821q0 -29 -20 -49t-49 -20zM25 1116q0 29 20 49t49 21h86v125q0 119 82 189t190 71q108 0 187 -64q25 -20 25 -51t-20 -51q-44 -43 -89 -7t-102 36t-93 -33q-41 -33 -41 -90v-125h191
q29 0 49 -20q21 -20 21 -50q0 -29 -20 -49t-50 -20h-416q-29 0 -49 20t-20 49z" />
    <glyph glyph-name="g" unicode="g" horiz-adv-x="1460" 
d="M712 1083q-202 0 -346 -143t-143 -347q-1 -204 143 -347t345 -144q141 0 272 82q58 34 94 -4q21 -20 21 -55t-41 -57q-152 -102 -346 -103q-258 0 -445 182q-184 185 -184 447t184 444t445 183q305 0 487 -275v187q0 29 20 49t50 20q29 0 49 -20t20 -49v-930
q0 -258 -182 -422q-179 -166 -427 -166t-472 113q-37 18 -37 54q1 36 21 56t44 20t38 -8q184 -98 386 -98t338 115t152 317v410q0 201 -141 346q-143 143 -345 143z" />
    <glyph glyph-name="h" unicode="h" horiz-adv-x="1257" 
d="M123 1483q0 29 20 49q19 20 49 20t50 -20t20 -49v-1430q0 -29 -20 -49t-49 -20t-50 20q-20 20 -20 49v1430zM432 1022q-25 0 -46 22t-21 55q0 34 34 56q115 66 263 66q221 0 347 -132t126 -341v-695q-1 -29 -21 -49t-49 -20t-49 20t-21 49v695q0 152 -92 244t-241 91
q-104 0 -189 -51q-16 -10 -41 -10z" />
    <glyph glyph-name="i" unicode="i" horiz-adv-x="385" 
d="M102 1481q0 37 27 63t64 27q37 0 63 -27q26 -28 27 -64q0 -36 -27 -63q-28 -27 -64 -27t-63 28q-27 26 -27 63zM123 53v1080q0 29 20 49q19 20 49 20t50 -20t20 -49v-1080q0 -29 -20 -49t-49 -20t-50 20q-20 20 -20 49z" />
    <glyph glyph-name="j" unicode="j" horiz-adv-x="538" 
d="M254 1481q0 37 27 63t63 27q36 0 64 -27q26 -28 26 -64t-26 -63t-64 -27t-64 28q-26 26 -26 63zM145 -248q51 0 88 41q41 39 41 103v1237q0 29 21 47q20 22 50 20t49 -21t20 -46v-1237q0 -117 -82 -199t-197 -82t-194 80q-23 23 -23 49t23 50q23 22 49 18q29 0 51 -23
q53 -37 104 -37z" />
    <glyph glyph-name="k" unicode="k" horiz-adv-x="1134" 
d="M123 53v1430q0 29 20 49q19 20 49 20t50 -20t20 -49v-1430q0 -29 -20 -49t-49 -20t-50 20q-20 20 -20 49zM991 1186q23 23 51 18q27 0 50 -22q18 -23 16 -53t-21 -48l-555 -485l555 -490q18 -18 23 -49q0 -29 -20 -51t-48 -22q-29 -4 -51 18l-616 547q-18 16 -19 47
q4 33 23 51z" />
    <glyph glyph-name="l" unicode="l" horiz-adv-x="385" 
d="M123 53v1430q0 29 20 49q19 20 49 20t50 -20t20 -49v-1430q0 -29 -20 -49t-49 -20t-50 20q-20 20 -20 49z" />
    <glyph glyph-name="m" unicode="m" horiz-adv-x="1781" 
d="M194 -16q-30 0 -51 20q-20 20 -20 49v1080q0 29 20 49q19 20 49 20t50 -20t20 -49v-1080q4 -29 -20 -49q-18 -20 -48 -20zM365 1128q0 55 55 70q74 23 143 23q184 0 289 -111q109 -109 109 -287v-770q-1 -29 -21 -49t-49 -20t-49 20t-21 49v770q0 117 -71 189
q-72 72 -187 71q-41 0 -100 -20q-20 -4 -39 -4t-39 20t-20 49zM1060 1024q-26 0 -46 20t-21 53q0 32 39 62q94 61 230 62q180 0 290 -111q106 -113 107 -287v-770q-1 -29 -21 -49t-49 -20t-49 20t-20 49v770q0 117 -72 189t-173 72t-171 -48q-18 -12 -44 -12z" />
    <glyph glyph-name="n" unicode="n" horiz-adv-x="1257" 
d="M194 -16q-30 0 -51 20q-20 20 -20 49v1080q0 29 20 49q19 20 49 20t50 -20t20 -49v-1080q4 -29 -20 -49q-18 -20 -48 -20zM432 1022q-25 0 -46 22t-21 55q0 34 34 56q115 66 263 66q221 0 347 -132t126 -341v-695q-1 -29 -21 -49t-49 -20t-49 20t-21 49v695
q0 152 -92 244t-241 91q-104 0 -189 -51q-16 -10 -41 -10z" />
    <glyph glyph-name="o" unicode="o" horiz-adv-x="1429" 
d="M716 -35q-258 1 -446 185t-188 443t186 443q188 184 448 184t445 -182q187 -182 187 -443t-186 -445t-446 -185zM716 102q204 0 346 144t142 347q0 204 -142 347t-345 143t-348 -143q-143 -147 -143 -349q0 -201 142 -345q144 -144 348 -144z" />
    <glyph glyph-name="p" unicode="p" 
d="M750 1083q-141 0 -273 -82q-27 -16 -51 -16q-24 1 -43 21q-21 20 -21 55t41 57q152 102 347 103q258 -1 445 -185t187 -443t-187 -443t-445 -185q-305 0 -488 275v-537q0 -29 -20 -49t-49 -20t-49 20t-21 49v1430q0 29 20 49q21 20 49 20t49 -21t21 -48v-541
q0 -203 144 -346q144 -144 345 -144q202 0 345 144t143 347q0 204 -143 347t-346 143z" />
    <glyph glyph-name="q" unicode="q" 
d="M715 102q141 0 272 82q58 34 94 -4q21 -20 21 -55t-41 -57q-152 -102 -346 -103q-257 1 -445 185t-188 443t186 443q188 184 447 185q305 0 487 -275v187q0 29 20 49t50 20q29 0 49 -20t20 -49v-1430q0 -29 -20 -49t-50 -20t-46 22q-23 16 -23 47v891q0 203 -143 346
t-345 143t-345 -143t-143 -347q0 -203 142 -347q144 -144 347 -144z" />
    <glyph glyph-name="r" unicode="r" horiz-adv-x="862" 
d="M194 -16q-30 0 -51 20q-20 20 -20 49v350q0 29 20 49q19 20 49 21q30 0 50 -20t20 -50v-350q4 -29 -20 -49q-18 -20 -48 -20zM123 645v488q0 29 20 49q19 20 49 20t50 -20t20 -49v-183q119 270 418 271q130 -2 156 -45q16 -23 10 -55t-30 -47t-64 -6t-72 9
q-184 2 -290 -119t-128 -319q-4 -27 -22 -45t-47 -18t-49 20t-21 49z" />
    <glyph glyph-name="s" unicode="s" horiz-adv-x="1120" 
d="M266 904q0 -87 58 -138q59 -49 143 -61q10 -3 146 -25q135 -22 221 -47t147 -101q57 -78 57 -206q0 -172 -129 -266t-361 -95q-232 0 -433 123q-33 20 -33 62t37 63q35 23 69 0q193 -111 360 -111t257 60t90 170q0 80 -43 123q-61 69 -239 91q-54 6 -155 22
q-101 15 -176 51q-76 35 -116 106q-43 68 -43 180q0 156 121 236q120 80 318 80t368 -95q43 -20 43 -62t-36 -61t-73 1q-168 80 -306 80t-215 -47q-77 -46 -77 -133z" />
    <glyph glyph-name="t" unicode="t" horiz-adv-x="638" 
d="M41 1116q0 29 20 49t50 21h86v215q0 29 20 49t49 20t49 -20t21 -49v-215h190q29 0 49 -20q21 -20 21 -50q0 -29 -20 -49t-50 -20h-415q-29 0 -50 20q-20 20 -20 49zM336 874v-595q0 -57 41 -99t98 -41h51q29 0 52 -20q20 -25 20 -49t-20 -50q-23 -20 -52 -20h-51
q-115 0 -197 82t-81 197v595q0 30 20 50t49 20q30 0 50 -20t20 -50z" />
    <glyph glyph-name="u" unicode="u" horiz-adv-x="1257" 
d="M995 53v1080q-4 29 21 49q18 20 48 20t50 -20t21 -49v-1080q-1 -29 -21 -49t-49 -20t-49 20t-21 49zM893 85q0 -32 -35 -54q-115 -66 -262 -66q-221 0 -347 132t-126 341v695q0 29 20 49q19 20 49 20t50 -20t20 -49v-695q0 -152 92 -244t242 -92q104 0 188 52
q16 10 39 10t49 -21q21 -26 21 -58z" />
    <glyph glyph-name="v" unicode="v" horiz-adv-x="1196" 
d="M598 -16q-44 0 -63 39l-504 1081q-12 29 -2 53q5 27 31 38t59 5q29 -14 39 -37l440 -958l440 958q10 23 39 37q33 6 59 -5t31 -38q10 -25 -2 -53l-503 -1081q-20 -39 -64 -39z" />
    <glyph glyph-name="w" unicode="w" horiz-adv-x="1644" 
d="M1184 -16q-51 0 -68 47l-293 870l-293 -870q-18 -47 -69 -47t-70 47l-362 1075q-12 32 9 64t66 32t64 -51l293 -877l293 877q18 51 69 51t70 -51l291 -877l293 877q18 51 61 51t68 -31q20 -32 8 -65l-363 -1075q-2 -18 -22 -35q-20 -12 -45 -12z" />
    <glyph glyph-name="x" unicode="x" horiz-adv-x="1114" 
d="M701 489q41 0 59 -28l299 -361q29 -35 10 -75q-16 -41 -57 -41t-62 26l-299 361q-29 35 -10 77t60 41zM107 1202q41 0 59 -28l299 -361q29 -35 10 -76q-16 -41 -57 -41t-62 27l-299 360q-29 35 -10 77t60 42zM1059 1083l-893 -1073q-20 -26 -62 -26t-60 42t13 76
l891 1072q29 28 68 28q38 0 56 -43t-13 -76z" />
    <glyph glyph-name="y" unicode="y" horiz-adv-x="1196" 
d="M502 256q-29 -12 -56 -4t-38 37l-377 815q-12 29 -2 53q5 27 31 38t59 5q29 -14 39 -37l377 -815q12 -29 2 -53q-6 -27 -35 -39zM463 -365q-32 -5 -58 6t-32 37q-10 25 2 54l663 1431q10 23 39 37q33 6 59 -5t31 -38q10 -25 -2 -53l-663 -1432q-10 -23 -39 -37z" />
    <glyph glyph-name="z" unicode="z" horiz-adv-x="1077" 
d="M1028 1117q0 -24 -16 -46l-742 -932h686q29 0 52 -20q20 -25 20 -49t-20 -50q-23 -20 -52 -20h-835q-29 0 -51 20q-39 49 -4 95l741 932h-688q-29 0 -49 20t-21 49q1 29 21 49t49 21h837q29 0 52 -21q20 -24 20 -48z" />
    <glyph glyph-name="braceleft" unicode="{" horiz-adv-x="679" 
d="M131 592q-1 29 19 49q20 21 57 21t67 30t31 76v522q0 104 72 174q68 72 172 72h16q29 0 49 -20t20 -50t-20 -49q-20 -20 -49 -20h-16q-43 0 -74 -31t-31 -76v-522q0 -113 -104 -174q104 -66 104 -176v-520q0 -45 31 -76t74 -31h16q29 0 49 -20q20 -21 20 -51t-20 -48
q-20 -23 -49 -22h-16q-104 0 -174 72t-70 176v520q0 45 -31 76q-32 30 -68 30t-54 21q-21 18 -21 47z" />
    <glyph glyph-name="bar" unicode="|" horiz-adv-x="606" 
d="M246 -309v1804q0 20 16 41q20 16 40 16t42 -16q16 -20 16 -41v-1804q0 -23 -17 -40t-40 -17t-40 16q-17 18 -17 41z" />
    <glyph glyph-name="braceright" unicode="}" horiz-adv-x="679" 
d="M549 592q0 -29 -21 -47q-18 -21 -55 -21t-67 -30t-31 -76v-520q0 -104 -70 -176t-174 -72h-16q-29 0 -49 20t-20 50t20 50t49 21h16q43 0 74 31t31 76v520q0 111 104 176q-104 61 -104 174v522q0 45 -31 76t-74 31h-16q-29 0 -49 20t-21 49q1 30 21 50t49 20h16
q104 0 172 -72q72 -70 72 -174v-522q0 -45 31 -76q32 -30 68 -30t56 -20t19 -50z" />
    <glyph glyph-name="asciitilde" unicode="~" horiz-adv-x="962" 
d="M610 573q93 0 105 84q2 25 22 40t46 13t41 -22t14 -47q-8 -80 -70 -136t-150 -56q-131 0 -192 114q-31 49 -74 49q-92 0 -104 -84q-2 -25 -22 -40t-47 -13q-26 3 -41 23t-13 47q9 80 71 136t148 56q131 0 193 -114q30 -50 73 -50z" />
  </font>
</defs>
</svg>
