<?xml version="1.0" standalone="no"?>
<!DOCTYPE svg PUBLIC "-//W3C//DTD SVG 1.1//EN" "http://www.w3.org/Graphics/SVG/1.1/DTD/svg11.dtd" >
<svg xmlns="http://www.w3.org/2000/svg">
<metadata>
Created by FontPrep 20130207 at Sun Jan  1 12:24:19 2017
 By Simon McManus
 Copyright (c)2014 Talbot Type. All Rights Reserved
</metadata>
<defs>
<font id="422a2ae7aa756199890fa39d0fbd52d4" horiz-adv-x='1024' >
  <font-face 
    font-family="KroppenRound-Light"
    font-weight="400"
    font-stretch="normal"
    units-per-em="2048"
    panose-1="2 11 3 3 3 6 0 6 0 4"
    ascent="1645"
    descent="-403"
    x-height="1186"
    cap-height="1552"
    bbox="-94 -418 2703 1892"
    underline-thickness="57"
    underline-position="-148"
    unicode-range="U+0020-FB04"
  />
<missing-glyph horiz-adv-x="391" 
 />
    <glyph glyph-name=".notdef" horiz-adv-x="391" 
 />
    <glyph glyph-name=".null" horiz-adv-x="0" 
 />
    <glyph glyph-name="nonmarkingreturn" horiz-adv-x="681" 
 />
    <glyph glyph-name="space" unicode=" " horiz-adv-x="552" 
 />
    <glyph glyph-name="exclam" unicode="!" 
d="M100 38.5q0 22.5 16.5 39t40.5 16.5t41 -16.5t17 -39t-17.5 -38.5t-41.5 -16t-40 16t-16 38.5zM157.5 1552q14.5 0 25 -10t10.5 -24l-11 -1168q0 -25 -24.5 -25t-24.5 25l-10 1168q0 14 10 24t24.5 10z" />
    <glyph glyph-name="quotedbl" unicode="&#x22;" horiz-adv-x="364" 
d="M205 1198v326q0 29 28.5 28.5t28.5 -28.5v-326q0 -29 -28.5 -29t-28.5 29zM102 1198v326q0 29 29 28.5t29 -28.5v-326q0 -29 -29 -29t-29 29z" />
    <glyph glyph-name="numbersign" unicode="#" horiz-adv-x="1269" 
d="M805 907h-281l-59 -278h280zM59 559q-14 0 -24 10.5t-10 24.5t10 24.5t24 10.5h336l60 278h-398q-14 0 -23 10.5t-9 24.5t10 24.5t22 10.5h412l115 541q8 35 43 34q14 0 22 -10t4 -24l-114 -541h280l117 541q8 35 43 34q14 0 22.5 -10t4.5 -24l-117 -541h321
q14 0 24.5 -10.5t10.5 -24.5t-10 -24.5t-25 -10.5h-336l-59 -278h395q14 0 24.5 -10.5t10.5 -24.5t-10 -24.5t-25 -10.5h-409l-115 -541q-8 -35 -43 -34q-14 0 -22.5 10t-4.5 24l115 541h-280l-115 -541q-8 -35 -43 -34q-14 0 -22.5 10t-4.5 24l115 541h-322z" />
    <glyph glyph-name="dollar" unicode="$" horiz-adv-x="1210" 
d="M569 1546v107q0 14 10.5 24.5t24.5 10.5t24.5 -10.5t10.5 -24.5v-84q242 -8 430 -129q25 -14 25 -30t-10 -27t-22 -11t-28 10q-172 111 -416 115q-20 0 -34.5 14.5t-14.5 34.5zM639 -16v-105q0 -14 -10.5 -24.5t-24.5 -10.5t-24.5 10.5t-10.5 24.5v86q-270 8 -467 148
q-20 16 -20 31t9 25.5t23 10.5t27 -12q183 -133 449 -135q20 0 34.5 -14.5t14.5 -34.5zM1057 389q0 113 -52.5 190.5t-135.5 115.5t-183 64.5t-199.5 53.5t-182.5 64.5t-135 113.5t-52 192t84 214t219 141q33 10 45 -20q10 -33 -21 -45q-117 -37 -186.5 -117t-69.5 -177
t52.5 -161t135.5 -95.5t183 -55t199.5 -53.5t182.5 -74t135 -133t52 -221t-95 -240.5t-247 -153.5q-14 -4 -26.5 3t-16.5 20t3.5 25.5t19.5 16.5q131 41 211 130t80 202z" />
    <glyph glyph-name="percent" unicode="%" horiz-adv-x="1714" 
d="M322 41l8 16l997 1479q12 20 37 16q33 -8 29 -41l-1006 -1495q-16 -18 -37 -16q-32 8 -28 41zM1561 358.5q0 137.5 -94.5 230.5t-228.5 93t-231.5 -94t-97.5 -229.5t97.5 -230.5t231.5 -95t228.5 94t94.5 231.5zM805 1179.5q0 137.5 -94.5 230.5t-228.5 93t-231 -94
t-97 -229.5t97 -230.5t231 -95t228.5 94t94.5 231.5zM1632 358.5q0 -161.5 -116.5 -277.5t-279.5 -116t-280.5 116.5t-117.5 276.5t118.5 276t280.5 116t278.5 -115t116.5 -276.5zM877 1179.5q0 -161.5 -117 -277.5t-280 -116t-280.5 116t-117.5 277t118.5 276.5
t280.5 115.5t279 -115t117 -276.5z" />
    <glyph glyph-name="ampersand" unicode="&#x26;" horiz-adv-x="1341" 
d="M1094 733v-504q0 -72 52 -124t124 -52q14 0 24.5 -10t10.5 -24.5t-10.5 -24.5t-24.5 -10q-100 0 -173 72.5t-73 172.5v504q0 100 72.5 173t173.5 73q14 0 24.5 -10.5t10.5 -24.5t-10.5 -24.5t-24.5 -10.5q-72 0 -124 -52t-52 -124zM584 35q174 0 303 117q25 20 49 -4
q10 -10 8 -26t-12 -24q-145 -133 -349 -133t-352.5 148.5t-148.5 357.5t148.5 357.5t359.5 148.5q109 0 184.5 76.5t75.5 185.5t-76 185.5t-184.5 76.5t-186 -76.5t-77.5 -172.5t51 -169q8 -10 3 -25.5t-18 -21.5q-27 -16 -47 13q-61 88 -61 190q0 137 98.5 234.5
t236.5 97.5t235.5 -97.5t97.5 -234.5t-97.5 -234.5t-234.5 -97.5q-180 0 -308 -128t-128 -308t128 -308t302 -128z" />
    <glyph glyph-name="quotesingle" unicode="'" horiz-adv-x="262" 
d="M102 1198v326q0 29 29 28.5t29 -28.5v-326q0 -29 -29 -29t-29 29z" />
    <glyph glyph-name="parenleft" unicode="(" horiz-adv-x="542" 
d="M164 592q0 260 68.5 517t193.5 462q10 16 27 16q29 0 28 -28q0 -6 -8 -23q-231 -383 -231 -944t231 -944q8 -16 8 -23q0 -29 -28 -28q-16 0 -27 16q-125 205 -193.5 462t-68.5 517z" />
    <glyph glyph-name="parenright" unicode=")" horiz-adv-x="542" 
d="M379 592q0 -260 -68.5 -517t-193.5 -462q-10 -16 -27 -16q-29 0 -29 28q0 6 9 23q231 383 231 944t-231 944q-8 16 -9 23q0 29 29 28q16 0 27 -16q125 -205 193.5 -462t68.5 -517z" />
    <glyph glyph-name="asterisk" unicode="*" horiz-adv-x="712" 
d="M356.5 1567q14.5 0 25.5 -10.5t9 -24.5l-6 -158l131 86q12 8 26.5 3t21.5 -16t4 -26.5t-17 -21.5l-139 -72l139 -72q14 -6 17 -21.5t-4 -27.5t-21.5 -16t-26.5 4l-131 84l6 -156q2 -14 -9 -24.5t-25.5 -10.5t-26 10.5t-8.5 24.5l8 156l-133 -84q-12 -8 -26.5 -4t-21.5 16
t-4.5 27.5t17.5 21.5l139 72l-139 72q-14 6 -17.5 21.5t5.5 25.5q6 12 20.5 17t26.5 -3l133 -86l-8 158q-2 14 9 24.5t25.5 10.5z" />
    <glyph glyph-name="plus" unicode="+" horiz-adv-x="1392" 
d="M662 18v541h-541q-14 0 -24.5 10.5t-10.5 24.5t10 24.5t25 10.5h541v538q0 14 10 24.5t24.5 10.5t24.5 -10t10 -25v-538h541q14 0 24.5 -10.5t10.5 -24.5t-10.5 -24.5t-24.5 -10.5h-541v-541q0 -14 -10 -24t-24.5 -10t-24.5 10t-10 24z" />
    <glyph glyph-name="comma" unicode="," horiz-adv-x="370" 
d="M76 -186.5q0 26.5 26 26.5q16 0 29.5 13.5t13.5 29.5v101h-10q-27 0 -45 19t-18 45t18.5 44.5t45 18.5t44 -18.5t17.5 -43.5v-168q0 -39 -28.5 -66.5t-60.5 -27.5t-32 26.5z" />
    <glyph glyph-name="hyphen" unicode="-" horiz-adv-x="950" 
d="M127 594q0 14 10 24.5t25 10.5h626q14 0 24.5 -10.5t10.5 -24.5t-10 -24.5t-25 -10.5h-626q-14 0 -24.5 10.5t-10.5 24.5z" />
    <glyph glyph-name="period" unicode="." horiz-adv-x="370" 
d="M135.5 -16q-26.5 0 -45 19t-18.5 45t18.5 44.5t45 18.5t44 -18.5t17.5 -45.5t-17.5 -45t-44 -18z" />
    <glyph glyph-name="slash" unicode="/" horiz-adv-x="905" 
d="M106 14q0 10 5 23l620 1493q7 22 27 22t30.5 -10t10.5 -20t-2 -17l-623 -1499q-10 -22 -28 -22t-29 10t-11 20z" />
    <glyph glyph-name="zero" unicode="0" horiz-adv-x="1224" 
d="M1049 471v592q0 182 -128 310t-308.5 128t-308.5 -128t-128 -310v-592q0 -180 128 -308t308.5 -128t308.5 128t128 308zM1118 1063v-592q0 -209 -148.5 -357.5t-358.5 -148.5t-357.5 148.5t-147.5 357.5v592q0 211 147.5 359.5t357.5 148.5t358.5 -148.5t148.5 -359.5z
" />
    <glyph glyph-name="one" unicode="1" horiz-adv-x="552" 
d="M82 1370q0 18 18 27l256 149q8 6 26 6t33 -14t15 -35v-1485q0 -14 -10 -24t-24.5 -10t-25 10t-10.5 24v1448l-229 -131q-8 -4 -18 -4t-20.5 10.5t-10.5 28.5z" />
    <glyph glyph-name="two" unicode="2" horiz-adv-x="1212" 
d="M150 50q0 22 22 40l725 610q162 135 162 335t-132 333t-320.5 133t-321.5 -133t-133 -321v-27q0 -14 -10.5 -24.5t-25 -10.5t-24.5 10.5t-10 24.5v27q0 217 153.5 370.5t370.5 153.5t370.5 -153.5t153.5 -383.5t-186 -389l-688 -575h791q14 0 24 -10.5t10 -25t-10 -24.5
t-24 -10h-848q-20 0 -34.5 14t-14.5 36z" />
    <glyph glyph-name="three" unicode="3" horiz-adv-x="1208" 
d="M147 1501.5q0 14.5 10.5 24.5t24.5 10h776q20 0 35 -15t15 -37t-23 -40l-688 -621q-9 -12 -25 -12t-26 10.5t-10 26.5t12 24l655 594h-721q-14 0 -24.5 10.5t-10.5 25zM1126 477q0 -207 -154.5 -359.5t-368.5 -152.5t-364.5 144.5t-160.5 351.5q0 14 10 24.5t24.5 10.5
t24.5 -10.5t10 -24.5q10 -178 141.5 -302t315.5 -124t317.5 132t133.5 312t-115 309.5t-285 149.5q-14 2 -23 13.5t-7 25.5t13 23.5t26 7.5q197 -27 329.5 -175.5t132.5 -355.5z" />
    <glyph glyph-name="four" unicode="4" horiz-adv-x="1214" 
d="M864.5 557q-14.5 0 -25 10.5t-10.5 24.5v850l-702 -987h991q14 0 24.5 -10.5t10.5 -24.5t-10 -24.5t-25 -10.5h-219v-367q0 -14 -10 -24t-24.5 -10t-25 10t-10.5 24v367h-743q-20 0 -34.5 14.5t-14.5 35t12 34.5l760 1061q13 22 37 22t38.5 -14t14.5 -35v-911
q0 -14 -10 -24.5t-24.5 -10.5z" />
    <glyph glyph-name="five" unicode="5" horiz-adv-x="1204" 
d="M344 1536h586q14 0 24.5 -10t10.5 -24.5t-10.5 -25t-24.5 -10.5h-568l-120 -688q-2 -14 -14.5 -22t-25.5 -5t-21.5 14.5t-6.5 25.5l121 702q8 43 49 43zM598 1010q217 0 370.5 -153t153.5 -369t-153.5 -369.5t-365.5 -153.5t-360.5 140.5t-164.5 345.5v8q0 14 10 24.5
t24.5 10.5t24.5 -10.5t10 -24.5q12 -178 141.5 -301t313.5 -123t316.5 133t132.5 321.5t-132.5 320.5t-320.5 132q-96 0 -192 -43q-34 -13 -48 16q-6 12 -1 26.5t20 21.5q96 47 221 47z" />
    <glyph glyph-name="six" unicode="6" horiz-adv-x="1212" 
d="M606 1010q217 0 370.5 -153t153.5 -369t-153.5 -369.5t-370.5 -153.5t-370.5 152.5t-153.5 371.5q0 158 92 293l502 752q10 18 28 18t27.5 -10t9.5 -22t-10 -27l-504 -760q-74 -106 -73 -244q0 -188 132 -321t320.5 -133t320.5 133t132 321.5t-132 319.5t-321 131
q-23 0 -44 -3q-41 -6 -45 27q-5 32 26 39t63 7z" />
    <glyph glyph-name="seven" unicode="7" horiz-adv-x="1101" 
d="M375 13q0 9 4 22l594 1431h-893q-14 0 -24.5 10.5t-10.5 25t10.5 24.5t24.5 10h928q20 0 34.5 -14.5t14.5 -29.5t-6 -28l-609 -1454q-12 -26 -29 -26t-27.5 10t-10.5 19z" />
    <glyph glyph-name="eight" unicode="8" horiz-adv-x="1212" 
d="M1130 404q0 -196 -152.5 -317.5t-373.5 -121.5t-371.5 122t-150.5 314.5t151.5 315.5t372.5 123q176 0 289 90t113 239.5t-113 240.5t-289 91t-288.5 -90.5t-112.5 -236.5t100 -236q2 -2 4 -2q10 -10 10 -24.5t-10 -24.5t-24.5 -10t-24.5 10q-127 111 -127 285t135 286.5
t336 112.5t338 -111.5t137 -290t-136 -289t-335 -110.5t-326.5 -101.5t-127.5 -267t127 -266t325.5 -100.5t325 100.5t126.5 266.5t-147 280q-12 8 -14 22.5t7 25.5t23.5 13t24.5 -8q178 -135 178 -331z" />
    <glyph glyph-name="nine" unicode="9" horiz-adv-x="1212" 
d="M606 526q-217 0 -370.5 153t-153.5 369t153.5 369.5t370.5 153.5t370.5 -152.5t153.5 -371.5q0 -158 -92 -293l-501 -752q-9 -18 -27 -18t-28.5 10t-10.5 22t10 27l504 760q74 106 74 244q0 188 -132 321t-320.5 133t-320.5 -133t-132 -321.5t132 -319.5t320 -131
q23 0 44 3q41 6 45 -27q5 -32 -25 -39t-64 -7z" />
    <glyph glyph-name="colon" unicode=":" horiz-adv-x="370" 
d="M135.5 1075q-26.5 0 -45 19.5t-18.5 45.5t18.5 44t45 18t44 -19t17.5 -45t-17.5 -44.5t-44 -18.5zM135.5 -16q-26.5 0 -45 19t-18.5 45t18.5 44.5t45 18.5t44 -18.5t17.5 -45.5t-17.5 -45t-44 -18z" />
    <glyph glyph-name="semicolon" unicode=";" horiz-adv-x="370" 
d="M76 -186.5q0 26.5 26 26.5q16 0 29.5 13.5t13.5 29.5v101h-10q-27 0 -45 19t-18 45t18.5 44.5t45 18.5t44 -18.5t17.5 -43.5v-168q0 -39 -28.5 -66.5t-60.5 -27.5t-32 26.5zM135.5 1075q-26.5 0 -45 19.5t-18.5 45.5t18.5 44t45 18t44 -19t17.5 -45t-17.5 -44.5
t-44 -18.5z" />
    <glyph glyph-name="less" unicode="&#x3c;" horiz-adv-x="884" 
d="M770 86q-12 0 -29 12l-671 457q-20 14 -20.5 38.5t20.5 39.5l671 457q17 12 29 12t22.5 -10.5t10.5 -26.5t-19 -29l-651 -442l651 -442q18 -12 18 -28t-10 -27t-22 -11z" />
    <glyph glyph-name="equal" unicode="=" horiz-adv-x="1390" 
d="M86 768q0 14 10 24.5t25 10.5h1149q14 0 24.5 -10.5t10.5 -24.5t-10.5 -24.5t-24.5 -10.5h-1149q-14 0 -24.5 10.5t-10.5 24.5zM86 420q0 14 10 24.5t25 10.5h1149q14 0 24.5 -10.5t10.5 -24.5t-10.5 -24.5t-24.5 -10.5h-1149q-14 0 -24.5 10.5t-10.5 24.5z" />
    <glyph glyph-name="greater" unicode="&#x3e;" horiz-adv-x="884" 
d="M82 1064q0 16 10 27t22 11t29 -12l672 -457q20 -14 20.5 -39t-20.5 -39l-672 -457q-16 -12 -28 -12t-22.5 10t-10.5 27t18 29l652 442l-652 442q-18 12 -18 28z" />
    <glyph glyph-name="question" unicode="?" horiz-adv-x="1212" 
d="M659 38q0 -24 -16 -39t-38.5 -15t-39 15t-16.5 39t16.5 40t39 16t38.5 -16t16 -40zM1059 1052q0 186 -133.5 317.5t-317.5 131.5t-315 -124t-141 -302q0 -14 -10.5 -24.5t-25 -10.5t-24.5 10.5t-10 24.5q10 207 160.5 351.5t364.5 144.5t368.5 -152.5t154.5 -364.5
t-142 -362.5t-349 -165.5v-182q0 -14 -10.5 -24.5t-24.5 -10.5t-24.5 10.5t-10.5 24.5v201q0 20 14.5 34.5t34.5 14.5q184 6 312.5 139t128.5 319z" />
    <glyph glyph-name="at" unicode="@" horiz-adv-x="1789" 
d="M868 385q144 0 242 74q27 18 49 -8q18 -27 -8 -50q-123 -86 -266 -86q-188 0 -321.5 132.5t-133.5 320.5t133 321.5t321.5 133.5t320.5 -133.5t132 -321.5v-244q0 -57 41.5 -98t99.5 -41t99 41t41 98v244q0 303 -215 518t-518 215t-517 -215t-214 -518t214 -518t517 -215
q133 0 313 69q23 12 37 -2t14 -34t-24 -29q-172 -74 -340 -74q-334 0 -568.5 235.5t-234.5 567.5t234.5 567.5t567.5 235.5t568.5 -235.5t235.5 -567.5v-244q0 -86 -61.5 -147.5t-148.5 -61.5t-148.5 61.5t-61.5 149.5v242q0 158 -113 271.5t-271 113.5t-270 -112.5
t-112 -271.5t111 -271.5t255 -112.5z" />
    <glyph glyph-name="A" unicode="A" horiz-adv-x="1396" 
d="M424 453h725q33 0 47 -35l160 -383q8 -18 -3.5 -34.5t-30.5 -16.5t-32 22l-155 377h-711q-14 0 -24.5 10t-10.5 24.5t10.5 25t24.5 10.5zM1086 555q-20 0 -31 23l-357 858l-592 -1430q-12 -22 -31 -22t-30.5 16t-3.5 35l614 1485q10 33 43 32.5t43 -32.5l379 -914
q8 -18 -3 -34.5t-31 -16.5z" />
    <glyph glyph-name="B" unicode="B" horiz-adv-x="1357" 
d="M1073.5 885q-24.5 0 -24.5 23.5t8 33.5q78 88 78 214t-91.5 218t-222.5 92h-628v-1396h663q143 0 245.5 102t102.5 245.5t-102.5 247t-245.5 103.5h-526q-14 0 -24.5 10t-10.5 24.5t10 25t25 10.5h526q174 0 297 -123t123 -297t-123 -296t-297 -122h-684
q-20 0 -34.5 14.5t-14.5 34.5v1438q0 20 14.5 34.5t34.5 14.5h649q160 0 272.5 -112.5t112.5 -267.5t-98 -263q-10 -8 -34.5 -8z" />
    <glyph glyph-name="C" unicode="C" horiz-adv-x="1511" 
d="M869 -35q-329 0 -564 235.5t-235 567.5t236 567.5t564 235.5t566 -232q10 -10 10 -24.5t-10.5 -24.5t-24.5 -10t-25 10q-217 211 -517 211t-514 -215t-214 -518t214 -518t514 -215t517 211q10 10 24.5 10t25 -10t10.5 -24.5t-10 -24.5q-238 -232 -567 -232z" />
    <glyph glyph-name="D" unicode="D" horiz-adv-x="1486" 
d="M123 18v1469q0 20 14.5 34.5t34.5 14.5h475q317 0 542.5 -225.5t225.5 -542.5t-225 -542.5t-543 -225.5h-317q-14 0 -24.5 10t-10.5 24.5t10 25t25 10.5h317q289 0 492.5 203.5t203.5 493.5t-203.5 494.5t-492.5 204.5h-454v-1448q0 -14 -10.5 -24t-25 -10t-24.5 10
t-10 24z" />
    <glyph glyph-name="E" unicode="E" horiz-adv-x="1312" 
d="M157.5 905q-14.5 0 -24.5 10.5t-10 24.5v547q0 20 14.5 34.5t34.5 14.5h1034q14 0 24.5 -10t10.5 -24.5t-10 -25t-25 -10.5h-1013v-526q0 -14 -10.5 -24.5t-25 -10.5zM123 754q0 20 14.5 34.5t34.5 14.5h893q14 0 24.5 -10.5t10.5 -24.5t-10.5 -24.5t-24.5 -10.5h-872
v-663h1013q14 0 24.5 -10.5t10.5 -25t-10 -24.5t-25 -10h-1034q-20 0 -34.5 14.5t-14.5 34.5v705z" />
    <glyph glyph-name="F" unicode="F" horiz-adv-x="1234" 
d="M157.5 905q-14.5 0 -24.5 10.5t-10 24.5v547q0 20 14.5 34.5t34.5 14.5h997q14 0 24.5 -10t10.5 -24.5t-10 -25t-25 -10.5h-976v-526q0 -14 -10.5 -24.5t-25 -10.5zM123 754q0 20 14.5 34.5t34.5 14.5h856q14 0 24.5 -10.5t10.5 -24.5t-10.5 -24.5t-24.5 -10.5h-835v-715
q0 -14 -10.5 -24t-25 -10t-24.5 10t-10 24v736z" />
    <glyph glyph-name="G" unicode="G" horiz-adv-x="1587" 
d="M858 768q0 14 10.5 24.5t24.5 10.5h543q20 0 34.5 -14.5t14.5 -34.5v-490q0 -20 -12 -33q-113 -125 -268.5 -195.5t-330.5 -70.5q-332 0 -567 235.5t-235 567.5t235.5 567.5t559.5 235.5t563 -223q10 -10 10 -24.5t-10.5 -25t-24.5 -10.5t-25 10q-215 203 -512 203
t-511 -215t-214 -518t213.5 -518t527.5 -215t531 237v461h-522q-14 0 -24.5 10.5t-10.5 24.5z" />
    <glyph glyph-name="H" unicode="H" horiz-adv-x="1431" 
d="M1274 631q14 0 24.5 -10.5t10.5 -24.5v-578q0 -14 -10.5 -24t-24.5 -10t-24.5 10t-10.5 24v578q0 14 10.5 24.5t24.5 10.5zM157.5 905q-14.5 0 -24.5 10.5t-10 24.5v578q0 14 10 24t24.5 10t25 -10t10.5 -24v-578q0 -14 -10.5 -24.5t-25 -10.5zM123 754q0 20 14.5 34.5
t34.5 14.5h1067v715q0 14 10.5 24t24.5 10t24.5 -10t10.5 -24v-736q0 -20 -14.5 -34.5t-34.5 -14.5h-1067v-715q0 -14 -10.5 -24t-25 -10t-24.5 10t-10 24v736z" />
    <glyph glyph-name="I" unicode="I" 
d="M123 18v1500q0 14 10 24t24.5 10t25 -10t10.5 -24v-1500q0 -14 -10.5 -24t-25 -10t-24.5 10t-10 24z" />
    <glyph glyph-name="J" unicode="J" horiz-adv-x="880" 
d="M41 102.5q0 14.5 10 24.5t24.5 10t22.5 -8q98 -94 244 -94t246 84t100 225v1174q0 14 10.5 24t24.5 10t24.5 -10t10.5 -24v-1174q0 -170 -122 -274.5t-294 -104.5t-289 111q-12 12 -12 26.5z" />
    <glyph glyph-name="K" unicode="K" horiz-adv-x="1220" 
d="M123 18v1500q0 14 10 24t24.5 10t25 -10t10.5 -24v-1500q0 -14 -10.5 -24t-25 -10t-24.5 10t-10 24zM289 768q0 20 16 37l821 739q8 8 22.5 8t25 -10t10.5 -24.5t-10 -24.5l-805 -725l805 -725q10 -10 10 -24.5t-10.5 -24.5t-24.5 -10t-23 8l-821 739q-16 17 -16 37z" />
    <glyph glyph-name="L" unicode="L" horiz-adv-x="1200" 
d="M172 0q-20 0 -34.5 14.5t-14.5 34.5v1469q0 14 10 24t24.5 10t25 -10t10.5 -24v-1448h942q14 0 24 -10.5t10 -25t-10 -24.5t-24 -10h-963z" />
    <glyph glyph-name="M" unicode="M" horiz-adv-x="1781" 
d="M1659 1513v-1495q0 -14 -10.5 -24t-24.5 -10t-24.5 10t-10.5 24v1409l-661 -772q-14 -16 -37 -16t-37 16l-661 772v-1409q0 -14 -10.5 -24t-25 -10t-24.5 10t-10 24v1495q0 14 12.5 26.5t28.5 12.5t35 -22l692 -811l692 811q32 41 54 19t22 -36z" />
    <glyph glyph-name="N" unicode="N" horiz-adv-x="1431" 
d="M1309 1518v-1498q0 -14 -11.5 -25t-29.5 -11t-29 16l-1046 1417v-1399q0 -14 -10.5 -24t-25 -10t-24.5 10t-10 24v1498q0 14 11.5 25t29.5 11t29 -16l1046 -1417v1399q0 14 10.5 24t24.5 10t24.5 -10t10.5 -24z" />
    <glyph glyph-name="O" unicode="O" horiz-adv-x="1748" 
d="M1677 768q0 -332 -235.5 -567.5t-568.5 -235.5t-567 235.5t-234 567.5t235 567.5t567 235.5t567.5 -235.5t235.5 -567.5zM1606 768q0 303 -214 518t-517.5 215t-517.5 -215t-214 -518t214 -518t517.5 -215t517.5 215t214 518z" />
    <glyph glyph-name="P" unicode="P" horiz-adv-x="1347" 
d="M295 628.5q0 14.5 10 25t25 10.5h475q166 0 282.5 116.5t116.5 282.5t-116.5 284.5t-282.5 118.5h-612v-1448q0 -14 -10.5 -24t-25 -10t-24.5 10t-10 24v1469q0 20 14.5 34.5t34.5 14.5h633q195 0 333 -138t138 -333t-138.5 -333t-332.5 -138h-475q-14 0 -24.5 10
t-10.5 24.5z" />
    <glyph glyph-name="Q" unicode="Q" horiz-adv-x="1740" 
d="M1571 784q0 297 -209 507t-506 210t-505 -210t-208 -507t208 -505.5t505 -208.5h731q14 0 24.5 -10.5t10.5 -25t-10 -24.5t-25 -10h-731q-326 0 -555 229.5t-229 555t229 556t555 230.5t556 -230.5t230 -556.5q0 -180 -75.5 -336.5t-208.5 -267.5q-27 -23 -49.5 3.5
t4.5 49.5q121 100 189.5 244t68.5 307z" />
    <glyph glyph-name="R" unicode="R" horiz-adv-x="1357" 
d="M539 615q0 19 14 34t35 15h217q166 0 282.5 117.5t116.5 283.5t-116.5 283.5t-282.5 117.5h-612v-1448q0 -14 -10.5 -24t-25 -10t-24.5 10t-10 24v1469q0 20 14.5 34.5t34.5 14.5h633q195 0 333 -137t138 -334t-138.5 -334t-332.5 -137h-174l434 -555q18 -27 -6 -49
q-29 -20 -49 6l-457 584q-14 16 -14 35z" />
    <glyph glyph-name="S" unicode="S" horiz-adv-x="1210" 
d="M604 1501q-178 0 -297 -89t-119 -234q0 -96 52.5 -160t135.5 -95.5t183 -55t199.5 -53.5t182.5 -74t135 -133t52 -218q0 -186 -151.5 -305t-372.5 -119q-287 0 -502 148q-20 16 -20 31t9 25.5t23 10.5t27 -12q190 -133 463 -133q193 0 323 97t130 257q0 113 -52.5 190.5
t-135.5 115.5t-183 64.5t-199.5 53.5t-182.5 64.5t-135 113.5t-52 187q0 174 140 283.5t347 109.5q264 0 465 -129q25 -14 25 -30t-10 -27t-22 -11t-28 10q-178 117 -430 117z" />
    <glyph glyph-name="T" unicode="T" horiz-adv-x="1226" 
d="M442 1466h-387q-14 0 -24.5 10.5t-10.5 25t10.5 24.5t24.5 10h387q14 0 24.5 -10t10.5 -24.5t-10.5 -25t-24.5 -10.5zM629 1536h542q14 0 24.5 -10t10.5 -24.5t-10 -25t-25 -10.5h-522v-1448q0 -14 -10 -24t-24.5 -10t-24.5 10t-10 24v1469q0 20 14.5 34.5t34.5 14.5z
" />
    <glyph glyph-name="U" unicode="U" horiz-adv-x="1431" 
d="M193 1518v-959q0 -217 153.5 -370.5t370.5 -153.5t369.5 153.5t152.5 370.5v959q0 14 10.5 24t24.5 10t24.5 -10t10.5 -24v-959q0 -246 -174 -420t-419 -174t-419 174t-174 420v959q0 14 10 24t24.5 10t25 -10t10.5 -24z" />
    <glyph glyph-name="V" unicode="V" horiz-adv-x="1368" 
d="M1337 1516q0 -6 -4 -19l-612 -1491q-12 -23 -37 -22.5t-37 22.5l-612 1491q-4 12 -4 19q0 37 35 36q25 0 34 -28l584 -1426l584 1426q10 29 35 28q34 1 34 -36z" />
    <glyph glyph-name="W" unicode="W" horiz-adv-x="1859" 
d="M1364 -16q-33 0 -41 34l-393 1385l-393 -1385q-8 -35 -41 -34q-14 0 -26.5 10t-14.5 24l-422 1483q-6 20 4 35.5t34 15.5t31 -30l394 -1389l393 1389q8 31 41 30.5t41 -30.5l393 -1389l393 1389q7 30 31 30t34.5 -15.5t4.5 -35.5l-422 -1483q-2 -14 -14.5 -24t-26.5 -10z
" />
    <glyph glyph-name="X" unicode="X" horiz-adv-x="1257" 
d="M1179 -16q-17 0 -28 18l-446 604q-18 24 -2 40t33 16t28 -19l446 -604q16 -27 1 -41t-32 -14zM521 874q-17 0 -27 19l-447 604q-6 11 -6 23t9.5 22t27.5 10t28 -18l447 -604q6 -10 6 -22t-10.5 -23t-27.5 -11zM41 16q0 12 6 23l1104 1495q9 18 27 18t28.5 -10t10.5 -22
t-7 -23l-1104 -1495q-10 -18 -27 -18t-27.5 10t-10.5 22z" />
    <glyph glyph-name="Y" unicode="Y" horiz-adv-x="1273" 
d="M527 852q-17 0 -27 18l-463 627q-6 11 -6 23t9.5 22t27.5 10t28 -18l463 -627q6 -10 6 -22t-10.5 -22.5t-27.5 -10.5zM602 18v723q0 18 12 35l564 758q10 18 27 18t27.5 -10t10.5 -22t-6 -23l-565 -762v-717q0 -14 -10.5 -24t-24.5 -10t-24.5 10t-10.5 24z" />
    <glyph glyph-name="Z" unicode="Z" horiz-adv-x="1302" 
d="M1262 34.5q0 -14.5 -10.5 -24.5t-24.5 -10h-1149q-16 0 -26.5 10t-10.5 24t8 25l1108 1407h-1081q-14 0 -24.5 10.5t-10.5 25t10 24.5t25 10h1149q16 0 26.5 -10t10.5 -24t-9 -25l-1108 -1407h1082q14 0 24.5 -10.5t10.5 -25z" />
    <glyph glyph-name="bracketleft" unicode="[" horiz-adv-x="505" 
d="M233 1466v-1747h193q14 0 24.5 -10t10.5 -24.5t-10.5 -24.5t-24.5 -10h-213q-20 0 -34.5 14t-14.5 35v1788q0 20 14.5 34.5t34.5 14.5h213q14 0 24.5 -10t10.5 -24.5t-10.5 -25t-24.5 -10.5h-193z" />
    <glyph glyph-name="backslash" unicode="\" horiz-adv-x="905" 
d="M799 14q0 -10 -10.5 -20t-28.5 -10t-29 22l-622 1499q-8 23 4.5 35t32.5 12t28 -22l621 -1493q4 -13 4 -23z" />
    <glyph glyph-name="bracketright" unicode="]" horiz-adv-x="505" 
d="M272 -281v1747h-192q-14 0 -24.5 10.5t-10.5 25t10.5 24.5t24.5 10h213q20 0 34.5 -14.5t14.5 -34.5v-1788q0 -20 -14.5 -34.5t-34.5 -14.5h-213q-14 0 -24.5 10t-10.5 24.5t10.5 24.5t24.5 10h192z" />
    <glyph glyph-name="asciicircum" unicode="^" horiz-adv-x="1159" 
d="M1053 789q0 -12 -10.5 -22.5t-28.5 -10.5t-29 22l-405 684l-406 -684q-10 -22 -28 -22q-40 1 -40 35q0 10 5 16l421 711q20 35 47 34.5t48 -34.5l422 -711q4 -6 4 -18z" />
    <glyph glyph-name="underscore" unicode="_" horiz-adv-x="1062" 
d="M0 -186h1186v-52h-1186v52z" />
    <glyph glyph-name="grave" unicode="`" horiz-adv-x="716" 
d="M174 1524q0 22 12.5 34.5t25.5 12.5t28 -6l282 -113q20 -8 21 -25q0 -25 -25 -24q-4 0 -12 2l-301 86q-31 11 -31 33z" />
    <glyph glyph-name="a" unicode="a" horiz-adv-x="1462" 
d="M712 35q232 0 396 164q23 27 49.5 0t-0.5 -49q-188 -184 -447 -184t-443.5 184t-184.5 444t184.5 443.5t444.5 183.5q180 0 330.5 -93.5t228.5 -246.5v286q0 14 10 24.5t24.5 10.5t24.5 -10t10 -25v-1149q0 -14 -10 -24t-24.5 -10t-24.5 10t-10 24v576q0 231 -164 394
t-395.5 163t-394 -164t-162.5 -394t163 -394t395 -164z" />
    <glyph glyph-name="b" unicode="b" horiz-adv-x="1462" 
d="M751 1151q-232 0 -397 -164q-23 -27 -49 0t0 49q187 184 447 184t444 -184t184 -444t-184 -443.5t-444 -183.5q-180 0 -331 93.5t-228 246.5v-287q0 -14 -10.5 -24t-25 -10t-24.5 10t-10 24v1500q0 14 10 24t24.5 10t25 -10t10.5 -24v-926q0 -231 163.5 -394t395 -163
t394.5 162.5t163 394t-163 395.5t-395 164z" />
    <glyph glyph-name="c" unicode="c" horiz-adv-x="1224" 
d="M707 -35q-254 0 -439.5 184.5t-185.5 444.5t184.5 443.5t440.5 183.5t438 -170q10 -9 10 -25t-10 -26.5t-24.5 -10.5t-22.5 8q-164 154 -390 154t-390 -164t-164 -393t165 -394t389 -165t390 155q8 8 22.5 8.5t24.5 -10t10 -25.5t-10 -26q-184 -172 -438 -172z" />
    <glyph glyph-name="d" unicode="d" horiz-adv-x="1462" 
d="M712 35q232 0 396 164q23 27 49.5 0t-0.5 -49q-188 -184 -447 -184t-443.5 184t-184.5 444t184.5 443.5t444.5 183.5q180 0 330.5 -93.5t228.5 -246.5v637q0 14 10 24t24.5 10t24.5 -10t10 -24v-1500q0 -14 -10 -24t-24.5 -10t-24.5 10t-10 24v576q0 231 -164 394
t-395.5 163t-394 -164t-162.5 -394t163 -394t395 -164z" />
    <glyph glyph-name="e" unicode="e" horiz-adv-x="1417" 
d="M256 594q0 14 10 24.5t25 10.5h975q-14 219 -175 370.5t-386 151.5t-388 -163t-163 -394.5t162.5 -395t392.5 -163.5q145 0 269 70.5t200 189.5q10 25 29 25t29.5 -10.5t10.5 -22.5t-10 -27q-86 -135 -225.5 -215t-302.5 -80q-260 0 -443.5 184.5t-183.5 444.5
t183.5 443.5t439.5 183.5t438 -177.5t192 -429.5q0 -25 -14 -40t-35 -15h-995q-14 0 -24.5 10.5t-10.5 24.5z" />
    <glyph glyph-name="f" unicode="f" horiz-adv-x="659" 
d="M215 1014q14 0 24.5 -10.5t10.5 -24.5v-961q0 -14 -10.5 -24t-24.5 -10t-24.5 10t-10.5 24v961q0 14 10.5 24.5t24.5 10.5zM25 1151q0 14 10 24.5t24 10.5h121v125q0 106 76 183t182 77t185 -74q12 -9 12 -25t-10.5 -26t-25.5 -10t-26 10q-55 55 -133 55t-134 -55
t-56 -135v-125h297q14 0 24.5 -10.5t10.5 -24.5t-10.5 -24.5t-24.5 -10.5h-488q-14 0 -24 10.5t-10 24.5z" />
    <glyph glyph-name="g" unicode="g" horiz-adv-x="1462" 
d="M706 35q226 0 392 153q8 8 24.5 8.5t24.5 -8t8 -25t-8 -24.5q-188 -174 -442 -174t-438.5 184.5t-184.5 444.5t184.5 443.5t444.5 183.5q180 0 330.5 -93.5t228.5 -246.5v286q0 14 10 24.5t24.5 10.5t24.5 -10t10 -25v-923q0 -260 -184 -444.5t-444 -184.5
q-223 0 -465 119q-18 8 -18 26t9 28.5t22 10.5t20 -4q205 -111 434 -111t393 164t164 396v350q0 231 -164 394t-395.5 163t-394 -164t-162.5 -394t163 -394t389 -164z" />
    <glyph glyph-name="h" unicode="h" horiz-adv-x="1257" 
d="M123 18v1500q0 14 10 24t24.5 10t25 -10t10.5 -24v-1500q0 -14 -10.5 -24t-25 -10t-24.5 10t-10 24zM650 1221q198 0 341.5 -142.5t143.5 -345.5v-715q0 -14 -10.5 -24t-25 -10t-24.5 10t-10 24v715q0 174 -122 296t-292 122t-299 -107q-27 -23 -49.5 4t4.5 50
q145 123 343 123z" />
    <glyph glyph-name="i" unicode="i" 
d="M109 1521.5q0 20.5 14 35t34.5 14.5t35 -14.5t14.5 -35t-14.5 -34.5t-35 -14t-34.5 14t-14 34.5zM123 18v1149q0 14 10 24.5t24.5 10.5t25 -10t10.5 -25v-1149q0 -14 -10.5 -24t-25 -10t-24.5 10t-10 24z" />
    <glyph glyph-name="j" unicode="j" horiz-adv-x="491" 
d="M285 1519.5q0 20.5 14 35t34.5 14.5t35 -14.5t14.5 -35t-14.5 -35t-35 -14.5t-34.5 14.5t-14 35zM-82 -288.5q0 14.5 10.5 24.5t24.5 10t24 -10q51 -51 131 -51t135.5 56t55.5 134v1292q0 14 10 24.5t24.5 10.5t25 -10t10.5 -25v-1292q0 -109 -76 -184.5t-184.5 -75.5
t-180.5 72q-10 10 -10 24.5z" />
    <glyph glyph-name="k" unicode="k" horiz-adv-x="1085" 
d="M123 18v1500q0 14 10 24t24.5 10t25 -10t10.5 -24v-1500q0 -14 -10.5 -24t-25 -10t-24.5 10t-10 24zM289 593.5q0 24.5 18 41.5l684 561q13 8 25 8t22.5 -10t10.5 -26t-19 -29l-659 -545l659 -545q18 -13 18 -29t-10 -26t-22 -10t-25 8l-684 561q-18 16 -18 40.5z" />
    <glyph glyph-name="l" unicode="l" 
d="M123 18v1500q0 14 10 24t24.5 10t25 -10t10.5 -24v-1500q0 -14 -10.5 -24t-25 -10t-24.5 10t-10 24z" />
    <glyph glyph-name="m" unicode="m" horiz-adv-x="1779" 
d="M193 18q0 -14 -10.5 -24t-25 -10t-24.5 10t-10 24v1149q0 14 10 24.5t24.5 10.5t25 -10t10.5 -25v-1149zM561 1221q146 0 262.5 -113t116.5 -270v-820q0 -14 -10 -24t-24.5 -10t-25 10t-10.5 24v820q0 129 -96 221t-214 92t-210 -66q-29 -23 -49 7q-19 31 8 49
q106 80 252 80zM1263.5 1221q159.5 0 276.5 -113t117 -270v-820q0 -14 -10.5 -24t-24.5 -10t-24.5 10t-10.5 24v820q0 129 -96 221t-227 92t-232 -96q-23 -27 -49.5 -4.5t-3.5 49.5q125 121 284.5 121z" />
    <glyph glyph-name="n" unicode="n" horiz-adv-x="1257" 
d="M193 1167v-1149q0 -14 -10.5 -24t-25 -10t-24.5 10t-10 24v1149q0 14 10 24.5t24.5 10.5t25 -10.5t10.5 -24.5zM651 1221q197 0 340.5 -143.5t143.5 -344.5v-715q0 -14 -10.5 -24t-25 -10t-24.5 10t-10 24v715q0 174 -123 296t-292 122t-300 -111q-30 -18 -48 8t7 50
q145 123 342 123z" />
    <glyph glyph-name="o" unicode="o" horiz-adv-x="1423" 
d="M1341 594q0 -260 -184 -444.5t-445 -184.5t-445.5 184.5t-184.5 444.5t184.5 443.5t445.5 183.5t445 -183.5t184 -443.5zM1270 593.5q0 231.5 -164 394.5t-395.5 163t-394 -164t-162.5 -394t162.5 -394t394 -164t395.5 163.5t164 395z" />
    <glyph glyph-name="p" unicode="p" horiz-adv-x="1462" 
d="M751 1151q-232 0 -397 -164q-23 -27 -49 0t0 49q187 184 447 184t444 -184t184 -444t-184 -443.5t-444 -183.5q-180 0 -331 93.5t-228 246.5v-637q0 -14 -10.5 -24.5t-25 -10.5t-24.5 10.5t-10 24.5v1499q0 14 10 24.5t24.5 10.5t25 -10t10.5 -25v-575q0 -231 163.5 -394
t395 -163t394.5 162.5t163 394t-163 395.5t-395 164z" />
    <glyph glyph-name="q" unicode="q" horiz-adv-x="1462" 
d="M712 35q232 0 396 164q23 27 49.5 0t-0.5 -49q-188 -184 -447 -184t-443.5 184t-184.5 444t184.5 443.5t444.5 183.5q180 0 330.5 -93.5t228.5 -246.5v286q0 14 10 24.5t24.5 10.5t24.5 -10t10 -25v-1499q0 -14 -10 -24.5t-24.5 -10.5t-24.5 10.5t-10 24.5v926
q0 231 -164 394t-395.5 163t-394 -164t-162.5 -394t163 -394t395 -164z" />
    <glyph glyph-name="r" unicode="r" horiz-adv-x="776" 
d="M193 438v-420q0 -14 -10.5 -24t-25 -10t-24.5 10t-10 24v420q0 14 10 24.5t24.5 10.5t25 -10.5t10.5 -24.5zM157.5 575q-14.5 0 -24.5 10.5t-10 24.5v557q0 14 10 24.5t24.5 10.5t25 -10t10.5 -25v-286q63 156 188 248t289 92q66 0 77 -16.5t9 -30.5q-6 -31 -40 -27
t-46 4q-209 0 -341 -155.5t-136 -385.5q0 -14 -10.5 -24.5t-25 -10.5z" />
    <glyph glyph-name="s" unicode="s" horiz-adv-x="1089" 
d="M559 1151q-176 0 -270 -60.5t-94 -159.5t45 -152.5t116.5 -75t157.5 -33t173 -27.5t159 -48t117 -104.5t45 -187.5q0 -158 -126 -248t-358 -90t-424 107q-12 6 -16 20t2 26.5t20.5 16.5t26.5 -2q178 -98 383 -98t312.5 70.5t107.5 201.5q0 96 -45 156.5t-117 85t-158 37
t-173 27t-158.5 43t-116.5 95t-45 171.5q0 141 114.5 220t317.5 79t383 -91q12 -6 16 -20t-2 -26.5t-20.5 -16.5t-26.5 2q-170 82 -346 82z" />
    <glyph glyph-name="t" unicode="t" horiz-adv-x="606" 
d="M25 1151q0 14 10 24.5t24 10.5h121v250q0 14 10.5 24t24.5 10t24.5 -10t10.5 -24v-250h297q14 0 24.5 -10.5t10.5 -24.5t-10.5 -24.5t-24.5 -10.5h-488q-14 0 -24 10.5t-10 24.5zM250 979v-700q0 -88 60.5 -148.5t148.5 -60.5h88q14 0 24.5 -10.5t10.5 -25t-10.5 -24.5
t-24.5 -10h-88q-115 0 -197 81t-82 195v703q0 14 10.5 24.5t24.5 10.5t24.5 -10.5t10.5 -24.5z" />
    <glyph glyph-name="u" unicode="u" horiz-adv-x="1257" 
d="M1065 18v1149q0 14 10 24.5t24.5 10.5t25 -10t10.5 -25v-1149q0 -14 -10.5 -24t-25 -10t-24.5 10t-10 24zM606 -35q-197 0 -340 142.5t-143 345.5v714q0 14 10 24.5t24.5 10.5t25 -10t10.5 -25v-714q0 -174 122.5 -296t291.5 -122t300 110q31 18 49 -8t-8 -49
q-145 -123 -342 -123z" />
    <glyph glyph-name="v" unicode="v" horiz-adv-x="1159" 
d="M25 1169q0 12 9.5 22.5t29.5 10.5t28 -22l488 -1092l487 1092q7 22 27 22q40 -1 41 -35q0 -10 -5 -18l-501 -1129q-12 -37 -49.5 -37t-49.5 37l-501 1129q-4 8 -4 20z" />
    <glyph glyph-name="w" unicode="w" horiz-adv-x="1695" 
d="M1636 1202q14 0 24.5 -10t10.5 -22t-2 -19l-373 -1131q-10 -37 -49 -36.5t-49 36.5l-350 1061l-350 -1061q-10 -37 -49 -36.5t-50 36.5l-372 1131q-2 6 -2 18t10 22.5t24 10.5q27 0 35 -31l355 -1075l350 1063q16 43 49 43t49 -43l350 -1063l355 1075q8 31 34 31z" />
    <glyph glyph-name="x" unicode="x" horiz-adv-x="1032" 
d="M971 -16q-16 0 -29 16l-344 434q-20 29 -5 44t30.5 15.5t23.5 -10.5l352 -444q18 -27 3 -41t-31 -14zM61 1202q16 0 29 -16l344 -434q20 -28 5 -44t-30.5 -16t-23.5 10l-352 445q-8 12 -8 23t10 21.5t26 10.5zM61 -16q-16 0 -26 10t-10 22t8 23l909 1147q12 16 28 16
t27 -10t11 -22t-9 -23l-909 -1147q-13 -16 -29 -16z" />
    <glyph glyph-name="y" unicode="y" horiz-adv-x="1159" 
d="M25 1169q0 12 9.5 22.5t29.5 10.5t28 -22l428 -959q14 -31 -18.5 -47t-46.5 19l-426 956q-4 8 -4 20zM397 -334q0 12 4 21l666 1493q7 22 27 22q40 -1 41 -35q0 -10 -5 -18l-665 -1493q-7 -23 -27 -23t-30.5 10.5t-10.5 22.5z" />
    <glyph glyph-name="z" unicode="z" horiz-adv-x="1026" 
d="M985 34.5q0 -14.5 -10 -24.5t-25 -10h-860q-20 0 -34.5 14.5t-14.5 35t14 34.5l838 1032h-817q-14 0 -24.5 10.5t-10.5 24.5t10 24.5t25 10.5h860q20 0 34.5 -14.5t14.5 -35t-14 -34.5l-838 -1032h817q14 0 24.5 -10.5t10.5 -25z" />
    <glyph glyph-name="braceleft" unicode="{" horiz-adv-x="663" 
d="M618 1501.5q0 -14.5 -10 -25t-24 -10.5q-72 0 -122 -51t-50 -125v-487q0 -66 -33 -122t-88 -87q55 -33 88 -88t33 -121v-487q0 -76 50 -127.5t122 -51.5q14 0 24 -10t10 -24.5t-10 -24.5t-24 -10q-100 0 -172 72.5t-72 175.5v487q0 70 -51 122t-123 52q-14 0 -24.5 10.5
t-10.5 24.5t10.5 24.5t24.5 10.5q72 0 123 51t51 123v487q0 100 71.5 173t172.5 73q14 0 24 -10t10 -24.5z" />
    <glyph glyph-name="bar" unicode="|" horiz-adv-x="561" 
d="M246 -332v1850q0 14 10 24t24.5 10t24.5 -10t10 -24v-1850q0 -14 -10 -24.5t-24.5 -10.5t-24.5 10.5t-10 24.5z" />
    <glyph glyph-name="braceright" unicode="}" horiz-adv-x="663" 
d="M45 -315.5q0 14.5 10.5 24.5t24.5 10q72 0 122 51.5t50 125.5v487q0 66 32.5 122t88.5 87q-55 33 -88 88t-33 121v487q0 76 -50 127t-122 51q-14 0 -24.5 10.5t-10.5 25t10.5 24.5t24.5 10q100 0 172 -72.5t72 -175.5v-487q0 -72 51 -123t123 -51q14 0 24 -10.5t10 -24.5
t-10 -24.5t-24 -10.5q-72 0 -123 -51t-51 -123v-487q0 -100 -72 -173t-172 -73q-14 0 -24.5 10t-10.5 24.5z" />
    <glyph glyph-name="asciitilde" unicode="~" horiz-adv-x="911" 
d="M598 537q43 0 76 26.5t42 64.5t42 34q33 -8 28 -41q-14 -68 -66 -111t-122 -43q-119 0 -172 108q-35 74 -113 74q-43 0 -75.5 -26.5t-41.5 -64.5t-42 -34q-33 8 -29 41q14 68 66.5 111t121.5 43q119 0 172 -109q35 -73 113 -73z" />
    <glyph glyph-name="uni00A0" unicode="&#xa0;" horiz-adv-x="1024" 
 />
    <glyph glyph-name="exclamdown" unicode="&#xa1;" 
d="M100 1497.5q0 22.5 16.5 38.5t40.5 16t41 -16t17 -38.5t-17.5 -39t-41.5 -16.5t-40 16.5t-16 39zM157.5 -16q-14.5 0 -24.5 10t-10 24l10 1168q0 25 24.5 24.5t24.5 -24.5l11 -1168q0 -14 -10.5 -24t-25 -10z" />
    <glyph glyph-name="cent" unicode="&#xa2;" horiz-adv-x="1224" 
d="M641 1188v155q0 14 10.5 24.5t24.5 10.5t24.5 -10t10.5 -25v-122h2q250 0 432 -170q10 -9 10 -25t-10 -26.5t-24.5 -10.5t-22.5 8q-166 156 -385 156h-37q-14 0 -24.5 10.5t-10.5 24.5zM641 -156v156q0 14 10.5 24.5t24.5 10.5h37q219 0 385 155q8 8 22.5 8.5t24.5 -10
t10 -25.5t-10 -26q-182 -170 -432 -170h-2v-123q0 -14 -10.5 -24t-24.5 -10t-24.5 10t-10.5 24zM82 594q0 199 114.5 359.5t297.5 228.5q31 12 43 -21t-23 -45q-162 -61 -261 -204.5t-99 -317.5t99 -317.5t261 -204.5q35 -12 23 -45t-43 -21q-182 68 -297 228.5t-115 359.5z
" />
    <glyph glyph-name="sterling" unicode="&#xa3;" horiz-adv-x="1136" 
d="M593 1501q-165 0 -282.5 -117.5t-117.5 -283.5v-160q0 -14 -10.5 -24.5t-25 -10.5t-24.5 10.5t-10 24.5v160q0 195 138 333t332.5 138t333 -138.5t138.5 -332.5q0 -14 -10.5 -24.5t-24.5 -10.5t-24.5 10.5t-10.5 24.5q-2 168 -119.5 284.5t-282.5 116.5zM123 754
q0 20 14.5 34.5t34.5 14.5h715q14 0 24.5 -10.5t10.5 -24.5t-10.5 -24.5t-24.5 -10.5h-694v-663h837q14 0 24.5 -10.5t10.5 -25t-10.5 -24.5t-24.5 -10h-858q-20 0 -34.5 14.5t-14.5 34.5v705z" />
    <glyph glyph-name="currency" unicode="&#xa4;" horiz-adv-x="1456" 
d="M1286 593.5q0 231.5 -164 394.5t-395 163t-394 -164t-163 -394t163 -394t394 -164t395 163.5t164 395zM726 1221q239 0 421 -160l133 133q28 23 52 -2t-3 -47l-133 -133q162 -178 162 -418t-162 -422l133 -131q23 -27 -2 -51t-47 2l-133 133q-180 -160 -421 -160
t-417 160l-133 -133q-28 -23 -52 2t3 47l131 131q-160 180 -160 422t160 418l-131 133q-23 27 1 51t48 -2l131 -133q180 160 419 160z" />
    <glyph glyph-name="yen" unicode="&#xa5;" horiz-adv-x="1273" 
d="M465 647h-268q-14 0 -24.5 10.5t-10.5 24.5t10 24.5t25 10.5h268q14 0 24.5 -10.5t10.5 -24.5t-10.5 -24.5t-24.5 -10.5zM1077 647h-268q-14 0 -24.5 10.5t-10.5 24.5t10.5 24.5t24.5 10.5h268q14 0 24.5 -10.5t10.5 -24.5t-10.5 -24.5t-24.5 -10.5zM530 852h-333
q-14 0 -24.5 10t-10.5 24.5t10 25t25 10.5h264l-424 575q-6 11 -6 23t9.5 22t27.5 10t28 -18l463 -627q6 -10 6 -22t-10.5 -22.5t-24.5 -10.5zM1077 852h-319l-86 -117v-717q0 -14 -10.5 -24t-24.5 -10t-24.5 10t-10.5 24v723q0 18 12 35l564 758q10 18 27 18t27.5 -10
t10.5 -22t-6 -23l-428 -575h268q14 0 24.5 -10.5t10.5 -25t-10.5 -24.5t-24.5 -10z" />
    <glyph glyph-name="brokenbar" unicode="&#xa6;" 
d="M123 -84v555q0 14 10 24.5t24.5 10.5t25 -10.5t10.5 -24.5v-555q0 -14 -10.5 -24.5t-25 -10.5t-24.5 10.5t-10 24.5zM123 717v557q0 14 10 24.5t24.5 10.5t25 -10.5t10.5 -24.5v-557q0 -14 -10.5 -24.5t-25 -10.5t-24.5 10.5t-10 24.5z" />
    <glyph glyph-name="section" unicode="&#xa7;" horiz-adv-x="1007" 
d="M776.5 348q-14.5 0 -25 10.5t-10.5 24.5t11 25q82 76 82 192t-92 194t-252 78t-274 98.5t-114 250t116 251t278 99.5t278.5 -91t128.5 -223q0 -14 -10 -25t-25 -11q-31 0 -34 30q-12 106 -107.5 178t-228.5 72t-228.5 -79t-95.5 -201.5t92 -200.5t252 -78t273.5 -98
t113.5 -240t-104 -246q-10 -10 -24.5 -10zM266 805q0 -14 -10 -25q-82 -76 -82 -192t92 -194.5t252 -78.5t273.5 -98t113.5 -249.5t-115.5 -251t-277.5 -99.5t-278.5 91t-129.5 222q0 14 10.5 25.5t24.5 11.5q31 0 35 -30q12 -106 107.5 -178t228.5 -72t228.5 78.5
t95.5 201.5t-92 201t-252 78t-274 98t-114 240t105 245q10 10 24.5 10.5t24.5 -10t10 -24.5z" />
    <glyph glyph-name="dieresis" unicode="&#xa8;" horiz-adv-x="563" 
d="M532 1521.5q0 -20.5 -13 -34.5t-33.5 -14t-35 14t-14.5 34.5t14.5 35t35 14.5t33.5 -14.5t13 -35zM129 1521.5q0 -20.5 -14.5 -34.5t-35 -14t-34.5 14t-14 34.5t14 35t34.5 14.5t35 -14.5t14.5 -35z" />
    <glyph glyph-name="copyright" unicode="&#xa9;" horiz-adv-x="1419" 
d="M710 264q136 0 236 94q27 23 49.5 0.5t-0.5 -49.5q-121 -119 -284 -114q-166 -2 -284 115.5t-118 284.5t118 284.5t284 115.5q163 3 284 -118q25 -25 0 -50q-25 -20 -49 0q-98 99 -236 99t-234.5 -97.5t-96.5 -234.5t97.5 -233.5t233.5 -96.5zM1337 593
q0 -261 -183 -444.5t-444 -183.5t-444.5 184.5t-183.5 444.5t183.5 443.5t443.5 183.5t444 -183.5t184 -444.5zM1278 593q0 237 -166 402.5t-401 165.5t-402.5 -166t-167.5 -401.5t167 -402t403 -166.5t401.5 165.5t165.5 402.5z" />
    <glyph glyph-name="ordfeminine" unicode="&#xaa;" horiz-adv-x="813" 
d="M398 977q116 0 198 82q10 14 24 1t1 -26q-95 -92 -225 -92t-222 92t-92 222t92 222.5t223 92.5q90 0 165 -47t114 -123v143q0 16 17 16t18 -16v-575q1 -17 -17 -17t-18 17v288q0 115 -82 197t-196.5 82t-196.5 -82t-82 -198t81.5 -197.5t197.5 -81.5z" />
    <glyph glyph-name="guillemotleft" unicode="&#xab;" horiz-adv-x="722" 
d="M297 559q-33 33 0 70l301 301q23 23 49 0q23 -27 0 -49l-287 -287l285 -287q27 -23 2 -47t-51 -2zM80 559q-33 33 0 70l301 301q23 23 49 0q23 -27 0 -49l-287 -287l285 -287q27 -23 2 -47t-51 -2z" />
    <glyph glyph-name="logicalnot" unicode="&#xac;" horiz-adv-x="909" 
d="M786 580v-144q0 -14 -10 -24.5t-24.5 -10.5t-24.5 10.5t-10 24.5v123h-576q-14 0 -24.5 10.5t-10.5 24.5t10.5 24.5t24.5 10.5h596q20 0 34.5 -14.5t14.5 -34.5z" />
    <glyph glyph-name="registered" unicode="&#xae;" horiz-adv-x="653" 
d="M428 1387q0 31 -20.5 52t-51.5 21h-112v-145h112q31 0 51.5 20.5t20.5 51.5zM459 1389q0 -72 -68 -97l62 -121l-31 -2l-60 119h-118v-117h-29v316h141q43 0 73 -28.5t30 -69.5zM543 1327q0 90 -62.5 152.5t-152.5 62.5t-153.5 -62.5t-63.5 -152.5t63.5 -153.5
t153.5 -63.5t152.5 63.5t62.5 153.5zM571 1327q0 -100 -71.5 -173t-172.5 -73t-173 72t-72 173t72.5 173t173 72t172 -72t71.5 -172z" />
    <glyph glyph-name="macron" unicode="&#xaf;" horiz-adv-x="628" 
d="M106 1501.5q0 14.5 10.5 24.5t24.5 10h346q14 0 24.5 -10t10.5 -24.5t-10 -25t-25 -10.5h-346q-14 0 -24.5 10.5t-10.5 25z" />
    <glyph glyph-name="degree" unicode="&#xb0;" horiz-adv-x="622" 
d="M520 1362q0 -86 -61.5 -147.5t-147.5 -61.5t-147.5 61.5t-61.5 147.5t61.5 147.5t147.5 61.5t147.5 -61.5t61.5 -147.5zM451 1361q0 58 -41 99t-98.5 41t-98.5 -41t-41 -98t41 -98t98.5 -41t98.5 40t41 98z" />
    <glyph glyph-name="plusminus" unicode="&#xb1;" horiz-adv-x="1390" 
d="M86 34.5q0 14.5 10 25t25 10.5h1149q14 0 24.5 -10.5t10.5 -25t-10.5 -24.5t-24.5 -10h-1149q-14 0 -24.5 10t-10.5 24.5zM662 369v364h-541q-14 0 -24.5 10.5t-10.5 24.5t10 24.5t25 10.5h541v364q0 14 10 24.5t24.5 10.5t24.5 -10t10 -25v-364h539q14 0 24.5 -10.5
t10.5 -24.5t-10.5 -24.5t-24.5 -10.5h-539v-364q0 -14 -10 -24.5t-24.5 -10.5t-24.5 10.5t-10 24.5z" />
    <glyph glyph-name="twosuperior" unicode="&#xb2;" horiz-adv-x="688" 
d="M115 793q0 10 12 20l362 305q80 66 80 167t-65.5 168t-159.5 67t-160.5 -67t-66.5 -163v-12q1 -18 -17 -18t-18 18v12q0 109 77 185.5t185.5 76.5t185 -76.5t76.5 -191.5t-94 -194l-344 -287h395q18 0 19 -19q0 -16 -19 -16h-424q-24 0 -24 25z" />
    <glyph glyph-name="threesuperior" unicode="&#xb3;" horiz-adv-x="686" 
d="M117 1519q0 17 16 17h389q25 0 25 -25q0 -12 -12 -20l-345 -311q-2 -6 -12 -6q-18 0 -18 18q0 8 6 12l328 297h-361q-16 1 -16 18zM604 1008q0 -104 -77 -180t-183 -76t-182 71.5t-80 175.5q0 17 17 17t18 -17q4 -90 69.5 -152.5t157.5 -62.5t158.5 67t66.5 158
t-57 154.5t-141 73.5q-17 4 -17 20q4 18 21 15q98 -12 163.5 -86t65.5 -178z" />
    <glyph glyph-name="acute" unicode="&#xb4;" horiz-adv-x="716" 
d="M543 1524q0 -22 -31 -33l-301 -86q-8 -2 -12 -2q-25 0 -25 24q0 16 21 25l282 113q17 6 29 6t24.5 -12.5t12.5 -34.5z" />
    <glyph glyph-name="mu" unicode="&#xb5;" horiz-adv-x="1257" 
d="M1065 18v1149q0 14 10 24.5t24.5 10.5t25 -10t10.5 -25v-1149q0 -14 -10.5 -24t-25 -10t-24.5 10t-10 24zM123 -332v1499q0 14 10 24.5t24.5 10.5t25 -10t10.5 -25v-733q0 -166 124.5 -282.5t291.5 -116.5t298 110q31 18 49 -8q16 -27 -8 -49q-145 -123 -336 -123
q-133 0 -244.5 63.5t-174.5 172.5v-533q0 -14 -10.5 -24.5t-25 -10.5t-24.5 10.5t-10 24.5z" />
    <glyph glyph-name="paragraph" unicode="&#xb6;" horiz-adv-x="1150" 
d="M123 1152q0 -130 91 -222t220 -92h37q14 0 24.5 -10.5t10.5 -25t-10.5 -24.5t-24.5 -10h-37q-158 0 -270.5 112.5t-112.5 271.5t112.5 271.5t270.5 112.5h37q14 0 24.5 -10t10.5 -24.5t-10.5 -25t-24.5 -10.5h-37q-129 0 -220 -92t-91 -222zM608 1487q0 20 14.5 34.5
t34.5 14.5h322q20 0 34.5 -14.5t14.5 -34.5v-1469q0 -14 -10 -24t-24.5 -10t-25 10t-10.5 24v1448h-280v-1448q0 -14 -10.5 -24t-24.5 -10t-24.5 10t-10.5 24v1469z" />
    <glyph glyph-name="periodcentered" unicode="&#xb7;" horiz-adv-x="370" 
d="M135.5 528q-26.5 0 -45 19.5t-18.5 45.5t18.5 44t45 18t44 -18.5t17.5 -44.5t-17.5 -45t-44 -19z" />
    <glyph glyph-name="cedilla" unicode="&#xb8;" horiz-adv-x="735" 
d="M242 -162q0 6 26 162h43l-20 -117q33 23 89 23t103 -48t47 -115t-48 -114t-114 -47t-114.5 47t-48.5 113q0 23 22 22q20 0 21 -22q0 -49 35.5 -84t85 -35t83 35t33.5 85t-33.5 85t-83.5 35t-85 -39q-6 -8 -19 -8q-22 -1 -22 22z" />
    <glyph glyph-name="onesuperior" unicode="&#xb9;" horiz-adv-x="399" 
d="M102 1460q0 10 11 15l127 75q4 2 12 2q25 0 24 -24v-742q0 -18 -17 -18t-17 18v723l-115 -65l-2 -2h-4q-19 0 -19 18z" />
    <glyph glyph-name="ordmasculine" unicode="&#xba;" horiz-adv-x="792" 
d="M711 1256q0 -130 -92.5 -222t-222.5 -92t-222 92t-92 222t92 222.5t222 92.5t222.5 -92.5t92.5 -222.5zM676 1256q0 116 -82 198t-198 82t-197.5 -82t-81.5 -198t81.5 -197.5t197.5 -81.5t198 81.5t82 197.5z" />
    <glyph glyph-name="guillemotright" unicode="&#xbb;" horiz-adv-x="722" 
d="M426 559l-299 -301q-27 -23 -51 2t2 47l284 287l-286 287q-23 23 0 49q27 23 49 0l301 -301q33 -37 0 -70zM643 559l-299 -301q-28 -23 -52 2t3 47l285 287l-287 287q-23 23 0 49q27 23 49 0l301 -301q33 -37 0 -70z" />
    <glyph glyph-name="onequarter" unicode="&#xbc;" horiz-adv-x="1263" 
d="M1078 270q-17 0 -17 19v424l-352 -494h495q18 0 19 -16q0 -18 -19 -19h-108v-182q0 -18 -18 -18t-17 18v182h-373q-8 0 -16 8.5t-8 16.5t6 18l381 531q6 10 20 10q25 0 25 -25v-454q-1 -19 -18 -19zM102 1460q0 10 11 15l127 75q4 2 12 2q25 0 24 -24v-742q0 -18 -17 -18
t-17 18v723l-115 -65l-2 -2h-4q-19 0 -19 18zM915 1536q0 -6 -2 -10l-626 -1530q-5 -12 -19 -12t-14 16q0 6 2 10l627 1530q4 12 18 12t14 -16z" />
    <glyph glyph-name="onehalf" unicode="&#xbd;" horiz-adv-x="1388" 
d="M815 25q0 12 12 20l363 305q80 68 80 168t-65.5 167t-160 67t-161 -67t-66.5 -163v-12q0 -18 -17 -18t-18 18v12q0 109 77 185.5t185.5 76.5t185.5 -76.5t77 -191.5t-95 -194l-344 -287h396q18 1 18 -17t-18 -18h-424q-25 0 -25 25zM102 1460q0 10 11 15l127 75q4 2 12 2
q25 0 24 -24v-742q0 -18 -17 -18t-17 18v723l-115 -65l-2 -2h-4q-19 0 -19 18zM915 1536q0 -6 -2 -10l-626 -1530q-5 -12 -19 -12t-14 16q0 6 2 10l627 1530q4 12 18 12t14 -16z" />
    <glyph glyph-name="threequarters" unicode="&#xbe;" horiz-adv-x="1464" 
d="M1296 289q0 -19 -17 -19t-17 19v424l-353 -494h496q18 0 18 -17t-18 -18h-109v-182q0 -18 -17 -18t-17 18v182h-373q-8 0 -16.5 8.5t-8.5 16.5t6 18l381 531q6 10 21 10q25 0 24 -25v-454zM117 1519q0 17 16 17h389q25 0 25 -25q0 -12 -12 -20l-345 -311q-2 -6 -12 -6
q-18 0 -18 18q0 8 6 12l328 297h-361q-16 1 -16 18zM604 1008q0 -104 -77 -180t-183 -76t-182 71.5t-80 175.5q0 17 17 17t18 -17q4 -90 69.5 -152.5t157.5 -62.5t158.5 67t66.5 158t-57 154.5t-141 73.5q-17 4 -17 20q4 18 21 15q98 -12 163.5 -86t65.5 -178zM1116 1536
q0 -6 -2 -10l-627 -1530q-4 -12 -18 -12t-14 16q0 6 2 10l626 1530q5 12 19 12t14 -16z" />
    <glyph glyph-name="questiondown" unicode="&#xbf;" horiz-adv-x="1212" 
d="M553 1498q0 24 16.5 39t39 15t39 -15t16.5 -39t-16.5 -40t-39 -16t-39 16t-16.5 40zM154 484q0 -186 133 -317.5t317 -131.5t315.5 124t141.5 302q0 14 10 24.5t24.5 10.5t24.5 -10.5t10 -24.5q-10 -207 -160.5 -351.5t-364.5 -144.5t-368.5 152.5t-154.5 364.5
t142.5 362.5t348.5 165.5v182q0 14 10.5 24.5t25 10.5t24.5 -10.5t10 -24.5v-201q0 -20 -14.5 -34.5t-34.5 -14.5q-184 -6 -312 -139t-128 -319z" />
    <glyph glyph-name="Agrave" unicode="&#xc0;" horiz-adv-x="1396" 
d="M424 453h725q33 0 47 -35l160 -383q8 -18 -3.5 -34.5t-30.5 -16.5t-32 22l-155 377h-711q-14 0 -24.5 10t-10.5 24.5t10.5 25t24.5 10.5zM1086 555q-20 0 -31 23l-357 858l-592 -1430q-12 -22 -31 -22t-30.5 16t-3.5 35l614 1485q10 33 43 32.5t43 -32.5l379 -914
q8 -18 -3 -34.5t-31 -16.5zM518 1728q0 24 12.5 36t25.5 12t28 -7l282 -112q20 -8 21 -25q0 -25 -25 -24q-4 0 -12 2l-301 86q-31 8 -31 32z" />
    <glyph glyph-name="Aacute" unicode="&#xc1;" horiz-adv-x="1396" 
d="M424 453h725q33 0 47 -35l160 -383q8 -18 -3.5 -34.5t-30.5 -16.5t-32 22l-155 377h-711q-14 0 -24.5 10t-10.5 24.5t10.5 25t24.5 10.5zM1086 555q-20 0 -31 23l-357 858l-592 -1430q-12 -22 -31 -22t-30.5 16t-3.5 35l614 1485q10 33 43 32.5t43 -32.5l379 -914
q8 -18 -3 -34.5t-31 -16.5zM883 1728q0 -24 -31 -32l-301 -86q-8 -2 -12 -2q-25 0 -25 24q0 16 21 25l282 112q35 13 50.5 -2t15.5 -39z" />
    <glyph glyph-name="Acircumflex" unicode="&#xc2;" horiz-adv-x="1396" 
d="M424 453h725q33 0 47 -35l160 -383q8 -18 -3.5 -34.5t-30.5 -16.5t-32 22l-155 377h-711q-14 0 -24.5 10t-10.5 24.5t10.5 25t24.5 10.5zM1086 555q-20 0 -31 23l-357 858l-592 -1430q-12 -22 -31 -22t-30.5 16t-3.5 35l614 1485q10 33 43 32.5t43 -32.5l379 -914
q8 -18 -3 -34.5t-31 -16.5zM883 1638q0 -27 -27 -26q-12 0 -22 12l-132 156l-131 -156q-10 -12 -22 -12q-27 0 -27 26q0 6 10 21l144 176q8 12 26.5 12t26.5 -12l143 -176q11 -15 11 -21z" />
    <glyph glyph-name="Atilde" unicode="&#xc3;" horiz-adv-x="1396" 
d="M424 453h725q33 0 47 -35l160 -383q8 -18 -3.5 -34.5t-30.5 -16.5t-32 22l-155 377h-711q-14 0 -24.5 10t-10.5 24.5t10.5 25t24.5 10.5zM1086 555q-20 0 -31 23l-357 858l-592 -1430q-12 -22 -31 -22t-30.5 16t-3.5 35l614 1485q10 33 43 32.5t43 -32.5l379 -914
q8 -18 -3 -34.5t-31 -16.5zM930 1735q0 -55 -39 -94t-92 -39q-86 0 -121 73q-23 49 -64 49t-64.5 -23t-23.5 -51t-26.5 -28t-26.5 27q0 55 40 94t91 39q80 0 121 -74q27 -51 67 -51t62.5 21.5t22.5 52.5t26.5 31t26.5 -27z" />
    <glyph glyph-name="Adieresis" unicode="&#xc4;" horiz-adv-x="1396" 
d="M424 453h725q33 0 47 -35l160 -383q8 -18 -3.5 -34.5t-30.5 -16.5t-32 22l-155 377h-711q-14 0 -24.5 10t-10.5 24.5t10.5 25t24.5 10.5zM1086 555q-20 0 -31 23l-357 858l-592 -1430q-12 -22 -31 -22t-30.5 16t-3.5 35l614 1485q10 33 43 32.5t43 -32.5l379 -914
q8 -18 -3 -34.5t-31 -16.5zM952 1712.5q0 -20.5 -13 -35t-33.5 -14.5t-35 14.5t-14.5 35t14.5 34.5t35 14t33.5 -14t13 -34.5zM547 1712.5q0 -20.5 -14.5 -35t-35 -14.5t-34.5 14.5t-14 35t14 34.5t36 14t35 -14t13 -34.5z" />
    <glyph glyph-name="Aring" unicode="&#xc5;" horiz-adv-x="1396" 
d="M424 453h725q33 0 47 -35l160 -383q8 -18 -3.5 -34.5t-30.5 -16.5t-32 22l-155 377h-711q-14 0 -24.5 10t-10.5 24.5t10.5 25t24.5 10.5zM1086 555q-20 0 -31 23l-357 858l-592 -1430q-12 -22 -31 -22t-30.5 16t-3.5 35l614 1485q10 33 43 32.5t43 -32.5l379 -914
q8 -18 -3 -34.5t-31 -16.5zM848 1742q0 -62 -44 -107.5t-106 -45.5t-107.5 45.5t-45.5 107.5t45 106t107 44t106.5 -44t44.5 -106zM793 1743q0 39 -28 66.5t-67 27.5t-67.5 -27.5t-28.5 -66.5t28.5 -67.5t67.5 -28.5t67 28.5t28 67.5z" />
    <glyph glyph-name="AE" unicode="&#xc6;" horiz-adv-x="2361" 
d="M1196 1536h1059q14 0 24.5 -10t10.5 -24.5t-10.5 -25t-24.5 -10.5h-1047l-682 -897q-23 -27 -49.5 -4.5t-3.5 49.5l682 902q16 20 41 20zM31 16q0 12 12 31l291 385q18 23 41 23h659q14 0 24.5 -10.5t10.5 -24.5t-10 -24.5t-25 -10.5h-639l-297 -385q-10 -16 -27 -16
t-28.5 10t-11.5 22zM1171 754q0 20 14.5 34.5t35.5 14.5h893q14 0 24 -10.5t10 -24.5t-10 -24.5t-24 -10.5h-873v-663h1014q14 0 24.5 -10.5t10.5 -25t-10.5 -24.5t-24.5 -10h-1034q-20 0 -35 14.5t-15 34.5v705z" />
    <glyph glyph-name="Ccedilla" unicode="&#xc7;" horiz-adv-x="1511" 
d="M872 -35q-23 0 -63 4l-14 -86q33 23 88 23t103 -48t48 -115t-48 -114t-115 -47t-114.5 47t-47.5 113q0 23 22 22q20 0 21 -22q0 -49 35.5 -84t85 -35t83 35t33.5 85t-33.5 85t-83.5 35t-86 -39q-6 -8 -18 -8q-23 0 -23 22q0 8 21 135q-297 39 -496.5 265t-199.5 544
t236 553.5t564 235.5t566 -232q10 -10 10 -24.5t-10.5 -24.5t-24.5 -10t-25 10q-217 211 -517 211t-514 -215t-214 -518t214 -518t514 -215t517 211q10 10 24.5 10t25 -10t10.5 -24.5t-10 -24.5q-238 -232 -564 -232z" />
    <glyph glyph-name="Egrave" unicode="&#xc8;" horiz-adv-x="1312" 
d="M157.5 905q-14.5 0 -24.5 10.5t-10 24.5v547q0 20 14.5 34.5t34.5 14.5h1034q14 0 24.5 -10t10.5 -24.5t-10 -25t-25 -10.5h-1013v-526q0 -14 -10.5 -24.5t-25 -10.5zM123 754q0 20 14.5 34.5t34.5 14.5h893q14 0 24.5 -10.5t10.5 -24.5t-10.5 -24.5t-24.5 -10.5h-872
v-663h1013q14 0 24.5 -10.5t10.5 -25t-10 -24.5t-25 -10h-1034q-20 0 -34.5 14.5t-14.5 34.5v705zM504 1728q0 24 12 36t24 12t29 -7l283 -112q20 -8 20 -25q0 -25 -24 -24q-4 0 -12 2l-301 86q-31 8 -31 32z" />
    <glyph glyph-name="Eacute" unicode="&#xc9;" horiz-adv-x="1312" 
d="M157.5 905q-14.5 0 -24.5 10.5t-10 24.5v547q0 20 14.5 34.5t34.5 14.5h1034q14 0 24.5 -10t10.5 -24.5t-10 -25t-25 -10.5h-1013v-526q0 -14 -10.5 -24.5t-25 -10.5zM123 754q0 20 14.5 34.5t34.5 14.5h893q14 0 24.5 -10.5t10.5 -24.5t-10.5 -24.5t-24.5 -10.5h-872
v-663h1013q14 0 24.5 -10.5t10.5 -25t-10 -24.5t-25 -10h-1034q-20 0 -34.5 14.5t-14.5 34.5v705zM872 1728q0 -24 -30 -32l-301 -86q-8 -2 -13 -2q-25 0 -24 24q0 16 20 25l283 112q34 13 49.5 -2t15.5 -39z" />
    <glyph glyph-name="Ecircumflex" unicode="&#xca;" horiz-adv-x="1312" 
d="M157.5 905q-14.5 0 -24.5 10.5t-10 24.5v547q0 20 14.5 34.5t34.5 14.5h1034q14 0 24.5 -10t10.5 -24.5t-10 -25t-25 -10.5h-1013v-526q0 -14 -10.5 -24.5t-25 -10.5zM123 754q0 20 14.5 34.5t34.5 14.5h893q14 0 24.5 -10.5t10.5 -24.5t-10.5 -24.5t-24.5 -10.5h-872
v-663h1013q14 0 24.5 -10.5t10.5 -25t-10 -24.5t-25 -10h-1034q-20 0 -34.5 14.5t-14.5 34.5v705zM862 1638q0 -27 -26 -26q-14 0 -23 12l-131 156l-131 -156q-10 -12 -23 -12q-27 0 -26 26q0 6 10 21l143 176q8 12 26.5 12t27.5 -12l143 -176q10 -15 10 -21z" />
    <glyph glyph-name="Edieresis" unicode="&#xcb;" horiz-adv-x="1312" 
d="M157.5 905q-14.5 0 -24.5 10.5t-10 24.5v547q0 20 14.5 34.5t34.5 14.5h1034q14 0 24.5 -10t10.5 -24.5t-10 -25t-25 -10.5h-1013v-526q0 -14 -10.5 -24.5t-25 -10.5zM123 754q0 20 14.5 34.5t34.5 14.5h893q14 0 24.5 -10.5t10.5 -24.5t-10.5 -24.5t-24.5 -10.5h-872
v-663h1013q14 0 24.5 -10.5t10.5 -25t-10 -24.5t-25 -10h-1034q-20 0 -34.5 14.5t-14.5 34.5v705zM907 1712q0 -20 -13 -34.5t-33.5 -14.5t-35 14.5t-14.5 35t14.5 34.5t34.5 14q47 0 47 -49zM504 1712.5q0 -20.5 -14.5 -35t-35 -14.5t-34.5 14.5t-14 35t14 34.5t34.5 14
t35 -14t14.5 -34.5z" />
    <glyph glyph-name="Igrave" unicode="&#xcc;" 
d="M-27 1728q0 24 12.5 36t25.5 12t28 -7l283 -112q20 -8 20 -25q0 -25 -25 -24q-4 0 -12 2l-301 86q-31 8 -31 32zM123 18v1500q0 14 10 24t24.5 10t25 -10t10.5 -24v-1500q0 -14 -10.5 -24t-25 -10t-24.5 10t-10 24z" />
    <glyph glyph-name="Iacute" unicode="&#xcd;" 
d="M342 1728q0 -24 -31 -32l-301 -86q-8 -2 -12 -2q-25 0 -25 24q0 16 21 25l282 112q34 14 50 -1.5t16 -39.5zM123 18v1500q0 14 10 24t24.5 10t25 -10t10.5 -24v-1500q0 -14 -10.5 -24t-25 -10t-24.5 10t-10 24z" />
    <glyph glyph-name="Icircumflex" unicode="&#xce;" 
d="M338 1638q0 -27 -27 -26q-12 0 -22 12l-131 156l-131 -156q-8 -12 -23 -12q-27 0 -27 26q0 6 11 21l143 176q9 12 27 12t26 -12l144 -176q10 -15 10 -21zM123 18v1500q0 14 10 24t24.5 10t25 -10t10.5 -24v-1500q0 -14 -10.5 -24t-25 -10t-24.5 10t-10 24z" />
    <glyph glyph-name="Idieresis" unicode="&#xcf;" 
d="M123 18v1500q0 14 10 24t24.5 10t25 -10t10.5 -24v-1500q0 -14 -10.5 -24t-25 -10t-24.5 10t-10 24zM408 1712q0 -20 -13.5 -34.5t-34 -14.5t-35 14.5t-14.5 35t14.5 34.5t34.5 14q48 0 48 -49zM4 1712.5q0 -20.5 -14.5 -35t-35 -14.5t-34.5 14.5t-14 35t14 34.5t34.5 14
t35 -14t14.5 -34.5z" />
    <glyph glyph-name="Eth" unicode="&#xd0;" horiz-adv-x="1525" 
d="M547 735h-488q-14 0 -24 10.5t-10 24.5t10 24.5t24 10.5h488q14 0 24.5 -10.5t10.5 -24.5t-10.5 -24.5t-24.5 -10.5zM231 598v-528h455q289 0 492.5 203.5t203.5 493.5t-203.5 494.5t-492.5 204.5h-455v-524q0 -14 -10 -24.5t-24.5 -10.5t-24.5 10.5t-10 24.5v545
q0 20 14 34.5t35 14.5h475q317 0 542.5 -225.5t225.5 -542.5t-225 -542.5t-543 -225.5h-475q-20 0 -34.5 14.5t-14.5 34.5v549q0 14 10 24.5t24.5 10.5t24.5 -10.5t10 -24.5z" />
    <glyph glyph-name="Ntilde" unicode="&#xd1;" horiz-adv-x="1431" 
d="M946 1714q0 -55 -39 -94t-92 -39q-86 0 -121 74q-24 49 -64 49t-63.5 -22.5t-23.5 -51.5t-27 -28.5t-27 26.5q0 55 40 94t92 39q80 0 120 -73q27 -52 67 -52t62.5 21.5t22.5 52.5t26.5 31t26.5 -27zM1309 1518v-1498q0 -14 -11.5 -25t-29.5 -11t-29 16l-1046 1417v-1399
q0 -14 -10.5 -24t-25 -10t-24.5 10t-10 24v1498q0 14 11.5 25t29.5 11t29 -16l1046 -1417v1399q0 14 10.5 24t24.5 10t24.5 -10t10.5 -24z" />
    <glyph glyph-name="Ograve" unicode="&#xd2;" horiz-adv-x="1748" 
d="M1677 768q0 -332 -235.5 -567.5t-568.5 -235.5t-567 235.5t-234 567.5t235 567.5t567 235.5t567.5 -235.5t235.5 -567.5zM1606 768q0 303 -214 518t-517.5 215t-517.5 -215t-214 -518t214 -518t517.5 -215t517.5 215t214 518zM690 1768q0 24 12.5 36.5t24.5 12.5t29 -7
l282 -112q20 -8 21 -25q0 -25 -25 -24q-4 0 -12 2l-301 86q-31 7 -31 31z" />
    <glyph glyph-name="Oacute" unicode="&#xd3;" horiz-adv-x="1748" 
d="M1677 768q0 -332 -235.5 -567.5t-568.5 -235.5t-567 235.5t-234 567.5t235 567.5t567 235.5t567.5 -235.5t235.5 -567.5zM1606 768q0 303 -214 518t-517.5 215t-517.5 -215t-214 -518t214 -518t517.5 -215t517.5 215t214 518zM1059 1768q0 -24 -31 -31l-301 -86
q-8 -2 -12 -2q-25 0 -25 24q0 16 21 25l282 112q34 14 50 -2t16 -40z" />
    <glyph glyph-name="Ocircumflex" unicode="&#xd4;" horiz-adv-x="1748" 
d="M1677 768q0 -332 -235.5 -567.5t-568.5 -235.5t-567 235.5t-234 567.5t235 567.5t567 235.5t567.5 -235.5t235.5 -567.5zM1606 768q0 303 -214 518t-517.5 215t-517.5 -215t-214 -518t214 -518t517.5 -215t517.5 215t214 518zM1055 1638q0 -27 -27 -26q-12 0 -22 12
l-132 156l-131 -156q-10 -12 -22 -12q-27 0 -27 26q0 6 11 21l143 176q8 12 26.5 12t26.5 -12l143 -176q11 -15 11 -21z" />
    <glyph glyph-name="Otilde" unicode="&#xd5;" horiz-adv-x="1748" 
d="M1677 768q0 -332 -235.5 -567.5t-568.5 -235.5t-567 235.5t-234 567.5t235 567.5t567 235.5t567.5 -235.5t235.5 -567.5zM1606 768q0 303 -214 518t-517.5 215t-517.5 -215t-214 -518t214 -518t517.5 -215t517.5 215t214 518zM1102 1755q0 -55 -39 -94t-92 -39
q-86 0 -121 74q-23 49 -64 49t-64.5 -22.5t-23.5 -51.5t-26.5 -29t-26.5 27q0 55 40 94t91 39q80 0 121 -73q27 -51 67 -51t62.5 21t22.5 52t26.5 31t26.5 -27z" />
    <glyph glyph-name="Odieresis" unicode="&#xd6;" horiz-adv-x="1748" 
d="M1677 768q0 -332 -235.5 -567.5t-568.5 -235.5t-567 235.5t-234 567.5t235 567.5t567 235.5t567.5 -235.5t235.5 -567.5zM1606 768q0 303 -214 518t-517.5 215t-517.5 -215t-214 -518t214 -518t517.5 -215t517.5 215t214 518zM1124 1712.5q0 -20.5 -13 -35t-33.5 -14.5
t-35 14.5t-14.5 35t14.5 34.5t35 14t33.5 -14t13 -34.5zM721 1712.5q0 -20.5 -14.5 -35t-35 -14.5t-34.5 14.5t-14 35t14 34.5t34.5 14t35 -14t14.5 -34.5z" />
    <glyph glyph-name="multiply" unicode="&#xd7;" horiz-adv-x="1355" 
d="M90.5 -16q-24.5 0 -24.5 24.5t10 32.5l553 553l-551 551q-10 10 -10 24.5t10 24.5q23 23 49 0l551 -551l549 551q27 23 51 -2t-2 -47l-549 -551l551 -553q10 -8 10 -23.5t-10 -25.5q-22 -23 -49 0l-551 553l-553 -553q-10 -8 -34.5 -8z" />
    <glyph glyph-name="Oslash" unicode="&#xd8;" horiz-adv-x="1769" 
d="M1688 768q0 -332 -234.5 -567.5t-568.5 -235.5q-227 0 -428 125q-27 18 -9 47t50 10q180 -113 387 -112q303 0 517 215t214 518q0 219 -109 389q-18 31 9 49q31 18 49 -8q123 -193 123 -430zM82 768q0 332 234.5 567.5t568.5 235.5q227 0 428 -125q27 -18 9 -47t-50 -10
q-180 113 -387 112q-303 0 -517 -215t-214 -518q0 -219 108 -389q19 -31 -10 -49t-47 8q-123 193 -123 430zM1659 1495l-1501 -1503q-28 -23 -52 2t3 47l1501 1503q28 22 52 -2t-3 -47z" />
    <glyph glyph-name="Ugrave" unicode="&#xd9;" horiz-adv-x="1431" 
d="M530 1728q0 24 12.5 36t25.5 12t28 -7l283 -112q20 -8 20 -25q0 -25 -25 -24q-4 0 -12 2l-301 86q-31 8 -31 32zM193 1518v-959q0 -217 153.5 -370.5t370.5 -153.5t369.5 153.5t152.5 370.5v959q0 14 10.5 24t24.5 10t24.5 -10t10.5 -24v-959q0 -246 -174 -420t-419 -174
t-419 174t-174 420v959q0 14 10 24t24.5 10t25 -10t10.5 -24z" />
    <glyph glyph-name="Uacute" unicode="&#xda;" horiz-adv-x="1431" 
d="M899 1728q0 -24 -31 -32l-301 -86q-8 -2 -12 -2q-25 0 -25 24q0 16 21 25l283 112q33 14 49 -1.5t16 -39.5zM193 1518v-959q0 -217 153.5 -370.5t370.5 -153.5t369.5 153.5t152.5 370.5v959q0 14 10.5 24t24.5 10t24.5 -10t10.5 -24v-959q0 -246 -174 -420t-419 -174
t-419 174t-174 420v959q0 14 10 24t24.5 10t25 -10t10.5 -24z" />
    <glyph glyph-name="Ucircumflex" unicode="&#xdb;" horiz-adv-x="1431" 
d="M895 1638q0 -27 -27 -26q-12 0 -22 12l-131 156l-131 -156q-10 -12 -23 -12q-27 0 -26 26q0 6 10 21l143 176q8 12 26.5 12t26.5 -12l144 -176q10 -15 10 -21zM193 1518v-959q0 -217 153.5 -370.5t370.5 -153.5t369.5 153.5t152.5 370.5v959q0 14 10.5 24t24.5 10
t24.5 -10t10.5 -24v-959q0 -246 -174 -420t-419 -174t-419 174t-174 420v959q0 14 10 24t24.5 10t25 -10t10.5 -24z" />
    <glyph glyph-name="Udieresis" unicode="&#xdc;" horiz-adv-x="1431" 
d="M193 1518v-959q0 -217 153.5 -370.5t370.5 -153.5t369.5 153.5t152.5 370.5v959q0 14 10.5 24t24.5 10t24.5 -10t10.5 -24v-959q0 -246 -174 -420t-419 -174t-419 174t-174 420v959q0 14 10 24t24.5 10t25 -10t10.5 -24zM967 1712q0 -20 -13.5 -34.5t-34 -14.5t-35 14.5
t-14.5 35t14.5 34.5t35.5 14q47 0 47 -49zM563 1712.5q0 -20.5 -14 -35t-34.5 -14.5t-35 14.5t-14.5 35t14.5 34.5t35 14t34.5 -14t14 -34.5z" />
    <glyph glyph-name="Yacute" unicode="&#xdd;" horiz-adv-x="1273" 
d="M527 852q-17 0 -27 18l-463 627q-6 11 -6 23t9.5 22t27.5 10t28 -18l463 -627q6 -10 6 -22t-10.5 -22.5t-27.5 -10.5zM602 18v723q0 18 12 35l564 758q10 18 27 18t27.5 -10t10.5 -22t-6 -23l-565 -762v-717q0 -14 -10.5 -24t-24.5 -10t-24.5 10t-10.5 24zM817 1728
q0 -24 -31 -32l-301 -86q-8 -2 -12 -2q-25 0 -24 24q0 16 20 25l283 112q33 14 49 -1.5t16 -39.5z" />
    <glyph glyph-name="Thorn" unicode="&#xde;" horiz-adv-x="1331" 
d="M193 1518v-1500q0 -14 -10.5 -24t-25 -10t-24.5 10t-10 24v1500q0 14 10 24t24.5 10t25 -10t10.5 -24zM330 594h516q143 0 241.5 99.5t98.5 241.5t-99.5 240.5t-240.5 98.5h-516q-14 0 -24.5 10t-10.5 24.5t10 24.5t25 10h516q170 0 290.5 -119.5t120.5 -288.5
t-120.5 -290t-290.5 -121h-516q-14 0 -24.5 10.5t-10.5 24.5t10.5 24.5t24.5 10.5z" />
    <glyph glyph-name="germandbls" unicode="&#xdf;" horiz-adv-x="1097" 
d="M580 803h-250q-14 0 -24.5 10t-10.5 24.5t10 24.5t25 10h250q178 0 307 -128t129 -308t-129 -308t-307 -128h-250q-14 0 -24.5 10t-10.5 24.5t10 25t25 10.5h250q152 0 258 107.5t106 259t-106 259t-258 107.5zM509 1501q-130 0 -223 -92t-93 -223v-1518
q0 -14 -10.5 -24.5t-25 -10.5t-24.5 10.5t-10 24.5v1518q0 160 113.5 272.5t271.5 112.5t271.5 -112.5t113.5 -256.5t-82 -252q-8 -12 -23.5 -14t-25.5 8q-31 20 -8 47q68 92 68 209t-91.5 209t-221.5 92z" />
    <glyph glyph-name="agrave" unicode="&#xe0;" horiz-adv-x="1462" 
d="M712 35q232 0 396 164q23 27 49.5 0t-0.5 -49q-188 -184 -447 -184t-443.5 184t-184.5 444t184.5 443.5t444.5 183.5q180 0 330.5 -93.5t228.5 -246.5v286q0 14 10 24.5t24.5 10.5t24.5 -10t10 -25v-1149q0 -14 -10 -24t-24.5 -10t-24.5 10t-10 24v576q0 231 -164 394
t-395.5 163t-394 -164t-162.5 -394t163 -394t395 -164zM526 1524q0 22 12.5 34.5t25.5 12.5t28 -6l282 -113q20 -8 21 -25q0 -25 -25 -24q-4 0 -12 2l-301 86q-31 11 -31 33z" />
    <glyph glyph-name="aacute" unicode="&#xe1;" horiz-adv-x="1462" 
d="M712 35q232 0 396 164q23 27 49.5 0t-0.5 -49q-188 -184 -447 -184t-443.5 184t-184.5 444t184.5 443.5t444.5 183.5q180 0 330.5 -93.5t228.5 -246.5v286q0 14 10 24.5t24.5 10.5t24.5 -10t10 -25v-1149q0 -14 -10 -24t-24.5 -10t-24.5 10t-10 24v576q0 231 -164 394
t-395.5 163t-394 -164t-162.5 -394t163 -394t395 -164zM895 1524q0 -22 -31 -33l-301 -86q-8 -2 -12 -2q-25 0 -25 24q0 16 21 25l282 113q13 6 27 6t26.5 -12.5t12.5 -34.5z" />
    <glyph glyph-name="acircumflex" unicode="&#xe2;" horiz-adv-x="1462" 
d="M712 35q232 0 396 164q23 27 49.5 0t-0.5 -49q-188 -184 -447 -184t-443.5 184t-184.5 444t184.5 443.5t444.5 183.5q180 0 330.5 -93.5t228.5 -246.5v286q0 14 10 24.5t24.5 10.5t24.5 -10t10 -25v-1149q0 -14 -10 -24t-24.5 -10t-24.5 10t-10 24v576q0 231 -164 394
t-395.5 163t-394 -164t-162.5 -394t163 -394t395 -164zM891 1417q0 -27 -27 -26q-12 0 -22 12l-131 156l-131 -156q-10 -12 -23 -12q-27 0 -27 26q0 6 11 21l143 176q8 12 26.5 12t26.5 -12l144 -176q10 -15 10 -21z" />
    <glyph glyph-name="atilde" unicode="&#xe3;" horiz-adv-x="1462" 
d="M712 35q232 0 396 164q23 27 49.5 0t-0.5 -49q-188 -184 -447 -184t-443.5 184t-184.5 444t184.5 443.5t444.5 183.5q180 0 330.5 -93.5t228.5 -246.5v286q0 14 10 24.5t24.5 10.5t24.5 -10t10 -25v-1149q0 -14 -10 -24t-24.5 -10t-24.5 10t-10 24v576q0 231 -164 394
t-395.5 163t-394 -164t-162.5 -394t163 -394t395 -164zM934 1524q0 -55 -39 -94t-92 -39q-86 0 -121 73q-23 49 -64 49t-64.5 -22.5t-23.5 -50.5t-26.5 -28.5t-26.5 26.5q0 55 40 94t91 39q80 0 121 -74q27 -51 67 -51t62.5 22.5t22.5 52.5t26.5 30t26.5 -27z" />
    <glyph glyph-name="adieresis" unicode="&#xe4;" horiz-adv-x="1462" 
d="M712 35q232 0 396 164q23 27 49.5 0t-0.5 -49q-188 -184 -447 -184t-443.5 184t-184.5 444t184.5 443.5t444.5 183.5q180 0 330.5 -93.5t228.5 -246.5v286q0 14 10 24.5t24.5 10.5t24.5 -10t10 -25v-1149q0 -14 -10 -24t-24.5 -10t-24.5 10t-10 24v576q0 231 -164 394
t-395.5 163t-394 -164t-162.5 -394t163 -394t395 -164zM961 1521.5q0 -20.5 -13.5 -34.5t-34 -14t-35 14t-14.5 34.5t14.5 35t35 14.5t34 -14.5t13.5 -35zM557 1521.5q0 -20.5 -14.5 -34.5t-35 -14t-34.5 14t-14 34.5t14 35t34.5 14.5t35 -14.5t14.5 -35z" />
    <glyph glyph-name="aring" unicode="&#xe5;" horiz-adv-x="1462" 
d="M712 35q232 0 396 164q23 27 49.5 0t-0.5 -49q-188 -184 -447 -184t-443.5 184t-184.5 444t184.5 443.5t444.5 183.5q180 0 330.5 -93.5t228.5 -246.5v286q0 14 10 24.5t24.5 10.5t24.5 -10t10 -25v-1149q0 -14 -10 -24t-24.5 -10t-24.5 10t-10 24v576q0 231 -164 394
t-395.5 163t-394 -164t-162.5 -394t163 -394t395 -164zM862 1488q0 -62 -45 -107.5t-106 -45.5t-106.5 45.5t-45.5 107.5t44.5 106t106.5 44t107 -44t45 -106zM805 1488q0 40 -26.5 67.5t-66.5 27.5t-68 -27.5t-28 -67.5t28 -67.5t68 -27.5t66.5 27.5t26.5 67.5z" />
    <glyph glyph-name="ae" unicode="&#xe6;" horiz-adv-x="2605" 
d="M1444 594q0 14 10 24.5t25 10.5h975q-14 219 -175 370.5t-387 151.5t-389.5 -164t-163.5 -394t163 -394t394 -164q145 0 269.5 70.5t199.5 189.5q9 25 29 25t30.5 -10.5t10.5 -22.5t-10 -27q-86 -135 -225.5 -215t-311.5 -80t-320.5 92.5t-228.5 245.5v-285
q0 -14 -10 -24t-24.5 -10t-24.5 10t-10 24v576q0 231 -164 394t-395.5 163t-394 -164t-162.5 -394t163 -394t395 -164t396 164q23 27 49.5 0t-0.5 -49q-188 -184 -447 -184t-443.5 184t-184.5 444t184.5 443.5t444.5 183.5q180 0 330.5 -93.5t228.5 -246.5v286q0 14 10 24.5
t24.5 10.5t24.5 -10t10 -25v-286q80 154 228.5 247t328.5 93q252 0 434.5 -177.5t192.5 -429.5q0 -25 -14.5 -40t-34.5 -15h-995q-14 0 -24.5 10.5t-10.5 24.5z" />
    <glyph glyph-name="ccedilla" unicode="&#xe7;" horiz-adv-x="1224" 
d="M713 -33q-23 0 -64 4l-14 -88q33 23 89 23t103 -48t47 -115t-48 -114t-114 -47t-114.5 47t-48.5 113q0 23 22 22q20 0 21 -22q0 -49 36 -84t85 -35t82.5 35t33.5 85t-33.5 85t-83.5 35t-85 -39q-6 -8 -19 -8q-23 0 -22 22q0 8 22 137q-225 37 -375.5 212t-150.5 421
t184.5 429.5t440.5 183.5t438 -170q10 -9 10 -25t-10 -26.5t-24.5 -10.5t-22.5 8q-164 154 -390 154t-390 -164t-164 -393t165 -394t389 -165t390 155q8 8 22.5 8.5t24.5 -10t10 -25.5t-10 -26q-182 -170 -432 -170z" />
    <glyph glyph-name="egrave" unicode="&#xe8;" horiz-adv-x="1417" 
d="M256 594q0 14 10 24.5t25 10.5h975q-14 219 -175 370.5t-386 151.5t-388 -163t-163 -394.5t162.5 -395t392.5 -163.5q145 0 269 70.5t200 189.5q10 25 29 25t29.5 -10.5t10.5 -22.5t-10 -27q-86 -135 -225.5 -215t-302.5 -80q-260 0 -443.5 184.5t-183.5 444.5
t183.5 443.5t439.5 183.5t438 -177.5t192 -429.5q0 -25 -14 -40t-35 -15h-995q-14 0 -24.5 10.5t-10.5 24.5zM526 1524q0 22 12.5 34.5t25.5 12.5t28 -6l282 -113q20 -8 21 -25q0 -25 -25 -24q-4 0 -12 2l-301 86q-31 11 -31 33z" />
    <glyph glyph-name="eacute" unicode="&#xe9;" horiz-adv-x="1417" 
d="M256 594q0 14 10 24.5t25 10.5h975q-14 219 -175 370.5t-386 151.5t-388 -163t-163 -394.5t162.5 -395t392.5 -163.5q145 0 269 70.5t200 189.5q10 25 29 25t29.5 -10.5t10.5 -22.5t-10 -27q-86 -135 -225.5 -215t-302.5 -80q-260 0 -443.5 184.5t-183.5 444.5
t183.5 443.5t439.5 183.5t438 -177.5t192 -429.5q0 -25 -14 -40t-35 -15h-995q-14 0 -24.5 10.5t-10.5 24.5zM895 1524q0 -22 -31 -33l-301 -86q-8 -2 -12 -2q-25 0 -25 24q0 16 21 25l282 113q13 6 27 6t26.5 -12.5t12.5 -34.5z" />
    <glyph glyph-name="ecircumflex" unicode="&#xea;" horiz-adv-x="1417" 
d="M256 594q0 14 10 24.5t25 10.5h975q-14 219 -175 370.5t-386 151.5t-388 -163t-163 -394.5t162.5 -395t392.5 -163.5q145 0 269 70.5t200 189.5q10 25 29 25t29.5 -10.5t10.5 -22.5t-10 -27q-86 -135 -225.5 -215t-302.5 -80q-260 0 -443.5 184.5t-183.5 444.5
t183.5 443.5t439.5 183.5t438 -177.5t192 -429.5q0 -25 -14 -40t-35 -15h-995q-14 0 -24.5 10.5t-10.5 24.5zM891 1417q0 -27 -27 -26q-12 0 -22 12l-131 156l-131 -156q-10 -12 -23 -12q-27 0 -27 26q0 6 11 21l143 176q8 12 26.5 12t26.5 -12l144 -176q10 -15 10 -21z" />
    <glyph glyph-name="edieresis" unicode="&#xeb;" horiz-adv-x="1417" 
d="M256 594q0 14 10 24.5t25 10.5h975q-14 219 -175 370.5t-386 151.5t-388 -163t-163 -394.5t162.5 -395t392.5 -163.5q145 0 269 70.5t200 189.5q10 25 29 25t29.5 -10.5t10.5 -22.5t-10 -27q-86 -135 -225.5 -215t-302.5 -80q-260 0 -443.5 184.5t-183.5 444.5
t183.5 443.5t439.5 183.5t438 -177.5t192 -429.5q0 -25 -14 -40t-35 -15h-995q-14 0 -24.5 10.5t-10.5 24.5zM961 1521.5q0 -20.5 -13.5 -34.5t-34 -14t-35 14t-14.5 34.5t14.5 35t35 14.5t34 -14.5t13.5 -35zM557 1521.5q0 -20.5 -14.5 -34.5t-35 -14t-34.5 14t-14 34.5
t14 35t34.5 14.5t35 -14.5t14.5 -35z" />
    <glyph glyph-name="igrave" unicode="&#xec;" 
d="M-27 1524q0 22 12.5 34.5t25.5 12.5t28 -6l283 -113q20 -8 20 -25q0 -25 -25 -24q-4 0 -12 2l-301 86q-31 11 -31 33zM123 18v1149q0 14 10 24.5t24.5 10.5t25 -10t10.5 -25v-1149q0 -14 -10.5 -24t-25 -10t-24.5 10t-10 24z" />
    <glyph glyph-name="iacute" unicode="&#xed;" 
d="M342 1524q0 -22 -31 -33l-301 -86q-8 -2 -12 -2q-25 0 -25 24q0 16 21 25l282 113q14 6 28 6t26 -12.5t12 -34.5zM123 18v1149q0 14 10 24.5t24.5 10.5t25 -10t10.5 -25v-1149q0 -14 -10.5 -24t-25 -10t-24.5 10t-10 24z" />
    <glyph glyph-name="icircumflex" unicode="&#xee;" 
d="M338 1417q0 -27 -27 -26q-12 0 -22 12l-131 156l-131 -156q-8 -12 -23 -12q-27 0 -27 26q0 6 11 21l143 176q9 12 27 12t26 -12l144 -176q10 -15 10 -21zM123 18v1149q0 14 10 24.5t24.5 10.5t25 -10t10.5 -25v-1149q0 -14 -10.5 -24t-25 -10t-24.5 10t-10 24z" />
    <glyph glyph-name="idieresis" unicode="&#xef;" 
d="M123 18v1149q0 14 10 24.5t24.5 10.5t25 -10t10.5 -25v-1149q0 -14 -10.5 -24t-25 -10t-24.5 10t-10 24zM408 1521.5q0 -20.5 -13.5 -34.5t-34 -14t-35 14t-14.5 34.5t14.5 35t35 14.5t34 -14.5t13.5 -35zM4 1521.5q0 -20.5 -14.5 -34.5t-35 -14t-34.5 14t-14 34.5t14 35
t34.5 14.5t35 -14.5t14.5 -35z" />
    <glyph glyph-name="eth" unicode="&#xf0;" horiz-adv-x="1384" 
d="M1231 560q0 210 -144 358l-419 434l-168 -49q-26 -9 -38.5 4.5t-12.5 27.5q0 27 30 35l133 39l-86 84q-10 10 -10 24.5t10.5 24.5t24.5 10t24 -10l113 -110l193 55q18 4 31.5 -6.5t13.5 -26.5q0 -27 -33 -35l-150 -45l400 -409q160 -166 160 -405t-178.5 -417
t-432.5 -178t-432 178.5t-178 424.5t178 413.5t432 167.5h21q14 0 23 -11.5t9 -25.5t-11 -23.5t-25 -9.5h-17q-223 0 -380.5 -148.5t-157.5 -363.5t157.5 -373.5t381.5 -158.5t381 157.5t157 367.5z" />
    <glyph glyph-name="ntilde" unicode="&#xf1;" horiz-adv-x="1257" 
d="M193 1167v-1149q0 -14 -10.5 -24t-25 -10t-24.5 10t-10 24v1149q0 14 10 24.5t24.5 10.5t25 -10.5t10.5 -24.5zM651 1221q197 0 340.5 -143.5t143.5 -344.5v-715q0 -14 -10.5 -24t-25 -10t-24.5 10t-10 24v715q0 174 -123 296t-292 122t-300 -111q-30 -18 -48 8t7 50
q145 123 342 123zM874 1524q0 -55 -38.5 -94t-92.5 -39q-86 0 -120 73q-23 49 -64 49t-64.5 -22.5t-23.5 -50.5t-26.5 -28.5t-26.5 26.5q0 55 40 94t91 39q80 0 121 -74q28 -51 68 -51t61.5 22.5t21.5 52.5t26.5 30t26.5 -27z" />
    <glyph glyph-name="ograve" unicode="&#xf2;" horiz-adv-x="1423" 
d="M1341 594q0 -260 -184 -444.5t-445 -184.5t-445.5 184.5t-184.5 444.5t184.5 443.5t445.5 183.5t445 -183.5t184 -443.5zM1270 593.5q0 231.5 -164 394.5t-395.5 163t-394 -164t-162.5 -394t162.5 -394t394 -164t395.5 163.5t164 395zM524 1524q0 22 12.5 34.5t24.5 12.5
t29 -6l282 -113q20 -8 21 -25q0 -25 -25 -24q-4 0 -12 2l-301 86q-31 11 -31 33z" />
    <glyph glyph-name="oacute" unicode="&#xf3;" horiz-adv-x="1423" 
d="M1341 594q0 -260 -184 -444.5t-445 -184.5t-445.5 184.5t-184.5 444.5t184.5 443.5t445.5 183.5t445 -183.5t184 -443.5zM1270 593.5q0 231.5 -164 394.5t-395.5 163t-394 -164t-162.5 -394t162.5 -394t394 -164t395.5 163.5t164 395zM893 1524q0 -22 -31 -33l-301 -86
q-8 -2 -12 -2q-25 0 -25 24q0 16 21 25l282 113q17 6 29 6t24.5 -12.5t12.5 -34.5z" />
    <glyph glyph-name="ocircumflex" unicode="&#xf4;" horiz-adv-x="1423" 
d="M1341 594q0 -260 -184 -444.5t-445 -184.5t-445.5 184.5t-184.5 444.5t184.5 443.5t445.5 183.5t445 -183.5t184 -443.5zM1270 593.5q0 231.5 -164 394.5t-395.5 163t-394 -164t-162.5 -394t162.5 -394t394 -164t395.5 163.5t164 395zM891 1417q0 -27 -27 -26
q-12 0 -22 12l-131 156l-131 -156q-10 -12 -23 -12q-27 0 -27 26q0 6 11 21l143 176q8 12 26.5 12t26.5 -12l144 -176q10 -15 10 -21z" />
    <glyph glyph-name="otilde" unicode="&#xf5;" horiz-adv-x="1423" 
d="M1341 594q0 -260 -184 -444.5t-445 -184.5t-445.5 184.5t-184.5 444.5t184.5 443.5t445.5 183.5t445 -183.5t184 -443.5zM1270 593.5q0 231.5 -164 394.5t-395.5 163t-394 -164t-162.5 -394t162.5 -394t394 -164t395.5 163.5t164 395zM938 1524q0 -55 -39 -94t-92 -39
q-86 0 -121 73q-23 49 -64 49t-64 -22.5t-23 -50.5t-27 -28.5t-27 26.5q0 55 40 94t91 39q80 0 121 -74q27 -51 67 -51t62.5 22.5t22.5 52.5t26.5 30t26.5 -27z" />
    <glyph glyph-name="odieresis" unicode="&#xf6;" horiz-adv-x="1423" 
d="M1341 594q0 -260 -184 -444.5t-445 -184.5t-445.5 184.5t-184.5 444.5t184.5 443.5t445.5 183.5t445 -183.5t184 -443.5zM1270 593.5q0 231.5 -164 394.5t-395.5 163t-394 -164t-162.5 -394t162.5 -394t394 -164t395.5 163.5t164 395zM961 1521.5q0 -20.5 -13.5 -34.5
t-34 -14t-35 14t-14.5 34.5t14.5 35t35 14.5t34 -14.5t13.5 -35zM557 1521.5q0 -20.5 -14.5 -34.5t-35 -14t-34.5 14t-14 34.5t14 35t34.5 14.5t35 -14.5t14.5 -35z" />
    <glyph glyph-name="divide" unicode="&#xf7;" horiz-adv-x="1390" 
d="M1272 559h-1151q-14 0 -24.5 10.5t-10.5 24.5t10 24.5t25 10.5h1151q14 0 24.5 -10.5t10.5 -24.5t-10.5 -24.5t-24.5 -10.5zM641 1146q0 24 16.5 40t39 16t39 -16t16.5 -40t-16.5 -40t-39 -16t-39 16t-16.5 40zM752 40q0 -24 -16.5 -40t-39 -16t-39 16t-16.5 40t16.5 39
t39 15t39 -15t16.5 -39z" />
    <glyph glyph-name="oslash" unicode="&#xf8;" horiz-adv-x="1439" 
d="M1350 592q0 -260 -184.5 -443.5t-444.5 -183.5q-160 0 -299 76q-32 20 -14 48t49 13q129 -68 264 -67q229 0 393 162.5t164 394.5q0 147 -66 268q-16 28 13 46t49 -11q76 -139 76 -303zM90 594q0 260 184.5 443.5t444.5 183.5q160 0 299 -76q32 -20 14 -48t-49 -14
q-129 68 -264 68q-231 0 -394 -164t-163 -393q0 -147 65 -268q15 -28 -13 -46t-48 11q-76 139 -76 303zM1321 1145l-1153 -1153q-28 -23 -52 2t3 47l1153 1153q28 22 52 -2t-3 -47z" />
    <glyph glyph-name="ugrave" unicode="&#xf9;" horiz-adv-x="1257" 
d="M1065 18v1149q0 14 10 24.5t24.5 10.5t25 -10t10.5 -25v-1149q0 -14 -10.5 -24t-25 -10t-24.5 10t-10 24zM606 -35q-197 0 -340 142.5t-143 345.5v714q0 14 10 24.5t24.5 10.5t25 -10t10.5 -25v-714q0 -174 122.5 -296t291.5 -122t300 110q31 18 49 -8t-8 -49
q-145 -123 -342 -123zM442 1524q0 22 12.5 34.5t24.5 12.5t29 -6l283 -113q20 -8 20 -25q0 -25 -25 -24q-4 0 -12 2l-301 86q-31 11 -31 33z" />
    <glyph glyph-name="uacute" unicode="&#xfa;" horiz-adv-x="1257" 
d="M1065 18v1149q0 14 10 24.5t24.5 10.5t25 -10t10.5 -25v-1149q0 -14 -10.5 -24t-25 -10t-24.5 10t-10 24zM606 -35q-197 0 -340 142.5t-143 345.5v714q0 14 10 24.5t24.5 10.5t25 -10t10.5 -25v-714q0 -174 122.5 -296t291.5 -122t300 110q31 18 49 -8t-8 -49
q-145 -123 -342 -123zM811 1524q0 -22 -31 -33l-301 -86q-8 -2 -12 -2q-25 0 -25 24q0 16 21 25l282 113q17 6 29 6t24.5 -12.5t12.5 -34.5z" />
    <glyph glyph-name="ucircumflex" unicode="&#xfb;" horiz-adv-x="1257" 
d="M1065 18v1149q0 14 10 24.5t24.5 10.5t25 -10t10.5 -25v-1149q0 -14 -10.5 -24t-25 -10t-24.5 10t-10 24zM606 -35q-197 0 -340 142.5t-143 345.5v714q0 14 10 24.5t24.5 10.5t25 -10t10.5 -25v-714q0 -174 122.5 -296t291.5 -122t300 110q31 18 49 -8t-8 -49
q-145 -123 -342 -123zM807 1417q0 -27 -27 -26q-14 0 -22 12l-131 156l-131 -156q-10 -12 -23 -12q-27 0 -27 26q0 6 11 21l143 176q10 12 26.5 12t26.5 -12l144 -176q10 -15 10 -21z" />
    <glyph glyph-name="udieresis" unicode="&#xfc;" horiz-adv-x="1257" 
d="M1065 18v1149q0 14 10 24.5t24.5 10.5t25 -10t10.5 -25v-1149q0 -14 -10.5 -24t-25 -10t-24.5 10t-10 24zM606 -35q-197 0 -340 142.5t-143 345.5v714q0 14 10 24.5t24.5 10.5t25 -10t10.5 -25v-714q0 -174 122.5 -296t291.5 -122t300 110q31 18 49 -8t-8 -49
q-145 -123 -342 -123zM877 1521.5q0 -20.5 -13.5 -34.5t-34 -14t-35 14t-14.5 34.5t14.5 35t35 14.5t34 -14.5t13.5 -35zM473 1521.5q0 -20.5 -14.5 -34.5t-35 -14t-34.5 14t-14 34.5t14 35t34.5 14.5t35 -14.5t14.5 -35z" />
    <glyph glyph-name="yacute" unicode="&#xfd;" horiz-adv-x="1159" 
d="M25 1169q0 12 9.5 22.5t29.5 10.5t28 -22l428 -959q14 -31 -18.5 -47t-46.5 19l-426 956q-4 8 -4 20zM397 -334q0 12 4 21l666 1493q7 22 27 22q40 -1 41 -35q0 -10 -5 -18l-665 -1493q-7 -23 -27 -23t-30.5 10.5t-10.5 22.5zM762 1524q0 -22 -31 -33l-301 -86
q-8 -2 -12 -2q-25 0 -25 24q0 16 21 25l282 113q16 6 28 6t25 -12.5t13 -34.5z" />
    <glyph glyph-name="thorn" unicode="&#xfe;" horiz-adv-x="1462" 
d="M751 1151q-232 0 -397 -164q-23 -27 -49 0t0 49q187 184 447 184t444 -184t184 -444t-184 -443.5t-444 -183.5q-180 0 -331 93.5t-228 246.5v-637q0 -14 -10.5 -24.5t-25 -10.5t-24.5 10.5t-10 24.5v1850q0 14 10 24t24.5 10t25 -10t10.5 -24v-926q0 -231 163.5 -395
t393.5 -164t394.5 163.5t164.5 395t-163 395.5t-395 164z" />
    <glyph glyph-name="ydieresis" unicode="&#xff;" horiz-adv-x="1159" 
d="M25 1169q0 12 9.5 22.5t29.5 10.5t28 -22l428 -959q14 -31 -18.5 -47t-46.5 19l-426 956q-4 8 -4 20zM397 -334q0 12 4 21l666 1493q7 22 27 22q40 -1 41 -35q0 -10 -5 -18l-665 -1493q-7 -23 -27 -23t-30.5 10.5t-10.5 22.5zM829 1521.5q0 -20.5 -13 -34.5t-33.5 -14
t-35 14t-14.5 34.5t14.5 35t35 14.5t33.5 -14.5t13 -35zM426 1521.5q0 -20.5 -14.5 -34.5t-35 -14t-34.5 14t-14 34.5t14 35t34.5 14.5t35 -14.5t14.5 -35z" />
    <glyph glyph-name="Amacron" unicode="&#x100;" horiz-adv-x="1396" 
d="M424 453h725q33 0 47 -35l160 -383q8 -18 -3.5 -34.5t-30.5 -16.5t-32 22l-155 377h-711q-14 0 -24.5 10t-10.5 24.5t10.5 25t24.5 10.5zM1086 555q-20 0 -31 23l-357 858l-592 -1430q-12 -22 -31 -22t-30.5 16t-3.5 35l614 1485q10 33 43 32.5t43 -32.5l379 -914
q8 -18 -3 -34.5t-31 -16.5zM492 1687.5q0 14.5 10 24.5t24 10h346q14 0 24.5 -10t10.5 -24.5t-10 -24.5t-25 -10h-346q-14 0 -24 10t-10 24.5z" />
    <glyph glyph-name="amacron" unicode="&#x101;" horiz-adv-x="1462" 
d="M712 35q232 0 396 164q23 27 49.5 0t-0.5 -49q-188 -184 -447 -184t-443.5 184t-184.5 444t184.5 443.5t444.5 183.5q180 0 330.5 -93.5t228.5 -246.5v286q0 14 10 24.5t24.5 10.5t24.5 -10t10 -25v-1149q0 -14 -10 -24t-24.5 -10t-24.5 10t-10 24v576q0 231 -164 394
t-395.5 163t-394 -164t-162.5 -394t163 -394t395 -164zM502 1501.5q0 14.5 10 24.5t25 10h346q14 0 24.5 -10t10.5 -24.5t-10.5 -25t-24.5 -10.5h-346q-14 0 -24.5 10.5t-10.5 25z" />
    <glyph glyph-name="Aogonek" unicode="&#x104;" horiz-adv-x="1396" 
d="M424 453h725q33 0 47 -35l160 -383q8 -18 -3.5 -34.5t-23.5 -16.5q-13 0 -29 8t-65 8t-94 -47t-45 -112t45 -110.5t95 -45.5t72 12t34 12q11 0 21.5 -9.5t10.5 -27.5t-18 -28q-45 -29 -122 -29t-143.5 66.5t-66.5 157.5t66.5 148.5t158.5 57.5q10 0 27 -4l-141 342h-711
q-14 0 -24.5 10t-10.5 24.5t10.5 25t24.5 10.5zM1086 555q-20 0 -31 23l-357 858l-592 -1430q-12 -22 -31 -22t-30.5 16t-3.5 35l614 1485q10 33 43 32.5t43 -32.5l379 -914q8 -18 -3 -34.5t-31 -16.5z" />
    <glyph glyph-name="aogonek" unicode="&#x105;" horiz-adv-x="1462" 
d="M1290 -315q52 0 74 12t34 12t22 -9.5t10 -27.5t-19 -28q-45 -29 -121 -29t-143.5 63.5t-67.5 149.5t55.5 138t135.5 61v567q0 231 -164 394t-395.5 163t-394 -164t-162.5 -394t163 -394t395 -164t396 164q23 27 49.5 0t-0.5 -49q-188 -184 -447 -184t-443.5 184
t-184.5 444t184.5 443.5t444.5 183.5q180 0 330.5 -93.5t228.5 -246.5v286q0 14 10 24.5t24.5 10.5t24.5 -10t10 -25v-1149q0 -14 -10 -24t-24 -10q-63 0 -108.5 -43t-45.5 -106.5t43.5 -106.5t95.5 -43z" />
    <glyph glyph-name="Cacute" unicode="&#x106;" horiz-adv-x="1511" 
d="M869 -35q-329 0 -564 235.5t-235 567.5t236 567.5t564 235.5t566 -232q10 -10 10 -24.5t-10.5 -24.5t-24.5 -10t-25 10q-217 211 -517 211t-514 -215t-214 -518t214 -518t514 -215t517 211q10 10 24.5 10t25 -10t10.5 -24.5t-10 -24.5q-238 -232 -567 -232zM1038 1768
q0 -24 -30 -31l-301 -86q-8 -2 -13 -2q-25 0 -24 24q0 16 20 25l283 112q33 14 49 -2t16 -40z" />
    <glyph glyph-name="cacute" unicode="&#x107;" horiz-adv-x="1224" 
d="M707 -35q-254 0 -439.5 184.5t-185.5 444.5t184.5 443.5t440.5 183.5t438 -170q10 -9 10 -25t-10 -26.5t-24.5 -10.5t-22.5 8q-164 154 -390 154t-390 -164t-164 -393t165 -394t389 -165t390 155q8 8 22.5 8.5t24.5 -10t10 -25.5t-10 -26q-184 -172 -438 -172zM889 1524
q0 -22 -31 -33l-301 -86q-8 -2 -12 -2q-25 0 -25 24q0 16 21 25l282 113q13 6 27 6t26.5 -12.5t12.5 -34.5z" />
    <glyph glyph-name="Ccaron" unicode="&#x10c;" horiz-adv-x="1511" 
d="M869 -35q-329 0 -564 235.5t-235 567.5t236 567.5t564 235.5t566 -232q10 -10 10 -24.5t-10.5 -24.5t-24.5 -10t-25 10q-217 211 -517 211t-514 -215t-214 -518t214 -518t514 -215t517 211q10 10 24.5 10t25 -10t10.5 -24.5t-10 -24.5q-238 -232 -567 -232zM1053 1827
q0 -6 -11 -21l-143 -176q-10 -12 -26.5 -12t-26.5 12l-144 176q-10 14 -10 21q0 27 27 26q14 0 22 -12l131 -155l132 155q8 12 22 12q27 1 27 -26z" />
    <glyph glyph-name="ccaron" unicode="&#x10d;" horiz-adv-x="1224" 
d="M707 -35q-254 0 -439.5 184.5t-185.5 444.5t184.5 443.5t440.5 183.5t438 -170q10 -9 10 -25t-10 -26.5t-24.5 -10.5t-22.5 8q-164 154 -390 154t-390 -164t-164 -393t165 -394t389 -165t390 155q8 8 22.5 8.5t24.5 -10t10 -25.5t-10 -26q-184 -172 -438 -172zM893 1599
q0 -6 -10 -20l-144 -176q-10 -12 -26.5 -12t-26.5 12l-143 176q-10 14 -11 20q0 27 27 27q14 0 23 -12l131 -156l131 156q8 12 22 12q27 0 27 -27z" />
    <glyph glyph-name="Dcaron" unicode="&#x10e;" horiz-adv-x="1486" 
d="M872 1817q0 -6 -10 -21l-143 -176q-10 -12 -26.5 -12t-26.5 12l-144 176q-10 14 -10 21q0 27 27 26q14 0 22 -12l131 -156l131 156q8 12 23 12q26 1 26 -26zM123 18v1469q0 20 14.5 34.5t34.5 14.5h475q317 0 542.5 -225.5t225.5 -542.5t-225 -542.5t-543 -225.5h-317
q-14 0 -24.5 10t-10.5 24.5t10 25t25 10.5h317q289 0 492.5 203.5t203.5 493.5t-203.5 494.5t-492.5 204.5h-454v-1448q0 -14 -10.5 -24t-25 -10t-24.5 10t-10 24z" />
    <glyph glyph-name="dcaron" unicode="&#x10f;" horiz-adv-x="1605" 
d="M712 35q232 0 396 164q23 27 49.5 0t-0.5 -49q-188 -184 -447 -184t-443.5 184t-184.5 444t184.5 443.5t444.5 183.5q180 0 330.5 -93.5t228.5 -246.5v637q0 14 10 24t24.5 10t24.5 -10t10 -24v-1500q0 -14 -10 -24t-24.5 -10t-24.5 10t-10 24v576q0 231 -164 394
t-395.5 163t-394 -164t-162.5 -394t163 -394t395 -164zM1530 1552q22 0 34.5 -12t12.5 -24t-6 -29l-113 -283q-8 -20 -24 -20q-25 0 -25 24q0 4 2 13l86 301q11 30 33 30z" />
    <glyph glyph-name="Emacron" unicode="&#x112;" horiz-adv-x="1312" 
d="M489 1687.5q0 14.5 10.5 24.5t24.5 10h346q14 0 24.5 -10t10.5 -24.5t-10 -24.5t-25 -10h-346q-14 0 -24.5 10t-10.5 24.5zM157.5 905q-14.5 0 -24.5 10.5t-10 24.5v547q0 20 14.5 34.5t34.5 14.5h1034q14 0 24.5 -10t10.5 -24.5t-10 -25t-25 -10.5h-1013v-526
q0 -14 -10.5 -24.5t-25 -10.5zM123 754q0 20 14.5 34.5t34.5 14.5h893q14 0 24.5 -10.5t10.5 -24.5t-10.5 -24.5t-24.5 -10.5h-872v-663h1013q14 0 24.5 -10.5t10.5 -25t-10 -24.5t-25 -10h-1034q-20 0 -34.5 14.5t-14.5 34.5v705z" />
    <glyph glyph-name="emacron" unicode="&#x113;" horiz-adv-x="1417" 
d="M256 594q0 14 10 24.5t25 10.5h975q-14 219 -175 370.5t-386 151.5t-388 -163t-163 -394.5t162.5 -395t392.5 -163.5q145 0 269 70.5t200 189.5q10 25 29 25t29.5 -10.5t10.5 -22.5t-10 -27q-86 -135 -225.5 -215t-302.5 -80q-260 0 -443.5 184.5t-183.5 444.5
t183.5 443.5t439.5 183.5t438 -177.5t192 -429.5q0 -25 -14 -40t-35 -15h-995q-14 0 -24.5 10.5t-10.5 24.5zM502 1501.5q0 14.5 10 24.5t25 10h346q14 0 24.5 -10t10.5 -24.5t-10.5 -25t-24.5 -10.5h-346q-14 0 -24.5 10.5t-10.5 25z" />
    <glyph glyph-name="Edotaccent" unicode="&#x116;" horiz-adv-x="1312" 
d="M782 1682q0 -36 -26.5 -62.5t-62.5 -26.5t-62.5 26.5t-26.5 62.5t26.5 63t62.5 27t62.5 -27t26.5 -63zM157.5 905q-14.5 0 -24.5 10.5t-10 24.5v547q0 20 14.5 34.5t34.5 14.5h1034q14 0 24.5 -10t10.5 -24.5t-10 -25t-25 -10.5h-1013v-526q0 -14 -10.5 -24.5t-25 -10.5z
M123 754q0 20 14.5 34.5t34.5 14.5h893q14 0 24.5 -10.5t10.5 -24.5t-10.5 -24.5t-24.5 -10.5h-872v-663h1013q14 0 24.5 -10.5t10.5 -25t-10 -24.5t-25 -10h-1034q-20 0 -34.5 14.5t-14.5 34.5v705z" />
    <glyph glyph-name="edotaccent" unicode="&#x117;" horiz-adv-x="1417" 
d="M256 594q0 14 10 24.5t25 10.5h975q-14 219 -175 370.5t-386 151.5t-388 -163t-163 -394.5t162.5 -395t392.5 -163.5q145 0 269 70.5t200 189.5q10 25 29 25t29.5 -10.5t10.5 -22.5t-10 -27q-86 -135 -225.5 -215t-302.5 -80q-260 0 -443.5 184.5t-183.5 444.5
t183.5 443.5t439.5 183.5t438 -177.5t192 -429.5q0 -25 -14 -40t-35 -15h-995q-14 0 -24.5 10.5t-10.5 24.5zM797 1476q0 -36 -26.5 -63t-62.5 -27t-63 27t-27 63t27 62.5t63 26.5t62.5 -26.5t26.5 -62.5z" />
    <glyph glyph-name="Eogonek" unicode="&#x118;" horiz-adv-x="1312" 
d="M157.5 905q-14.5 0 -24.5 10.5t-10 24.5v547q0 20 14.5 34.5t34.5 14.5h1034q14 0 24.5 -10t10.5 -24.5t-10 -25t-25 -10.5h-1013v-526q0 -14 -10.5 -24.5t-25 -10.5zM1103 -315q51 0 73 12t33 12t21.5 -9.5t10.5 -27.5t-18 -28q-45 -29 -122 -29t-143.5 66.5
t-66.5 163.5t80 155h-799q-20 0 -34.5 14.5t-14.5 34.5v705q0 20 14.5 34.5t34.5 14.5h893q14 0 24.5 -10.5t10.5 -24.5t-10.5 -24.5t-24.5 -10.5h-872v-663h1013q14 0 24.5 -10.5t10.5 -25t-10 -24.5t-25 -10h-96q-59 0 -103 -47t-44 -112t45 -110.5t95 -45.5z" />
    <glyph glyph-name="eogonek" unicode="&#x119;" horiz-adv-x="1417" 
d="M256 594q0 14 10 24.5t25 10.5h975q-14 219 -175 370.5t-386 151.5t-388 -163t-163 -394.5t162.5 -395t392.5 -163.5q145 0 269 70.5t200 189.5q10 25 29 25t29.5 -10.5t10.5 -22.5t-10 -27q-121 -188 -332 -262q-41 -18 -65.5 -60t-24.5 -100t45.5 -105.5t95.5 -47.5
t72 12t34 12t22 -9.5t10 -27.5t-19 -28q-45 -29 -121 -29t-143.5 68.5t-67.5 150.5t43 135q-53 -4 -77 -4q-260 0 -443.5 184.5t-183.5 444.5t183.5 443.5t439.5 183.5t438 -177.5t192 -429.5q0 -25 -14 -40t-35 -15h-995q-14 0 -24.5 10.5t-10.5 24.5z" />
    <glyph glyph-name="Ecaron" unicode="&#x11a;" horiz-adv-x="1312" 
d="M858 1817q0 -6 -10 -21l-143 -176q-8 -12 -27 -12t-27 12l-143 176q-10 14 -10 21q0 27 26 26q12 0 23 -12l131 -156l131 156q10 12 22 12q27 1 27 -26zM157.5 905q-14.5 0 -24.5 10.5t-10 24.5v547q0 20 14.5 34.5t34.5 14.5h1034q14 0 24.5 -10t10.5 -24.5t-10 -25
t-25 -10.5h-1013v-526q0 -14 -10.5 -24.5t-25 -10.5zM123 754q0 20 14.5 34.5t34.5 14.5h893q14 0 24.5 -10.5t10.5 -24.5t-10.5 -24.5t-24.5 -10.5h-872v-663h1013q14 0 24.5 -10.5t10.5 -25t-10 -24.5t-25 -10h-1034q-20 0 -34.5 14.5t-14.5 34.5v705z" />
    <glyph glyph-name="ecaron" unicode="&#x11b;" horiz-adv-x="1417" 
d="M256 594q0 14 10 24.5t25 10.5h975q-14 219 -175 370.5t-386 151.5t-388 -163t-163 -394.5t162.5 -395t392.5 -163.5q145 0 269 70.5t200 189.5q10 25 29 25t29.5 -10.5t10.5 -22.5t-10 -27q-86 -135 -225.5 -215t-302.5 -80q-260 0 -443.5 184.5t-183.5 444.5
t183.5 443.5t439.5 183.5t438 -177.5t192 -429.5q0 -25 -14 -40t-35 -15h-995q-14 0 -24.5 10.5t-10.5 24.5zM889 1599q0 -6 -10 -20l-144 -176q-10 -12 -26.5 -12t-26.5 12l-143 176q-10 14 -11 20q0 27 27 27q14 0 23 -12l131 -156l131 156q8 12 22 12q27 0 27 -27z" />
    <glyph glyph-name="uni0122" unicode="&#x122;" horiz-adv-x="1587" 
d="M858 768q0 14 10.5 24.5t24.5 10.5h543q20 0 34.5 -14.5t14.5 -34.5v-490q0 -20 -12 -33q-113 -125 -268.5 -195.5t-330.5 -70.5q-332 0 -567 235.5t-235 567.5t235.5 567.5t559.5 235.5t563 -223q10 -10 10 -24.5t-10.5 -25t-24.5 -10.5t-25 10q-215 203 -512 203
t-511 -215t-214 -518t213.5 -518t527.5 -215t531 237v461h-522q-14 0 -24.5 10.5t-10.5 24.5zM827 -312q0 22 21 21q14 0 24.5 10.5t10.5 22.5v82h-9q-23 0 -37 14.5t-14 35.5t15.5 35.5t36 14.5t35 -14t14.5 -35v-133q0 -31 -21.5 -53.5t-48.5 -22.5t-27 22z" />
    <glyph glyph-name="uni0123" unicode="&#x123;" horiz-adv-x="1462" 
d="M706 35q226 0 392 153q8 8 24.5 8.5t24.5 -8t8 -25t-8 -24.5q-188 -174 -442 -174t-438.5 184.5t-184.5 444.5t184.5 443.5t444.5 183.5q180 0 330.5 -93.5t228.5 -246.5v286q0 14 10 24.5t24.5 10.5t24.5 -10t10 -25v-923q0 -260 -184 -444.5t-444 -184.5
q-223 0 -465 119q-18 8 -18 26t9 28.5t22 10.5t20 -4q205 -111 434 -111t393 164t164 396v350q0 231 -164 394t-395.5 163t-394 -164t-162.5 -394t163 -394t389 -164zM732 1556q26 0 26 -22t-21 -21q-14 0 -24.5 -10t-10.5 -22v-82h9q23 0 37 -15.5t14 -36t-15.5 -35
t-36 -14.5t-34.5 14.5t-14 35.5v133q0 31 22 53t48 22z" />
    <glyph glyph-name="Imacron" unicode="&#x12a;" 
d="M0 1687.5q0 14.5 10 24.5t25 10h246q14 0 24 -10t10 -24.5t-10 -24.5t-24 -10h-246q-14 0 -24.5 10t-10.5 24.5zM123 18v1500q0 14 10 24t24.5 10t25 -10t10.5 -24v-1500q0 -14 -10.5 -24t-25 -10t-24.5 10t-10 24z" />
    <glyph glyph-name="imacron" unicode="&#x12b;" 
d="M0 1501.5q0 14.5 10 24.5t25 10h246q14 0 24 -10t10 -24.5t-10 -25t-24 -10.5h-246q-14 0 -24.5 10.5t-10.5 25zM123 18v1149q0 14 10 24.5t24.5 10.5t25 -10t10.5 -25v-1149q0 -14 -10.5 -24t-25 -10t-24.5 10t-10 24z" />
    <glyph glyph-name="Iogonek" unicode="&#x12e;" 
d="M231 -315q18 0 46 8t34 -27q9 -35 -19 -43t-61 -8q-92 0 -158.5 66.5t-66.5 160.5q0 125 117 178v1498q0 14 10 24t24.5 10t25 -10t10.5 -24v-1500q0 -23 -23 -32q-92 -43 -92 -144q0 -66 45 -111.5t108 -45.5z" />
    <glyph glyph-name="iogonek" unicode="&#x12f;" 
d="M109 1521.5q0 20.5 14 35t34.5 14.5t35 -14.5t14.5 -35t-14.5 -34.5t-35 -14t-34.5 14t-14 34.5zM231 -315q18 0 46 8t34 -27q9 -35 -19 -43t-61 -8q-92 0 -158.5 66.5t-66.5 160.5q0 125 117 178v1147q0 14 10 24.5t24.5 10.5t25 -10t10.5 -25v-1149q0 -23 -23 -32
q-92 -43 -92 -144q0 -66 45 -111.5t108 -45.5z" />
    <glyph glyph-name="dotlessi" unicode="&#x131;" 
d="M123 18v1149q0 14 10 24.5t24.5 10.5t25 -10t10.5 -25v-1149q0 -14 -10.5 -24t-25 -10t-24.5 10t-10 24z" />
    <glyph glyph-name="uni0136" unicode="&#x136;" horiz-adv-x="1220" 
d="M543 -270q0 22 20 20q14 0 24.5 10.5t10.5 22.5v82h-8q-20 0 -35.5 14.5t-15.5 35.5t15 35.5t35.5 14.5t35 -14t14.5 -35v-133q0 -31 -21.5 -53t-47.5 -22t-27 22zM123 18v1500q0 14 10 24t24.5 10t25 -10t10.5 -24v-1500q0 -14 -10.5 -24t-25 -10t-24.5 10t-10 24z
M289 768q0 20 16 37l821 739q8 8 22.5 8t25 -10t10.5 -24.5t-10 -24.5l-805 -725l805 -725q10 -10 10 -24.5t-10.5 -24.5t-24.5 -10t-23 8l-821 739q-16 17 -16 37z" />
    <glyph glyph-name="uni0137" unicode="&#x137;" horiz-adv-x="1085" 
d="M502 -270q0 22 20 20q14 0 24.5 10.5t10.5 22.5v82h-8q-20 0 -35.5 14.5t-15.5 35.5t15 35.5t35.5 14.5t35 -14t14.5 -35v-133q0 -31 -22 -53t-48 -22t-26 22zM123 18v1500q0 14 10 24t24.5 10t25 -10t10.5 -24v-1500q0 -14 -10.5 -24t-25 -10t-24.5 10t-10 24z
M289 593.5q0 24.5 18 41.5l684 561q13 8 25 8t22.5 -10t10.5 -26t-19 -29l-659 -545l659 -545q18 -13 18 -29t-10 -26t-22 -10t-25 8l-684 561q-18 16 -18 40.5z" />
    <glyph glyph-name="Lacute" unicode="&#x139;" horiz-adv-x="1200" 
d="M858 1728q0 -24 -31 -32l-301 -86q-8 -2 -12 -2q-25 0 -25 24q0 16 21 25l283 112q33 14 49 -1.5t16 -39.5zM172 0q-20 0 -34.5 14.5t-14.5 34.5v1469q0 14 10 24t24.5 10t25 -10t10.5 -24v-1448h942q14 0 24 -10.5t10 -25t-10 -24.5t-24 -10h-963z" />
    <glyph glyph-name="lacute" unicode="&#x13a;" 
d="M342 1706q0 -24 -31 -31l-301 -86q-8 -2 -12 -2q-25 0 -25 25q0 16 21 24l282 113q14 6 28 6t26 -12.5t12 -36.5zM123 18v1500q0 14 10 24t24.5 10t25 -10t10.5 -24v-1500q0 -14 -10.5 -24t-25 -10t-24.5 10t-10 24z" />
    <glyph glyph-name="uni013B" unicode="&#x13b;" horiz-adv-x="1200" 
d="M594 -270q0 22 20 20q14 0 24.5 10.5t10.5 22.5v82h-8q-23 0 -37 14.5t-14 35.5t15.5 35.5t36 14.5t34.5 -14t14 -35v-133q0 -31 -22 -53t-48 -22t-26 22zM172 0q-20 0 -34.5 14.5t-14.5 34.5v1469q0 14 10 24t24.5 10t25 -10t10.5 -24v-1448h942q14 0 24 -10.5t10 -25
t-10 -24.5t-24 -10h-963z" />
    <glyph glyph-name="uni013C" unicode="&#x13c;" 
d="M138 -313q-26 -1 -27 21q0 22 20 22q14 0 24.5 10t10.5 22v82h-8q-23 0 -37.5 14t-14.5 36t15.5 36.5t36 14.5t35 -14.5t14.5 -34.5v-134q0 -31 -21.5 -53t-47.5 -22zM123 18v1500q0 14 10 24t24.5 10t25 -10t10.5 -24v-1500q0 -14 -10.5 -24t-25 -10t-24.5 10t-10 24z
" />
    <glyph glyph-name="Lcaron" unicode="&#x13d;" horiz-adv-x="1200" 
d="M1120 1552q24 0 36.5 -12t12.5 -24t-6 -29l-112 -283q-8 -20 -25 -20q-25 0 -25 24q0 4 3 13l86 301q6 30 30 30zM172 0q-20 0 -34.5 14.5t-14.5 34.5v1469q0 14 10 24t24.5 10t25 -10t10.5 -24v-1448h942q14 0 24 -10.5t10 -25t-10 -24.5t-24 -10h-963z" />
    <glyph glyph-name="lcaron" unicode="&#x13e;" horiz-adv-x="458" 
d="M382 1552q22 0 35 -12t13 -24t-6 -29l-113 -283q-8 -20 -24 -20q-25 0 -25 24q0 4 2 13l86 301q10 30 32 30zM123 18v1500q0 14 10 24t24.5 10t25 -10t10.5 -24v-1500q0 -14 -10.5 -24t-25 -10t-24.5 10t-10 24z" />
    <glyph glyph-name="Lslash" unicode="&#x141;" horiz-adv-x="1241" 
d="M162 932v586q0 14 10 24t24.5 10t24.5 -10t10 -24v-572q0 -12 -10 -25.5t-24 -16.5t-24.5 5.5t-10.5 22.5zM25 729q-4 14 4 27.5t22 15.5l615 129q29 4 37 -18q8 -23 -0.5 -36t-22.5 -16l-614 -129q-33 -4 -41 27zM231 602v-532h943q14 0 24 -10.5t10 -25t-10 -24.5
t-24 -10h-963q-20 0 -34.5 14.5t-14.5 34.5v539q0 33 35 41q14 4 24 -4.5t10 -22.5z" />
    <glyph glyph-name="lslash" unicode="&#x142;" horiz-adv-x="430" 
d="M27 725q-4 14 4 27.5t22 15.5l309 66q31 4 41 -28q4 -13 -4 -26.5t-22 -15.5l-309 -66q-33 -4 -41 27zM250 600v-582q0 -14 -10.5 -25t-24.5 -10t-24.5 11t-10.5 22v570q0 33 35 41q14 4 24.5 -4.5t10.5 -22.5zM180 932v584q0 14 10.5 25t23.5 11t24.5 -10t11.5 -24v-572
q0 -33 -35 -41q-14 -4 -24.5 4.5t-10.5 22.5z" />
    <glyph glyph-name="Nacute" unicode="&#x143;" horiz-adv-x="1431" 
d="M1309 1518v-1498q0 -14 -11.5 -25t-29.5 -11t-29 16l-1046 1417v-1399q0 -14 -10.5 -24t-25 -10t-24.5 10t-10 24v1498q0 14 11.5 25t29.5 11t29 -16l1046 -1417v1399q0 14 10.5 24t24.5 10t24.5 -10t10.5 -24zM899 1728q0 -24 -31 -32l-301 -86q-8 -2 -12 -2
q-25 0 -25 24q0 16 21 25l283 112q33 14 49 -1.5t16 -39.5z" />
    <glyph glyph-name="nacute" unicode="&#x144;" horiz-adv-x="1257" 
d="M831 1524q0 -22 -30 -33l-301 -86q-8 -2 -13 -2q-25 0 -24 24q0 16 20 25l283 113q16 6 28 6t24.5 -12.5t12.5 -34.5zM193 1167v-1149q0 -14 -10.5 -24t-25 -10t-24.5 10t-10 24v1149q0 14 10 24.5t24.5 10.5t25 -10.5t10.5 -24.5zM651 1221q197 0 340.5 -143.5
t143.5 -344.5v-715q0 -14 -10.5 -24t-25 -10t-24.5 10t-10 24v715q0 174 -123 296t-292 122t-300 -111q-30 -18 -48 8t7 50q145 123 342 123z" />
    <glyph glyph-name="uni0145" unicode="&#x145;" horiz-adv-x="1431" 
d="M1309 1518v-1498q0 -14 -11.5 -25t-29.5 -11t-29 16l-1046 1417v-1399q0 -14 -10.5 -24t-25 -10t-24.5 10t-10 24v1498q0 14 11.5 25t29.5 11t29 -16l1046 -1417v1399q0 14 10.5 24t24.5 10t24.5 -10t10.5 -24zM670 -270q0 22 20 20q14 0 24.5 10.5t10.5 22.5v82h-8
q-20 0 -35.5 14.5t-15.5 35.5t15 35.5t35.5 14.5t35 -14t14.5 -35v-133q0 -31 -22 -53t-48 -22t-26 22z" />
    <glyph glyph-name="uni0146" unicode="&#x146;" horiz-adv-x="1257" 
d="M193 1167v-1149q0 -14 -10.5 -24t-25 -10t-24.5 10t-10 24v1149q0 14 10 24.5t24.5 10.5t25 -10.5t10.5 -24.5zM651 1221q197 0 340.5 -143.5t143.5 -344.5v-715q0 -14 -10.5 -24t-25 -10t-24.5 10t-10 24v715q0 174 -123 296t-292 122t-300 -111q-30 -18 -48 8t7 50
q145 123 342 123zM582 -270q0 22 20 20q14 0 24.5 10.5t10.5 22.5v82h-8q-23 0 -37 14.5t-14 35.5t15 35.5t35.5 14.5t35 -14t14.5 -35v-133q0 -31 -22 -53t-48 -22t-26 22z" />
    <glyph glyph-name="Ncaron" unicode="&#x147;" horiz-adv-x="1431" 
d="M1309 1518v-1498q0 -14 -11.5 -25t-29.5 -11t-29 16l-1046 1417v-1399q0 -14 -10.5 -24t-25 -10t-24.5 10t-10 24v1498q0 14 11.5 25t29.5 11t29 -16l1046 -1417v1399q0 14 10.5 24t24.5 10t24.5 -10t10.5 -24zM897 1817q0 -6 -10 -21l-144 -176q-10 -12 -26.5 -12
t-26.5 12l-143 176q-10 14 -10 21q0 27 26 26q14 0 23 -12l131 -156l131 156q8 12 22 12q27 1 27 -26z" />
    <glyph glyph-name="ncaron" unicode="&#x148;" horiz-adv-x="1257" 
d="M825 1599q0 -6 -10 -20l-143 -176q-8 -12 -26.5 -12t-27.5 12l-143 176q-10 14 -10 20q0 27 27 27q12 0 22 -12l131 -156l131 156q10 12 23 12q26 0 26 -27zM193 1167v-1149q0 -14 -10.5 -24t-25 -10t-24.5 10t-10 24v1149q0 14 10 24.5t24.5 10.5t25 -10.5t10.5 -24.5z
M651 1221q197 0 340.5 -143.5t143.5 -344.5v-715q0 -14 -10.5 -24t-25 -10t-24.5 10t-10 24v715q0 174 -123 296t-292 122t-300 -111q-30 -18 -48 8t7 50q145 123 342 123z" />
    <glyph glyph-name="Omacron" unicode="&#x14c;" horiz-adv-x="1748" 
d="M1677 768q0 -332 -235.5 -567.5t-568.5 -235.5t-567 235.5t-234 567.5t235 567.5t567 235.5t567.5 -235.5t235.5 -567.5zM1606 768q0 303 -214 518t-517.5 215t-517.5 -215t-214 -518t214 -518t517.5 -215t517.5 215t214 518zM666 1687.5q0 14.5 10 24.5t24 10h347
q14 0 24 -10t10 -24.5t-10 -24.5t-24 -10h-347q-14 0 -24 10t-10 24.5z" />
    <glyph glyph-name="omacron" unicode="&#x14d;" horiz-adv-x="1423" 
d="M1341 594q0 -260 -184 -444.5t-445 -184.5t-445.5 184.5t-184.5 444.5t184.5 443.5t445.5 183.5t445 -183.5t184 -443.5zM1270 593.5q0 231.5 -164 394.5t-395.5 163t-394 -164t-162.5 -394t162.5 -394t394 -164t395.5 163.5t164 395zM504 1501.5q0 14.5 10 24.5t25 10
h346q14 0 24.5 -10t10.5 -24.5t-10.5 -25t-24.5 -10.5h-346q-14 0 -24.5 10.5t-10.5 25z" />
    <glyph glyph-name="Ohungarumlaut" unicode="&#x150;" horiz-adv-x="1748" 
d="M1677 768q0 -332 -235.5 -567.5t-568.5 -235.5t-567 235.5t-234 567.5t235 567.5t567 235.5t567.5 -235.5t235.5 -567.5zM1606 768q0 303 -214 518t-517.5 215t-517.5 -215t-214 -518t214 -518t517.5 -215t517.5 215t214 518zM932 1622q-39 18 -25 57l58 136q16 41 57 26
q39 -18 25 -57l-58 -135q-16 -41 -57 -27zM774 1622q-39 18 -24 57l57 136q16 41 57 26q39 -18 25 -57l-58 -135q-16 -41 -57 -27z" />
    <glyph glyph-name="ohungarumlaut" unicode="&#x151;" horiz-adv-x="1423" 
d="M1341 594q0 -260 -184 -444.5t-445 -184.5t-445.5 184.5t-184.5 444.5t184.5 443.5t445.5 183.5t445 -183.5t184 -443.5zM1270 593.5q0 231.5 -164 394.5t-395.5 163t-394 -164t-162.5 -394t162.5 -394t394 -164t395.5 163.5t164 395zM776 1331q-39 18 -24 58l57 135
q16 41 57 26q39 -18 25 -57l-57 -135q-17 -41 -58 -27zM618 1331q-39 18 -24 58l57 135q16 41 58 26q39 -18 24 -57l-57 -135q-17 -41 -58 -27z" />
    <glyph glyph-name="OE" unicode="&#x152;" horiz-adv-x="2775" 
d="M1585 754q0 20 14.5 34.5t34.5 14.5h893q14 0 24.5 -10.5t10.5 -24.5t-10 -24.5t-25 -10.5h-872v-663h1014q14 0 24 -10.5t10 -25t-10 -24.5t-24 -10h-1035q-20 0 -34.5 14.5t-14.5 34.5v705zM884 35q314 0 537 246q8 10 24.5 12t25.5 -7t10.5 -25.5t-6.5 -24.5
q-115 -127 -270.5 -199t-330.5 -72q-334 0 -568 235.5t-234 567.5t234.5 567.5t567.5 235.5q227 0 418 -118t293 -312v346q0 20 14.5 34.5t34.5 14.5h1035q14 0 24 -10t10 -24.5t-10 -25t-24 -10.5h-1014v-526q0 -14 -10.5 -24.5t-30.5 -10.5t-29 27q-55 246 -255 407.5
t-456 161.5q-303 0 -517 -215t-214 -518t213.5 -518t527.5 -215z" />
    <glyph glyph-name="oe" unicode="&#x153;" horiz-adv-x="2605" 
d="M711 -35q-260 0 -444.5 184.5t-184.5 444.5t184.5 443.5t444.5 183.5q203 0 365.5 -117t228.5 -301q66 184 227.5 301t363.5 117q252 0 434.5 -177.5t192.5 -429.5q0 -25 -14.5 -40t-34.5 -15h-995q-14 0 -24.5 10.5t-10.5 24.5t10 24.5t25 10.5h975q-14 219 -175 370.5
t-387 151.5t-388.5 -163t-162.5 -394.5t163 -395t392 -163.5q145 0 269.5 70.5t199.5 189.5q9 25 29 25t30.5 -10.5t10.5 -22.5t-10 -27q-86 -135 -225.5 -215t-303.5 -80q-260 0 -443 184.5t-183 430.5t-164 408.5t-395.5 162.5t-394 -164t-162.5 -394t162.5 -394
t394.5 -164q143 0 268 67.5t201 184.5q8 12 23.5 14t26.5 -7t12 -25.5t-9 -26.5q-90 -129 -227.5 -203t-294.5 -74z" />
    <glyph glyph-name="Racute" unicode="&#x154;" horiz-adv-x="1357" 
d="M844 1728q0 -24 -31 -32l-301 -86q-8 -2 -12 -2q-25 0 -25 24q0 16 21 25l282 112q35 13 50.5 -2t15.5 -39zM539 615q0 19 14 34t35 15h217q166 0 282.5 117.5t116.5 283.5t-116.5 283.5t-282.5 117.5h-612v-1448q0 -14 -10.5 -24t-25 -10t-24.5 10t-10 24v1469
q0 20 14.5 34.5t34.5 14.5h633q195 0 333 -137t138 -334t-138.5 -334t-332.5 -137h-174l434 -555q18 -27 -6 -49q-29 -20 -49 6l-457 584q-14 16 -14 35z" />
    <glyph glyph-name="racute" unicode="&#x155;" horiz-adv-x="776" 
d="M193 438v-420q0 -14 -10.5 -24t-25 -10t-24.5 10t-10 24v420q0 14 10 24.5t24.5 10.5t25 -10.5t10.5 -24.5zM157.5 575q-14.5 0 -24.5 10.5t-10 24.5v557q0 14 10 24.5t24.5 10.5t25 -10t10.5 -25v-286q63 156 188 248t289 92q66 0 77 -16.5t9 -30.5q-6 -31 -40 -27
t-46 4q-209 0 -341 -155.5t-136 -385.5q0 -14 -10.5 -24.5t-25 -10.5zM623 1524q0 -22 -31 -33l-301 -86q-8 -2 -12 -2q-25 0 -25 24q0 16 20 25l283 113q13 6 27 6t26.5 -12.5t12.5 -34.5z" />
    <glyph glyph-name="uni0156" unicode="&#x156;" horiz-adv-x="1357" 
d="M530 -270q0 22 21 20q14 0 24.5 10.5t10.5 22.5v82h-8q-20 0 -36 14.5t-16 35.5t15.5 35.5t36 14.5t35 -14t14.5 -35v-133q0 -31 -21.5 -53t-48.5 -22t-27 22zM539 615q0 19 14 34t35 15h217q166 0 282.5 117.5t116.5 283.5t-116.5 283.5t-282.5 117.5h-612v-1448
q0 -14 -10.5 -24t-25 -10t-24.5 10t-10 24v1469q0 20 14.5 34.5t34.5 14.5h633q195 0 333 -137t138 -334t-138.5 -334t-332.5 -137h-174l434 -555q18 -27 -6 -49q-29 -20 -49 6l-457 584q-14 16 -14 35z" />
    <glyph glyph-name="uni0157" unicode="&#x157;" horiz-adv-x="776" 
d="M193 438v-420q0 -14 -10.5 -24t-25 -10t-24.5 10t-10 24v420q0 14 10 24.5t24.5 10.5t25 -10.5t10.5 -24.5zM157.5 575q-14.5 0 -24.5 10.5t-10 24.5v557q0 14 10 24.5t24.5 10.5t25 -10t10.5 -25v-286q63 156 188 248t289 92q66 0 77 -16.5t9 -30.5q-6 -31 -40 -27
t-46 4q-209 0 -341 -155.5t-136 -385.5q0 -14 -10.5 -24.5t-25 -10.5zM418 -270q0 22 20 20q14 0 24.5 10.5t10.5 22.5v82h-8q-23 0 -37 14.5t-14 35.5t15 35.5t35.5 14.5t35 -14t14.5 -35v-133q0 -31 -22 -53t-48 -22t-26 22z" />
    <glyph glyph-name="Rcaron" unicode="&#x158;" horiz-adv-x="1357" 
d="M834 1817q0 -6 -11 -21l-143 -176q-8 -12 -26.5 -12t-26.5 12l-144 176q-10 14 -10 21q0 27 27 26q12 0 22 -12l131 -156l131 156q10 12 23 12q27 1 27 -26zM539 615q0 19 14 34t35 15h217q166 0 282.5 117.5t116.5 283.5t-116.5 283.5t-282.5 117.5h-612v-1448
q0 -14 -10.5 -24t-25 -10t-24.5 10t-10 24v1469q0 20 14.5 34.5t34.5 14.5h633q195 0 333 -137t138 -334t-138.5 -334t-332.5 -137h-174l434 -555q18 -27 -6 -49q-29 -20 -49 6l-457 584q-14 16 -14 35z" />
    <glyph glyph-name="rcaron" unicode="&#x159;" horiz-adv-x="776" 
d="M193 438v-420q0 -14 -10.5 -24t-25 -10t-24.5 10t-10 24v420q0 14 10 24.5t24.5 10.5t25 -10.5t10.5 -24.5zM157.5 575q-14.5 0 -24.5 10.5t-10 24.5v557q0 14 10 24.5t24.5 10.5t25 -10t10.5 -25v-286q63 156 188 248t289 92q66 0 77 -16.5t9 -30.5q-6 -31 -40 -27
t-46 4q-209 0 -341 -155.5t-136 -385.5q0 -14 -10.5 -24.5t-25 -10.5zM616 1599q0 -6 -10 -20l-143 -176q-8 -12 -26.5 -12t-26.5 12l-144 176q-10 14 -10 20q0 27 27 27q12 0 22 -12l131 -156l131 156q10 12 23 12q26 0 26 -27z" />
    <glyph glyph-name="Sacute" unicode="&#x15a;" horiz-adv-x="1210" 
d="M604 1501q-178 0 -297 -89t-119 -234q0 -96 52.5 -160t135.5 -95.5t183 -55t199.5 -53.5t182.5 -74t135 -133t52 -218q0 -186 -151.5 -305t-372.5 -119q-287 0 -502 148q-20 16 -20 31t9 25.5t23 10.5t27 -12q190 -133 463 -133q193 0 323 97t130 257q0 113 -52.5 190.5
t-135.5 115.5t-183 64.5t-199.5 53.5t-182.5 64.5t-135 113.5t-52 187q0 174 140 283.5t347 109.5q264 0 465 -129q25 -14 25 -30t-10 -27t-22 -11t-28 10q-178 117 -430 117zM788 1772q0 -22 -30 -33l-301 -86q-8 -2 -13 -2q-25 0 -24 24q0 16 20 25l283 112q35 13 50 -2.5
t15 -37.5z" />
    <glyph glyph-name="sacute" unicode="&#x15b;" horiz-adv-x="1089" 
d="M559 1151q-176 0 -270 -60.5t-94 -159.5t45 -152.5t116.5 -75t157.5 -33t173 -27.5t159 -48t117 -104.5t45 -187.5q0 -158 -126 -248t-358 -90t-424 107q-12 6 -16 20t2 26.5t20.5 16.5t26.5 -2q178 -98 383 -98t312.5 70.5t107.5 201.5q0 96 -45 156.5t-117 85t-158 37
t-173 27t-158.5 43t-116.5 95t-45 171.5q0 141 114.5 220t317.5 79t383 -91q12 -6 16 -20t-2 -26.5t-20.5 -16.5t-26.5 2q-170 82 -346 82zM729 1524q0 -22 -31 -33l-301 -86q-8 -2 -12 -2q-25 0 -25 24q0 16 21 25l283 113q16 6 28 6t24.5 -12.5t12.5 -34.5z" />
    <glyph glyph-name="Scaron" unicode="&#x160;" horiz-adv-x="1210" 
d="M604 1501q-178 0 -297 -89t-119 -234q0 -96 52.5 -160t135.5 -95.5t183 -55t199.5 -53.5t182.5 -74t135 -133t52 -218q0 -186 -151.5 -305t-372.5 -119q-287 0 -502 148q-20 16 -20 31t9 25.5t23 10.5t27 -12q190 -133 463 -133q193 0 323 97t130 257q0 113 -52.5 190.5
t-135.5 115.5t-183 64.5t-199.5 53.5t-182.5 64.5t-135 113.5t-52 187q0 174 140 283.5t347 109.5q264 0 465 -129q25 -14 25 -30t-10 -27t-22 -11t-28 10q-178 117 -430 117zM786 1827q0 -6 -10 -21l-143 -176q-10 -12 -26.5 -12t-26.5 12l-144 176q-10 14 -10 21
q0 27 27 26q14 0 22 -12l131 -155l131 155q8 12 23 12q26 1 26 -26z" />
    <glyph glyph-name="scaron" unicode="&#x161;" horiz-adv-x="1089" 
d="M559 1151q-176 0 -270 -60.5t-94 -159.5t45 -152.5t116.5 -75t157.5 -33t173 -27.5t159 -48t117 -104.5t45 -187.5q0 -158 -126 -248t-358 -90t-424 107q-12 6 -16 20t2 26.5t20.5 16.5t26.5 -2q178 -98 383 -98t312.5 70.5t107.5 201.5q0 96 -45 156.5t-117 85t-158 37
t-173 27t-158.5 43t-116.5 95t-45 171.5q0 141 114.5 220t317.5 79t383 -91q12 -6 16 -20t-2 -26.5t-20.5 -16.5t-26.5 2q-170 82 -346 82zM725 1599q0 -6 -10 -20l-144 -176q-10 -12 -26.5 -12t-26.5 12l-143 176q-10 14 -10 20q0 27 26 27q14 0 23 -12l131 -156l131 156
q8 12 22 12q27 0 27 -27z" />
    <glyph glyph-name="Tcaron" unicode="&#x164;" horiz-adv-x="1226" 
d="M442 1466h-387q-14 0 -24.5 10.5t-10.5 25t10.5 24.5t24.5 10h387q14 0 24.5 -10t10.5 -24.5t-10.5 -25t-24.5 -10.5zM629 1536h542q14 0 24.5 -10t10.5 -24.5t-10 -25t-25 -10.5h-522v-1448q0 -14 -10 -24t-24.5 -10t-24.5 10t-10 24v1469q0 20 14.5 34.5t34.5 14.5z
M795 1817q0 -6 -11 -21l-143 -176q-10 -12 -26.5 -12t-26.5 12l-144 176q-10 14 -10 21q0 27 27 26q12 0 22 -12l131 -156l131 156q8 12 23 12q27 1 27 -26z" />
    <glyph glyph-name="tcaron" unicode="&#x165;" horiz-adv-x="796" 
d="M728 1552q22 0 35 -12t13 -24t-6 -29l-113 -283q-8 -20 -24 -20q-25 0 -25 24q0 4 2 13l86 301q10 30 32 30zM25 1151q0 14 10 24.5t24 10.5h121v250q0 14 10.5 24t24.5 10t24.5 -10t10.5 -24v-250h297q14 0 24.5 -10.5t10.5 -24.5t-10.5 -24.5t-24.5 -10.5h-488
q-14 0 -24 10.5t-10 24.5zM250 979v-700q0 -88 60.5 -148.5t148.5 -60.5h88q14 0 24.5 -10.5t10.5 -25t-10.5 -24.5t-24.5 -10h-88q-115 0 -197 81t-82 195v703q0 14 10.5 24.5t24.5 10.5t24.5 -10.5t10.5 -24.5z" />
    <glyph glyph-name="Umacron" unicode="&#x16a;" horiz-adv-x="1431" 
d="M193 1518v-959q0 -217 153.5 -370.5t370.5 -153.5t369.5 153.5t152.5 370.5v959q0 14 10.5 24t24.5 10t24.5 -10t10.5 -24v-959q0 -246 -174 -420t-419 -174t-419 174t-174 420v959q0 14 10 24t24.5 10t25 -10t10.5 -24zM508 1687.5q0 14.5 10 24.5t25 10h346
q14 0 24.5 -10t10.5 -24.5t-10.5 -24.5t-24.5 -10h-346q-14 0 -24.5 10t-10.5 24.5z" />
    <glyph glyph-name="umacron" unicode="&#x16b;" horiz-adv-x="1257" 
d="M1065 18v1149q0 14 10 24.5t24.5 10.5t25 -10t10.5 -25v-1149q0 -14 -10.5 -24t-25 -10t-24.5 10t-10 24zM606 -35q-197 0 -340 142.5t-143 345.5v714q0 14 10 24.5t24.5 10.5t25 -10t10.5 -25v-714q0 -174 122.5 -296t291.5 -122t300 110q31 18 49 -8t-8 -49
q-145 -123 -342 -123zM420 1501.5q0 14.5 10 24.5t25 10h346q14 0 24.5 -10t10.5 -24.5t-10.5 -25t-24.5 -10.5h-346q-14 0 -24.5 10.5t-10.5 25z" />
    <glyph glyph-name="Uring" unicode="&#x16e;" horiz-adv-x="1431" 
d="M193 1518v-959q0 -217 153.5 -370.5t370.5 -153.5t369.5 153.5t152.5 370.5v959q0 14 10.5 24t24.5 10t24.5 -10t10.5 -24v-959q0 -246 -174 -420t-419 -174t-419 174t-174 420v959q0 14 10 24t24.5 10t25 -10t10.5 -24zM868 1742q0 -62 -44 -107.5t-106 -45.5
t-107.5 45.5t-45.5 107.5t45.5 106t107.5 44t106 -44t44 -106zM813 1743q0 39 -27.5 66.5t-66.5 27.5t-67.5 -27.5t-28.5 -66.5t28.5 -67.5t67.5 -28.5t66.5 28.5t27.5 67.5z" />
    <glyph glyph-name="uring" unicode="&#x16f;" horiz-adv-x="1257" 
d="M1065 18v1149q0 14 10 24.5t24.5 10.5t25 -10t10.5 -25v-1149q0 -14 -10.5 -24t-25 -10t-24.5 10t-10 24zM606 -35q-197 0 -340 142.5t-143 345.5v714q0 14 10 24.5t24.5 10.5t25 -10t10.5 -25v-714q0 -174 122.5 -296t291.5 -122t300 110q31 18 49 -8t-8 -49
q-145 -123 -342 -123zM780 1488q0 -62 -45 -107.5t-106 -45.5t-106.5 45.5t-45.5 107.5t44.5 106t106.5 44t107 -44t45 -106zM723 1488q0 40 -26.5 67.5t-66.5 27.5t-67.5 -27.5t-27.5 -67.5t27.5 -67.5t67.5 -27.5t66.5 27.5t26.5 67.5z" />
    <glyph glyph-name="Uhungarumlaut" unicode="&#x170;" horiz-adv-x="1431" 
d="M768 1622q-39 18 -25 57l58 136q16 41 57 26q39 -18 25 -57l-58 -135q-16 -41 -57 -27zM610 1622q-39 18 -24 57l57 136q16 41 57 26q39 -18 25 -57l-57 -135q-17 -41 -58 -27zM193 1518v-959q0 -217 153.5 -370.5t370.5 -153.5t369.5 153.5t152.5 370.5v959
q0 14 10.5 24t24.5 10t24.5 -10t10.5 -24v-959q0 -246 -174 -420t-419 -174t-419 174t-174 420v959q0 14 10 24t24.5 10t25 -10t10.5 -24z" />
    <glyph glyph-name="uhungarumlaut" unicode="&#x171;" horiz-adv-x="1257" 
d="M1065 18v1149q0 14 10 24.5t24.5 10.5t25 -10t10.5 -25v-1149q0 -14 -10.5 -24t-25 -10t-24.5 10t-10 24zM606 -35q-197 0 -340 142.5t-143 345.5v714q0 14 10 24.5t24.5 10.5t25 -10t10.5 -25v-714q0 -174 122.5 -296t291.5 -122t300 110q31 18 49 -8t-8 -49
q-145 -123 -342 -123zM684 1331q-39 18 -25 58l58 135q16 41 57 26q39 -18 25 -57l-58 -135q-16 -41 -57 -27zM526 1331q-39 18 -24 58l57 135q16 41 57 26q39 -18 25 -57l-57 -135q-17 -41 -58 -27z" />
    <glyph glyph-name="Uogonek" unicode="&#x172;" horiz-adv-x="1431" 
d="M193 1518v-959q0 -217 153.5 -370.5t370.5 -153.5t369.5 153.5t152.5 370.5v959q0 14 10.5 24t24.5 10t24.5 -10t10.5 -24v-959q0 -184 -102.5 -333.5t-268.5 -217.5q-45 -18 -76 -61t-31 -104t45.5 -109.5t95.5 -48.5t72 12t34 12q11 0 21.5 -9.5t10.5 -27.5t-18 -28
q-45 -29 -122 -29t-143.5 70.5t-66.5 152.5t41 133q-43 -6 -84 -6q-246 0 -420 174t-174 420v959q0 14 10 24t24.5 10t25 -10t10.5 -24z" />
    <glyph glyph-name="uogonek" unicode="&#x173;" horiz-adv-x="1257" 
d="M606 -35q-197 0 -340 142.5t-143 345.5v714q0 14 10 24.5t24.5 10.5t25 -10t10.5 -25v-714q0 -174 122.5 -296t291.5 -122t300 110q31 18 49 -8t-8 -49q-145 -123 -342 -123zM1086 -315q52 0 74 12t33 12t21.5 -9.5t10.5 -27.5t-19 -28q-46 -29 -122 -29t-143 63.5
t-67 149.5t55.5 138t135.5 61v1140q0 14 10 24.5t24.5 10.5t25 -10t10.5 -25v-1149q0 -14 -10.5 -24t-24.5 -10q-63 0 -108.5 -43t-45.5 -106.5t44 -106.5t96 -43z" />
    <glyph glyph-name="Ydieresis" unicode="&#x178;" horiz-adv-x="1273" 
d="M527 852q-17 0 -27 18l-463 627q-6 11 -6 23t9.5 22t27.5 10t28 -18l463 -627q6 -10 6 -22t-10.5 -22.5t-27.5 -10.5zM602 18v723q0 18 12 35l564 758q10 18 27 18t27.5 -10t10.5 -22t-6 -23l-565 -762v-717q0 -14 -10.5 -24t-24.5 -10t-24.5 10t-10.5 24zM887 1712
q0 -20 -13.5 -34.5t-34 -14.5t-34.5 14.5t-14 35t14 34.5t35 14q47 0 47 -49zM483 1712.5q0 -20.5 -14 -35t-34.5 -14.5t-35 14.5t-14.5 35t14.5 34.5t35 14t34.5 -14t14 -34.5z" />
    <glyph glyph-name="Zacute" unicode="&#x179;" horiz-adv-x="1302" 
d="M1262 34.5q0 -14.5 -10.5 -24.5t-24.5 -10h-1149q-16 0 -26.5 10t-10.5 24t8 25l1108 1407h-1081q-14 0 -24.5 10.5t-10.5 25t10 24.5t25 10h1149q16 0 26.5 -10t10.5 -24t-9 -25l-1108 -1407h1082q14 0 24.5 -10.5t10.5 -25zM836 1728q0 -24 -31 -32l-301 -86
q-8 -2 -12 -2q-25 0 -25 24q0 16 20 25l283 112q34 14 50 -1.5t16 -39.5z" />
    <glyph glyph-name="zacute" unicode="&#x17a;" horiz-adv-x="1026" 
d="M985 34.5q0 -14.5 -10 -24.5t-25 -10h-860q-20 0 -34.5 14.5t-14.5 35t14 34.5l838 1032h-817q-14 0 -24.5 10.5t-10.5 24.5t10 24.5t25 10.5h860q20 0 34.5 -14.5t14.5 -35t-14 -34.5l-838 -1032h817q14 0 24.5 -10.5t10.5 -25zM696 1524q0 -22 -30 -33l-301 -86
q-8 -2 -13 -2q-25 0 -24 24q0 16 20 25l283 113q16 6 28 6t24.5 -12.5t12.5 -34.5z" />
    <glyph glyph-name="Zdotaccent" unicode="&#x17b;" horiz-adv-x="1302" 
d="M1262 34.5q0 -14.5 -10.5 -24.5t-24.5 -10h-1149q-16 0 -26.5 10t-10.5 24t8 25l1108 1407h-1081q-14 0 -24.5 10.5t-10.5 25t10 24.5t25 10h1149q16 0 26.5 -10t10.5 -24t-9 -25l-1108 -1407h1082q14 0 24.5 -10.5t10.5 -25zM741 1682q0 -36 -26.5 -62.5t-62.5 -26.5
t-62.5 26.5t-26.5 62.5t26.5 63t62.5 27t62.5 -27t26.5 -63z" />
    <glyph glyph-name="zdotaccent" unicode="&#x17c;" horiz-adv-x="1026" 
d="M985 34.5q0 -14.5 -10 -24.5t-25 -10h-860q-20 0 -34.5 14.5t-14.5 35t14 34.5l838 1032h-817q-14 0 -24.5 10.5t-10.5 24.5t10 24.5t25 10.5h860q20 0 34.5 -14.5t14.5 -35t-14 -34.5l-838 -1032h817q14 0 24.5 -10.5t10.5 -25zM602 1476q0 -36 -26.5 -63t-62.5 -27
t-62.5 27t-26.5 63t26.5 62.5t62.5 26.5t62.5 -26.5t26.5 -62.5z" />
    <glyph glyph-name="Zcaron" unicode="&#x17d;" horiz-adv-x="1302" 
d="M1262 34.5q0 -14.5 -10.5 -24.5t-24.5 -10h-1149q-16 0 -26.5 10t-10.5 24t8 25l1108 1407h-1081q-14 0 -24.5 10.5t-10.5 25t10 24.5t25 10h1149q16 0 26.5 -10t10.5 -24t-9 -25l-1108 -1407h1082q14 0 24.5 -10.5t10.5 -25zM831 1817q0 -6 -10 -21l-143 -176
q-10 -12 -26.5 -12t-26.5 12l-144 176q-10 14 -10 21q0 27 27 26q12 0 22 -12l131 -156l131 156q8 12 23 12q26 1 26 -26z" />
    <glyph glyph-name="zcaron" unicode="&#x17e;" horiz-adv-x="1026" 
d="M985 34.5q0 -14.5 -10 -24.5t-25 -10h-860q-20 0 -34.5 14.5t-14.5 35t14 34.5l838 1032h-817q-14 0 -24.5 10.5t-10.5 24.5t10 24.5t25 10.5h860q20 0 34.5 -14.5t14.5 -35t-14 -34.5l-838 -1032h817q14 0 24.5 -10.5t10.5 -25zM692 1599q0 -6 -10 -20l-143 -176
q-10 -12 -26.5 -12t-27.5 12l-143 176q-10 14 -10 20q0 27 26 27q14 0 23 -12l131 -156l131 156q8 12 23 12q26 0 26 -27z" />
    <glyph glyph-name="florin" unicode="&#x192;" horiz-adv-x="868" 
d="M256 1186h227l11 69q16 117 108 199t209 82q14 0 23.5 -10t7.5 -24.5t-14.5 -25t-26.5 -10.5q-86 0 -156 -61.5t-84 -149.5l-8 -69h227q14 0 23.5 -10.5t7.5 -24.5t-14.5 -24.5t-26.5 -10.5h-524q-14 0 -22.5 10.5t-6.5 24.5t13.5 24.5t25.5 10.5zM57 -350q-14 0 -23 10
t-7 24.5t14 24.5t27 10q86 2 156.5 63.5t80.5 147.5l148 1049q2 14 13 24.5t25.5 10.5t23.5 -10.5t7 -24.5l-145 -1049q-16 -117 -109.5 -198.5t-210.5 -81.5z" />
    <glyph glyph-name="circumflex" unicode="&#x2c6;" horiz-adv-x="770" 
d="M565 1417q0 -27 -26 -26q-14 0 -23 12l-131 156l-131 -156q-10 -12 -23 -12q-27 0 -26 26q0 6 10 21l143 176q8 12 26 12t28 -12l143 -176q10 -15 10 -21z" />
    <glyph glyph-name="caron" unicode="&#x2c7;" horiz-adv-x="770" 
d="M565 1599q0 -6 -10 -20l-143 -176q-10 -12 -26.5 -12t-27.5 12l-143 176q-10 14 -10 20q0 27 26 27q12 0 23 -12l131 -156l131 156q8 12 23 12q26 0 26 -27z" />
    <glyph glyph-name="breve" unicode="&#x2d8;" horiz-adv-x="614" 
d="M307 1454q88 0 125 82q12 33 37 33q16 0 26.5 -14.5t6.5 -32.5q-16 -61 -71.5 -98.5t-122.5 -37.5t-122 38t-73 98q-6 18 5 32.5t27 14.5q25 0 37 -33q37 -82 125 -82z" />
    <glyph glyph-name="dotaccent" unicode="&#x2d9;" horiz-adv-x="423" 
d="M301 1476q0 -36 -26.5 -63t-62.5 -27t-62.5 27t-26.5 63t26.5 62.5t62.5 26.5t62.5 -26.5t26.5 -62.5z" />
    <glyph glyph-name="ring" unicode="&#x2da;" horiz-adv-x="712" 
d="M508 1488q0 -62 -45 -107.5t-107 -45.5t-106.5 45.5t-44.5 107.5t45 106t106 44t106.5 -44t45.5 -106zM451 1488q0 40 -27 67.5t-67 27.5t-67.5 -27.5t-27.5 -67.5t27.5 -67.5t67.5 -27.5t67 27.5t27 67.5z" />
    <glyph glyph-name="ogonek" unicode="&#x2db;" horiz-adv-x="595" 
d="M335 -315q51 0 73 12t33 12t21.5 -9.5t10.5 -27.5t-18 -28q-45 -29 -122 -29t-143.5 66.5t-66.5 156.5t65.5 148.5t149.5 58.5h10v-45h-6q-59 -2 -103 -48t-44 -111t45 -110.5t95 -45.5z" />
    <glyph glyph-name="tilde" unicode="&#x2dc;" horiz-adv-x="866" 
d="M662 1524q0 -55 -39 -94t-93 -39q-86 0 -120 73q-23 49 -64 49t-64.5 -22.5t-23.5 -50.5t-26.5 -28.5t-26.5 26.5q0 55 40 94t91 39q80 0 121 -74q27 -51 67 -51t62 22.5t22 52.5t27 30t27 -27z" />
    <glyph glyph-name="hungarumlaut" unicode="&#x2dd;" horiz-adv-x="526" 
d="M297 1331q-39 18 -25 58l58 135q16 41 57 26q39 -18 25 -57l-58 -135q-16 -41 -57 -27zM139 1331q-39 18 -24 58l57 135q16 41 57 26q39 -18 25 -57l-57 -135q-17 -41 -58 -27z" />
    <glyph glyph-name="pi" unicode="&#x3c0;" horiz-adv-x="1308" 
d="M883 176v940h-455v-1116h-70v1116h-297v70h1186v-70h-295v-940q0 -66 46 -103.5t98 -37.5t80 12v-74q-41 -8 -62 -8q-98 0 -164.5 58.5t-66.5 152.5z" />
    <glyph glyph-name="endash" unicode="&#x2013;" horiz-adv-x="1196" 
d="M76 594q0 14 10 24.5t25 10.5h974q14 0 24.5 -10.5t10.5 -24.5t-10 -24.5t-25 -10.5h-974q-14 0 -24.5 10.5t-10.5 24.5z" />
    <glyph glyph-name="emdash" unicode="&#x2014;" horiz-adv-x="1720" 
d="M76 594q0 14 10 24.5t25 10.5h1499q14 0 24.5 -10.5t10.5 -24.5t-10.5 -24.5t-24.5 -10.5h-1499q-14 0 -24.5 10.5t-10.5 24.5z" />
    <glyph glyph-name="quoteleft" unicode="&#x2018;" horiz-adv-x="329" 
d="M222.5 1523.5q0.5 -26.5 -25.5 -26.5q-16 0 -29.5 -13.5t-13.5 -29.5v-100h10q27 0 45 -19.5t18 -45.5t-18.5 -44t-45 -18t-44 18.5t-17.5 42.5v168q0 39 28 66.5t60 27.5t32.5 -26.5z" />
    <glyph glyph-name="quoteright" unicode="&#x2019;" horiz-adv-x="329" 
d="M106 1253.5q0 26.5 27 26.5q16 0 29.5 13.5t13.5 29.5v100h-10q-27 0 -45.5 19.5t-18.5 45.5t18.5 44t45.5 18t44 -18.5t17 -42.5v-168q0 -39 -27.5 -66.5t-60.5 -27.5t-33 26.5z" />
    <glyph glyph-name="quotesinglbase" unicode="&#x201a;" horiz-adv-x="288" 
d="M106 -186.5q0 26.5 27 26.5q16 0 29.5 13.5t13.5 29.5v101h-10q-27 0 -45.5 19t-18.5 45t18.5 44.5t45.5 18.5t44 -18.5t17 -43.5v-168q0 -39 -27.5 -66.5t-60.5 -27.5t-33 26.5z" />
    <glyph glyph-name="quotedblleft" unicode="&#x201c;" horiz-adv-x="458" 
d="M392.5 1523.5q0.5 -26.5 -25.5 -26.5q-16 0 -29.5 -13.5t-13.5 -29.5v-100h10q27 0 45 -19.5t18 -45.5t-18.5 -44t-45 -18t-44 18.5t-17.5 42.5v168q0 39 28 66.5t60 27.5t32.5 -26.5zM222.5 1523.5q0.5 -26.5 -25.5 -26.5q-16 0 -29.5 -13.5t-13.5 -29.5v-100h10
q27 0 45 -19.5t18 -45.5t-18.5 -44t-45 -18t-44 18.5t-17.5 42.5v168q0 39 28 66.5t60 27.5t32.5 -26.5z" />
    <glyph glyph-name="quotedblright" unicode="&#x201d;" horiz-adv-x="458" 
d="M66 1253.5q0 26.5 26 26.5q16 0 29.5 13.5t13.5 29.5v100h-10q-27 0 -45.5 19.5t-18.5 45.5t18.5 44t45.5 18t44 -18.5t17 -42.5v-168q0 -39 -28 -66.5t-60 -27.5t-32 26.5zM236 1253.5q0 26.5 26 26.5q16 0 29.5 13.5t13.5 29.5v100h-10q-27 0 -45.5 19.5t-18.5 45.5
t18.5 44t45.5 18t44 -18.5t17 -42.5v-168q0 -39 -28 -66.5t-60 -27.5t-32 26.5z" />
    <glyph glyph-name="quotedblbase" unicode="&#x201e;" horiz-adv-x="458" 
d="M236 -186.5q0 26.5 26 26.5q16 0 29.5 13.5t13.5 29.5v101h-10q-27 0 -45.5 19t-18.5 45t18.5 44.5t45.5 18.5t44 -18.5t17 -43.5v-168q0 -39 -28 -66.5t-60 -27.5t-32 26.5zM66 -186.5q0 26.5 26 26.5q16 0 29.5 13.5t13.5 29.5v101h-10q-27 0 -45.5 19t-18.5 45
t18.5 44.5t45.5 18.5t44 -18.5t17 -43.5v-168q0 -39 -28 -66.5t-60 -27.5t-32 26.5z" />
    <glyph glyph-name="dagger" unicode="&#x2020;" horiz-adv-x="1105" 
d="M588 979v-1137q0 -14 -10.5 -24.5t-24.5 -10.5t-24.5 10.5t-10.5 24.5v1137q0 14 10.5 24.5t24.5 10.5t24.5 -10.5t10.5 -24.5zM965 1116h-824q-14 0 -24.5 10.5t-10.5 24.5t10.5 24.5t24.5 10.5h377v332q0 14 10.5 24t24.5 10t24.5 -10t10.5 -24v-332h377q14 0 24 -10.5
t10 -24.5t-10 -24.5t-24 -10.5z" />
    <glyph glyph-name="daggerdbl" unicode="&#x2021;" horiz-adv-x="1105" 
d="M141 244h824q14 0 24 -10.5t10 -24.5t-10 -24.5t-24 -10.5h-377v-332q0 -14 -10.5 -24.5t-24.5 -10.5t-24.5 10.5t-10.5 24.5v332h-377q-14 0 -24.5 10.5t-10.5 24.5t10.5 24.5t24.5 10.5zM588 979v-598q0 -14 -10.5 -24.5t-24.5 -10.5t-24.5 10.5t-10.5 24.5v598
q0 14 10.5 24.5t24.5 10.5t24.5 -10.5t10.5 -24.5zM965 1116h-824q-14 0 -24.5 10.5t-10.5 24.5t10.5 24.5t24.5 10.5h377v332q0 14 10.5 24t24.5 10t24.5 -10t10.5 -24v-332h377q14 0 24 -10.5t10 -24.5t-10 -24.5t-24 -10.5z" />
    <glyph glyph-name="bullet" unicode="&#x2022;" horiz-adv-x="690" 
d="M345 453q-58 0 -99 42t-41 99t42 98t99 41t98 -41t41 -98t-41 -99t-99 -42z" />
    <glyph glyph-name="ellipsis" unicode="&#x2026;" horiz-adv-x="1263" 
d="M632.5 -16q-26.5 0 -45 19t-18.5 45t18.5 44.5t45 18.5t44 -18.5t17.5 -45.5t-17.5 -45t-44 -18zM1130.5 -16q-26.5 0 -45 19t-18.5 45t18.5 44.5t45 18.5t44 -18.5t17.5 -45.5t-17.5 -45t-44 -18zM135.5 -16q-26.5 0 -45 19t-18.5 45t18.5 44.5t45 18.5t44 -18.5
t17.5 -45.5t-17.5 -45t-44 -18z" />
    <glyph glyph-name="perthousand" unicode="&#x2030;" horiz-adv-x="2267" 
d="M205 41l8 16l997 1479q12 20 37 16q33 -8 29 -41l-6 -12l-1000 -1483q-16 -18 -37 -16q-32 8 -28 41zM727 1218q0 118 -83 201.5t-202 83.5t-203.5 -84t-84.5 -200.5t85 -201.5t203 -85t201.5 84t83.5 202zM2114 318q0 118 -83 202t-202 84t-204 -84t-85 -200.5
t85 -201.5t204 -85t202 83.5t83 201.5zM1327 318q0 118 -83 202t-202 84t-203.5 -84t-84.5 -200.5t85 -201.5t203 -85t201.5 83.5t83.5 201.5zM2185 318q0 -144 -106.5 -248.5t-252 -104.5t-252 104.5t-106.5 248.5t106.5 249t252 105t252 -105t106.5 -249zM1399 318
q0 -144 -106.5 -248.5t-252 -104.5t-252 104.5t-106.5 248.5t106.5 249t252 105t252 -105t106.5 -249zM799 1218q0 -144 -106.5 -249t-252 -105t-252 105t-106.5 249t106.5 248.5t252 104.5t252 -104.5t106.5 -248.5z" />
    <glyph glyph-name="guilsinglleft" unicode="&#x2039;" horiz-adv-x="505" 
d="M80 559q-33 33 0 70l301 301q23 23 49 0q23 -27 0 -49l-287 -287l285 -287q27 -23 2 -47t-51 -2z" />
    <glyph glyph-name="guilsinglright" unicode="&#x203a;" horiz-adv-x="505" 
d="M426 559l-299 -301q-27 -23 -51 2t2 47l284 287l-286 287q-23 23 0 49q27 23 49 0l301 -301q33 -37 0 -70z" />
    <glyph glyph-name="fraction" unicode="&#x2044;" horiz-adv-x="907" 
d="M784 1536q0 -6 -2 -10l-626 -1530q-4 -12 -18 -12t-15 16q0 6 2 10l627 1530q4 12 18 12t14 -16z" />
    <glyph glyph-name="Euro" unicode="&#x20ac;" horiz-adv-x="1480" 
d="M434 907.5q0 14.5 10.5 24.5t24.5 10h772q14 0 24.5 -10t10.5 -24.5t-10.5 -25t-24.5 -10.5h-772q-14 0 -24.5 10.5t-10.5 25zM57 907.5q0 14.5 10.5 24.5t24.5 10h170q49 272 225.5 450.5t405.5 178.5q147 0 275 -77t221 -212q10 -16 10 -28t-10.5 -21.5t-27.5 -9.5
t-30 22q-82 121 -195.5 188.5t-242.5 67.5q-203 0 -359.5 -161.5t-201.5 -417.5q-8 -49 -49 -50h-191q-14 0 -24.5 10.5t-10.5 25zM434 628.5q0 14.5 10.5 25t24.5 10.5h598q14 0 24.5 -10.5t10.5 -25t-10.5 -24.5t-24.5 -10h-598q-14 0 -24.5 10t-10.5 24.5zM57 628.5
q0 14.5 10.5 25t24.5 10.5h191q41 0 49 -50q45 -256 201.5 -417.5t359.5 -161.5q129 0 242.5 67.5t195.5 188.5q11 23 29 23t28.5 -10.5t10.5 -21.5t-10 -28q-92 -135 -220.5 -212t-275.5 -77q-229 0 -405.5 178.5t-225.5 450.5h-170q-14 0 -24.5 10t-10.5 24.5z" />
    <glyph glyph-name="trademark" unicode="&#x2122;" horiz-adv-x="739" 
d="M324 1507h-107v-278h-29v278h-106v29h242v-29zM657 1536v-307h-28v241l-111 -241h-26l-113 241v-241h-29v307h29l125 -270l125 270h28z" />
    <glyph glyph-name="Omega" unicode="&#x2126;" horiz-adv-x="1769" 
d="M1688 768q0 -223 -110 -408.5t-296 -289.5h371v-70h-537v72q221 74 360.5 264t139.5 432q0 303 -213 517t-517 214t-518 -214t-214 -517q0 -242 140 -432.5t363 -263.5v-72h-540v70h372q-184 104 -295.5 290.5t-111.5 407.5q0 332 235.5 567.5t568.5 235.5t567.5 -235.5
t234.5 -567.5z" />
    <glyph glyph-name="partialdiff" unicode="&#x2202;" horiz-adv-x="1331" 
d="M1161 539q0 211 -145.5 357t-357.5 146t-358 -146t-146 -357t146 -357.5t358 -146.5t357.5 146.5t145.5 357.5zM662 -35q-253 0 -416.5 164t-163.5 409t162 409.5t393 164.5q397 0 537 -342l6 4q0 180 -35 313.5t-88 210t-132 123.5t-154 62.5t-159 15.5t-191.5 -24.5
t-176.5 -57.5v74q66 31 164 54.5t196 23.5t187.5 -17.5t181.5 -75t151.5 -153.5t94 -263t28.5 -396q-8 -340 -170 -519.5t-415 -179.5z" />
    <glyph glyph-name="Delta" unicode="&#x2206;" horiz-adv-x="1210" 
d="M139 70h932l-467 1353zM41 0l528 1536h72l528 -1536h-1128z" />
    <glyph glyph-name="product" unicode="&#x220f;" horiz-adv-x="1267" 
d="M1227 1466h-295v-1466h-70v1466h-454v-1466h-70v1466h-297v70h1186v-70z" />
    <glyph glyph-name="summation" unicode="&#x2211;" horiz-adv-x="1128" 
d="M1087 70v-70h-1046v70l700 698l-700 696v72h1046v-70h-948l701 -698l-701 -698h948z" />
    <glyph glyph-name="minus" unicode="&#x2212;" horiz-adv-x="1390" 
d="M1272 559h-1151q-14 0 -24.5 10.5t-10.5 24.5t10 24.5t25 10.5h1151q14 0 24.5 -10.5t10.5 -24.5t-10.5 -24.5t-24.5 -10.5z" />
    <glyph glyph-name="radical" unicode="&#x221a;" horiz-adv-x="917" 
d="M209 547l172 -445l401 1434h74l-430 -1536h-80l-184 457l-39 -95l-62 29l66 156h82z" />
    <glyph glyph-name="infinity" unicode="&#x221e;" horiz-adv-x="1421" 
d="M174 593q0 -97 71 -159.5t155 -62.5t142 47t134 172q-76 127 -135 176t-141 49t-154 -62.5t-72 -159.5zM1247 593q0 97 -71.5 159.5t-154.5 62.5t-141.5 -49t-134.5 -176q76 -125 134.5 -172t141.5 -47t154.5 62.5t71.5 159.5zM1004 885q129 0 222 -84t93 -208t-93 -208
t-222 -84q-160 0 -293 203q-133 -203 -293 -203q-129 0 -222.5 84t-93.5 208t93.5 208t222.5 84q162 0 293 -209q131 209 293 209z" />
    <glyph glyph-name="integral" unicode="&#x222b;" horiz-adv-x="583" 
d="M330 -111q0 -113 -80 -176t-201 -63h-18v69h18q92 0 152.5 44t58.5 126v1407q0 113 79 176.5t200 63.5h14v-70h-14q-90 0 -148.5 -43t-60.5 -127v-1407z" />
    <glyph glyph-name="approxequal" unicode="&#x2248;" horiz-adv-x="1392" 
d="M102 735v70q300 100 432 70.5t181 -78.5t171 -75t363 64l41 19v-70q-39 -20 -138 -44.5t-173 -31t-160 13t-138 69.5t-174.5 76t-363.5 -64zM102 387v68q177 59 287.5 68t193.5 -8t132 -66.5t127 -66.5t192 -1.5t215 57.5l41 17v-68q-41 -21 -139 -46.5t-172 -30.5
t-160 14.5t-138 69.5t-174.5 76t-363.5 -64z" />
    <glyph glyph-name="notequal" unicode="&#x2260;" horiz-adv-x="1390" 
d="M121 385q-14 0 -24.5 10.5t-10.5 24.5t10 24.5t25 10.5h385l278 278h-663q-14 0 -24.5 10.5t-10.5 24.5t10 24.5t25 10.5h733l223 221q8 10 24.5 10t24.5 -10q23 -23 0 -49l-172 -172h316q14 0 24.5 -10.5t10.5 -24.5t-10.5 -24.5t-24.5 -10.5h-385l-281 -278h666
q14 0 24.5 -10.5t10.5 -24.5t-10.5 -24.5t-24.5 -10.5h-735l-222 -221q-10 -10 -24.5 -10t-24.5 10q-23 23 0 49l172 172h-315z" />
    <glyph glyph-name="lessequal" unicode="&#x2264;" horiz-adv-x="864" 
d="M66 34.5q0 14.5 10 25t24 10.5h664q14 0 24.5 -10.5t10.5 -25t-10.5 -24.5t-24.5 -10h-664q-14 0 -24 10t-10 24.5zM66 796.5q0 32.5 32 47.5l643 350q17 8 27 8t20.5 -10t10.5 -28t-19 -27l-622 -340l622 -340q18 -9 18 -27t-10 -28.5t-20 -10.5t-27 8l-643 351
q-32 14 -32 46.5z" />
    <glyph glyph-name="greaterequal" unicode="&#x2265;" horiz-adv-x="864" 
d="M799 34.5q0 -14.5 -10.5 -24.5t-24.5 -10h-664q-14 0 -24 10t-10 24.5t10 25t24 10.5h664q14 0 24.5 -10.5t10.5 -25zM799 796.5q0 -32.5 -33 -46.5l-643 -351q-17 -8 -27 -8t-20 10.5t-10 27.5t18 28l623 340l-623 340q-18 10 -18 27t10 27.5t20 10.5t27 -8l643 -350
q33 -15 33 -47.5z" />
    <glyph glyph-name="lozenge" unicode="&#x25ca;" horiz-adv-x="1142" 
d="M164 768l409 -690l406 690l-406 690zM606 0h-69l-455 768l455 768h69l455 -768z" />
    <glyph glyph-name="uniF8FF" unicode="&#xf8ff;" horiz-adv-x="1024" 
 />
    <glyph glyph-name="fi" unicode="&#xfb01;" horiz-adv-x="997" 
d="M791 1521.5q0 20.5 14 35t34.5 14.5t35 -14.5t14.5 -35t-14.5 -34.5t-35 -14t-34.5 14t-14 34.5zM215 1014q14 0 24.5 -10.5t10.5 -24.5v-961q0 -14 -10.5 -24t-24.5 -10t-24.5 10t-10.5 24v961q0 14 10.5 24.5t24.5 10.5zM25 1151q0 14 10 24.5t24 10.5h121v125
q0 106 76 183t182 77t185 -74q12 -9 12 -25t-10.5 -26t-25.5 -10t-26 10q-57 57 -134 57t-133 -56t-56 -136v-125h575q20 0 34.5 -14.5t14.5 -34.5v-1119q0 -14 -10 -24t-24.5 -10t-24.5 10t-10 24v1098h-746q-14 0 -24 10.5t-10 24.5z" />
    <glyph glyph-name="fl" unicode="&#xfb02;" horiz-adv-x="997" 
d="M215 1014q14 0 24.5 -10.5t10.5 -24.5v-961q0 -14 -10.5 -24t-24.5 -10t-24.5 10t-10.5 24v961q0 14 10.5 24.5t24.5 10.5zM180 1276q0 109 76 184.5t184 75.5h385q20 0 34.5 -14.5t14.5 -34.5v-1469q0 -14 -10 -24t-24.5 -10t-24.5 10t-10 24v1450h-365q-78 0 -134 -56
t-56 -136v-90h280q14 0 24.5 -10.5t10.5 -24.5t-10 -24.5t-25 -10.5h-471q-14 0 -24 10.5t-10 24.5t10 24.5t24 10.5h121v90z" />
    <glyph glyph-name="ffi" unicode="&#xfb03;" horiz-adv-x="1624" 
d="M1417 1521.5q0 20.5 14.5 35t35 14.5t35 -14.5t14.5 -35t-14.5 -34.5t-35 -14t-35 14t-14.5 34.5zM841.5 1014q14.5 0 25 -10.5t10.5 -24.5v-961q0 -14 -10.5 -24t-25 -10t-24.5 10t-10 24v961q0 14 10 24.5t24.5 10.5zM215 1014q14 0 24.5 -10.5t10.5 -24.5v-961
q0 -14 -10.5 -24t-24.5 -10t-24.5 10t-10.5 24v961q0 14 10.5 24.5t24.5 10.5zM25 1151q0 14 10 24.5t24 10.5h121v125q0 106 76 183t182 77t185 -74q12 -9 12 -25t-10.5 -26t-25.5 -10t-26 10q-57 57 -134 57t-133 -56t-56 -136v-125h557v125q0 106 75.5 183t181.5 77
t185 -74q13 -9 13 -25t-10.5 -26t-25.5 -10t-26 10q-57 57 -134 57t-133 -56t-56 -136v-125h575q20 0 34.5 -14.5t14.5 -34.5v-1119q0 -14 -10 -24t-24.5 -10t-24.5 10t-10 24v1098h-1373q-14 0 -24 10.5t-10 24.5z" />
    <glyph glyph-name="ffl" unicode="&#xfb04;" horiz-adv-x="1626" 
d="M843.5 1014q14.5 0 25 -10.5t10.5 -24.5v-961q0 -14 -10.5 -24t-25 -10t-24.5 10t-10 24v961q0 14 10 24.5t24.5 10.5zM215 1014q14 0 24.5 -10.5t10.5 -24.5v-961q0 -14 -10.5 -24t-24.5 -10t-24.5 10t-10.5 24v961q0 14 10.5 24.5t24.5 10.5zM25 1151q0 14 10 24.5
t24 10.5h121v125q0 106 76 183t182 77t185 -74q12 -9 12 -25t-10.5 -26t-25.5 -10t-26 10q-57 57 -134 57t-133 -56t-56 -136v-125h559v90q0 109 77 184.5t183 75.5h385q20 0 34.5 -14.5t14.5 -34.5v-1469q0 -14 -10 -24t-24.5 -10t-24.5 10t-10 24v1450h-365
q-78 0 -134 -56t-56 -136v-90h280q14 0 24.5 -10.5t10.5 -24.5t-10 -24.5t-25 -10.5h-1100q-14 0 -24 10.5t-10 24.5z" />
    <glyph glyph-name="Publisher" horiz-adv-x="1419" 
d="M979 735.5q0 71.5 -51 122.5t-123 51h-262v-350h262q72 0 123 52.5t51 124zM473 944q0 14 10.5 24.5t24.5 10.5h297q100 0 172 -71.5t72 -172t-72 -172t-172 -71.5h-262v-254q0 -14 -10.5 -24.5t-24.5 -10.5t-24.5 10t-10.5 25v706zM1278 593q0 237 -166 402.5
t-401 165.5t-402.5 -166t-167.5 -401.5t167 -402t403 -166.5t401.5 165.5t165.5 402.5zM1337 593q0 -261 -183 -444.5t-444 -183.5t-444.5 184.5t-183.5 444.5t183.5 443.5t443.5 183.5t444 -183.5t184 -444.5z" />
    <glyph glyph-name="tt" horiz-adv-x="1226" 
d="M250 979v-700q0 -88 60.5 -148.5t148.5 -60.5h88q14 0 24.5 -10.5t10.5 -25t-10.5 -24.5t-24.5 -10h-88q-115 0 -197 81t-82 195v703q0 14 10.5 24.5t24.5 10.5t24.5 -10.5t10.5 -24.5zM870 979v-700q0 -88 60.5 -148.5t148.5 -60.5h88q14 0 24.5 -10.5t10.5 -25
t-10 -24.5t-25 -10h-88q-115 0 -196.5 81t-81.5 195v703q0 14 10 24.5t24.5 10.5t24.5 -10.5t10 -24.5zM25 1151q0 14 10 24.5t24 10.5h121v250q0 14 10.5 24t24.5 10t24.5 -10t10.5 -24v-250h551v250q0 14 10 24t24.5 10t24.5 -10t10 -24v-250h297q14 0 24.5 -10.5
t10.5 -24.5t-10 -24.5t-25 -10.5h-1108q-14 0 -24 10.5t-10 24.5z" />
    <glyph glyph-name="ft" horiz-adv-x="1226" 
d="M215 1014q14 0 24.5 -10.5t10.5 -24.5v-961q0 -14 -10.5 -24t-24.5 -10t-24.5 10t-10.5 24v961q0 14 10.5 24.5t24.5 10.5zM870 979v-700q0 -88 60.5 -148.5t148.5 -60.5h88q14 0 24.5 -10.5t10.5 -25t-10 -24.5t-25 -10h-88q-115 0 -196.5 81t-81.5 195v703
q0 14 10 24.5t24.5 10.5t24.5 -10.5t10 -24.5zM25 1151q0 14 10 24.5t24 10.5h121v125q0 106 76 183t182 77t185 -74q12 -9 12 -25t-10.5 -26t-25.5 -10t-26 10q-57 57 -134 57t-133 -56t-56 -136v-125h551v250q0 14 10 24t24.5 10t24.5 -10t10 -24v-250h297
q14 0 24.5 -10.5t10.5 -24.5t-10 -24.5t-25 -10.5h-1108q-14 0 -24 10.5t-10 24.5z" />
    <glyph glyph-name="_0000" horiz-adv-x="1026" 
 />
    </font>
</defs>
</svg>
