<?xml version="1.0" encoding="utf-8"?>
<!-- Generator: Adobe Illustrator 19.0.0, SVG Export Plug-In . SVG Version: 6.00 Build 0)  -->
<svg version="1.1" id="Layer_1" xmlns="http://www.w3.org/2000/svg" xmlns:xlink="http://www.w3.org/1999/xlink" x="0px" y="0px"
	 viewBox="-445 1431.7 547.6 138.3" style="enable-background:new -445 1431.7 547.6 138.3;" xml:space="preserve">
<style type="text/css">
	.st0{fill:#72BE44;}
	.st1{fill:#2483C5;}
	.st2{fill:#EC125F;}
	.st3{fill:#F9A51A;}
	.st4{fill:#3B1938;}
	.st5{fill:#454600;}
	.st6{fill:#2B4C1D;}
	.st7{fill:#602110;}
	.st8{fill:#6E6901;}
	.st9{fill:#9E1F01;}
</style>
<g id="XMLID_182_">
	<g id="XMLID_2_">
		<path id="XMLID_328_" class="st0" d="M-191.3,1567.4c-1.8,0-3.2-1.4-3.2-3.2v-20.6c0-1.8,1.4-3.2,3.2-3.2c1.8,0,3.2,1.4,3.2,3.2
			v20.6C-188.1,1566-189.6,1567.4-191.3,1567.4z"/>
	</g>
	<g id="XMLID_3_">
		<g id="XMLID_327_">
			<path id="XMLID_306_" class="st0" d="M-191.3,1546.9c-1.8,0-3.2-1.4-3.2-3.2v-20.6c0-1.8,1.4-3.2,3.2-3.2c1.8,0,3.2,1.4,3.2,3.2
				v20.6C-188.1,1545.5-189.6,1546.9-191.3,1546.9z"/>
		</g>
	</g>
	<g id="XMLID_4_">
		<g id="XMLID_326_">
			<path id="XMLID_304_" class="st0" d="M-154.6,1480.9c0.4,0,0.9-0.1,1.3-0.3c1.6-0.7,2.3-2.6,1.6-4.3l-18.6-41.1
				c-0.8-1.6-2.7-2.3-4.3-1.6c-1.6,0.7-2.3,2.6-1.6,4.3l18.7,41.1C-157,1480.2-155.8,1480.9-154.6,1480.9z"/>
		</g>
	</g>
	<g id="XMLID_5_">
		<g id="XMLID_325_">
			<path id="XMLID_302_" class="st1" d="M-441.4,1480.9c-1.8,0-3.2-1.4-3.2-3.2v-41.2c0-1.8,1.4-3.2,3.2-3.2c1.8,0,3.2,1.4,3.2,3.2
				v41.1C-438.2,1479.4-439.7,1480.9-441.4,1480.9z"/>
		</g>
	</g>
	<g id="XMLID_6_">
		<g id="XMLID_324_">
			<path id="XMLID_300_" class="st2" d="M-235.7,1460.3h-40.6c-1.8,0-3.2-1.4-3.2-3.2c0-1.8,1.4-3.2,3.2-3.2h40.6
				c1.8,0,3.2,1.4,3.2,3.2S-233.9,1460.3-235.7,1460.3z"/>
		</g>
	</g>
	<g id="XMLID_7_">
		<g id="XMLID_323_">
			<path id="XMLID_297_" class="st2" d="M-235.7,1480.9c-1.8,0-3.2-1.4-3.2-3.2v-20.6c0-1.8,1.4-3.2,3.2-3.2c1.8,0,3.2,1.4,3.2,3.2
				v20.5C-232.4,1479.4-233.9,1480.9-235.7,1480.9z"/>
		</g>
	</g>
	<g id="XMLID_8_">
		<g id="XMLID_322_">
			<path id="XMLID_293_" class="st2" d="M-276.2,1460.3c-1.8,0-3.2-1.4-3.2-3.2v-20.6c0-1.8,1.4-3.2,3.2-3.2c1.8,0,3.2,1.4,3.2,3.2
				v20.6C-273,1458.9-274.5,1460.3-276.2,1460.3z"/>
		</g>
	</g>
	<g id="XMLID_9_">
		<g id="XMLID_321_">
			<path id="XMLID_289_" class="st3" d="M-235.6,1568.3c-0.9,0-1.8-0.4-2.4-1.1l-123.5-128.5c-1.2-1.3-1.1-3.4,0.2-4.6
				c1.3-1.1,3.3-1,4.5,0.3l123.5,128.5c1.2,1.3,1.1,3.4-0.2,4.6C-234.1,1568-234.8,1568.3-235.6,1568.3z"/>
		</g>
	</g>
	<g id="XMLID_10_">
		<g id="XMLID_320_">
			<path id="XMLID_285_" class="st3" d="M-70.6,1481.3c-0.9,0-1.8-0.4-2.4-1.1l-40-41.5c-1.2-1.3-1.1-3.4,0.2-4.6
				c1.3-1.2,3.4-1.1,4.6,0.2l40,41.6c1.2,1.3,1.1,3.4-0.2,4.6C-69.1,1481.1-69.9,1481.3-70.6,1481.3z"/>
		</g>
	</g>
	<g id="XMLID_11_">
		<g id="XMLID_319_">
			<path id="XMLID_281_" class="st1" d="M62.1,1480.9c-1.8,0-3.2-1.4-3.2-3.2v-41.2c0-1.8,1.4-3.2,3.2-3.2s3.2,1.4,3.2,3.2v41.1
				C65.3,1479.4,63.9,1480.9,62.1,1480.9z"/>
		</g>
	</g>
	<g>
		<g id="XMLID_13_">
			<g id="XMLID_318_">
				<path id="XMLID_212_" class="st2" d="M-404.2,1439.8h-37.2c-1.8,0-3.2-1.4-3.2-3.2c0-1.8,1.4-3.2,3.2-3.2h37.3
					c1.8,0,3.2,1.4,3.2,3.2C-400.9,1438.4-402.4,1439.8-404.2,1439.8z"/>
			</g>
		</g>
		<g id="XMLID_14_">
			<g id="XMLID_317_">
				<path id="XMLID_211_" class="st3" d="M-404.2,1460.3h-37.2c-1.8,0-3.2-1.4-3.2-3.2c0-1.8,1.4-3.2,3.2-3.2h37.3
					c1.8,0,3.2,1.4,3.2,3.2C-400.9,1458.9-402.4,1460.3-404.2,1460.3z"/>
			</g>
		</g>
		<g id="XMLID_15_">
			<g id="XMLID_316_">
				<path id="XMLID_269_" class="st0" d="M-404.2,1480.9h-37.2c-1.8,0-3.2-1.4-3.2-3.2c0-1.8,1.4-3.2,3.2-3.2h37.3
					c1.8,0,3.2,1.4,3.2,3.2C-400.9,1479.5-402.4,1480.9-404.2,1480.9z"/>
			</g>
		</g>
		<g id="XMLID_16_">
			<g id="XMLID_315_">
				<path id="XMLID_265_" class="st2" d="M-154,1526.3h-37.4c-1.8,0-3.2-1.4-3.2-3.2c0-1.8,1.4-3.2,3.2-3.2h37.4
					c1.8,0,3.2,1.4,3.2,3.2S-152.2,1526.3-154,1526.3z"/>
			</g>
		</g>
		<g id="XMLID_17_">
			<g id="XMLID_314_">
				<path id="XMLID_261_" class="st3" d="M-154,1546.9h-37.4c-1.8,0-3.2-1.4-3.2-3.2c0-1.8,1.4-3.2,3.2-3.2h37.4
					c1.8,0,3.2,1.4,3.2,3.2S-152.2,1546.9-154,1546.9z"/>
			</g>
		</g>
		<g id="XMLID_18_">
			<g id="XMLID_313_">
				<path id="XMLID_257_" class="st2" d="M-159.3,1470.6h-27.8c-1.8,0-3.2-1.4-3.2-3.2c0-1.8,1.4-3.2,3.2-3.2h27.8
					c1.8,0,3.2,1.4,3.2,3.2S-157.5,1470.6-159.3,1470.6z"/>
			</g>
		</g>
		<g id="XMLID_19_">
			<g id="XMLID_312_">
				<path id="XMLID_253_" class="st1" d="M-192,1480.9c-0.4,0-0.9-0.1-1.3-0.3c-1.6-0.7-2.3-2.6-1.6-4.3l18.7-41.1
					c0.7-1.6,2.6-2.3,4.3-1.6c1.6,0.7,2.3,2.6,1.6,4.3L-189,1479C-189.6,1480.2-190.7,1480.9-192,1480.9z"/>
			</g>
		</g>
		<g id="XMLID_20_">
			<g id="XMLID_311_">
				<path id="XMLID_249_" class="st1" d="M12.9,1444.6c-0.8,0-1.7-0.3-2.3-0.9c-7.4-7.4-19.5-7.4-26.9,0c-1.3,1.3-3.3,1.3-4.6,0
					c-1.3-1.3-1.3-3.3,0-4.6c9.9-9.9,26.1-9.9,36.1,0c1.3,1.3,1.3,3.3,0,4.6C14.6,1444.3,13.8,1444.6,12.9,1444.6z"/>
			</g>
		</g>
		<g id="XMLID_21_">
			<g id="XMLID_310_">
				<path id="XMLID_247_" class="st3" d="M-18.6,1476.1c-0.8,0-1.7-0.3-2.3-0.9c-9.9-9.9-9.9-26.1,0-36.1c1.3-1.3,3.3-1.3,4.6,0
					s1.3,3.3,0,4.6c-7.4,7.4-7.4,19.5,0,26.9c1.3,1.3,1.3,3.3,0,4.6C-16.9,1475.7-17.7,1476.1-18.6,1476.1z"/>
			</g>
		</g>
		<g id="XMLID_22_">
			<g id="XMLID_309_">
				<path id="XMLID_243_" class="st2" d="M-2.8,1482.6c-6.8,0-13.2-2.7-18-7.5c-1.3-1.3-1.3-3.3,0-4.6c1.3-1.3,3.3-1.3,4.6,0
					c3.6,3.6,8.4,5.6,13.5,5.6s9.9-2,13.5-5.6c1.3-1.3,3.3-1.3,4.6,0s1.3,3.3,0,4.6C10.4,1479.9,4,1482.6-2.8,1482.6z"/>
			</g>
		</g>
		<g id="XMLID_23_">
			<g id="XMLID_308_">
				<path id="XMLID_240_" class="st1" d="M-403.8,1532c-0.8,0-1.7-0.3-2.3-0.9c-7.4-7.5-19.4-7.5-26.9,0c-1.3,1.3-3.3,1.3-4.6,0
					c-1.3-1.3-1.3-3.3,0-4.6c9.9-9.9,26.1-9.9,36.1,0c1.3,1.3,1.3,3.3,0,4.6C-402.1,1531.7-402.9,1532-403.8,1532z"/>
			</g>
		</g>
		<g id="XMLID_24_">
			<g id="XMLID_307_">
				<path id="XMLID_237_" class="st3" d="M-435.2,1563.5c-0.8,0-1.7-0.3-2.3-0.9c-4.8-4.8-7.5-11.2-7.5-18s2.7-13.2,7.5-18
					c1.3-1.3,3.3-1.3,4.6,0c1.3,1.3,1.3,3.3,0,4.6c-3.6,3.6-5.6,8.4-5.6,13.5s2,9.9,5.6,13.5c1.3,1.3,1.3,3.3,0,4.6
					C-433.6,1563.2-434.4,1563.5-435.2,1563.5z"/>
			</g>
		</g>
		<g id="XMLID_25_">
			<g id="XMLID_305_">
				<path id="XMLID_235_" class="st2" d="M-419.5,1570c-6.5,0-13.1-2.5-18-7.5c-1.3-1.3-1.3-3.3,0-4.6c1.3-1.3,3.3-1.3,4.6,0
					c7.4,7.4,19.5,7.4,26.9,0c1.3-1.3,3.3-1.3,4.6,0c1.3,1.3,1.3,3.3,0,4.6C-406.4,1567.5-413,1570-419.5,1570z"/>
			</g>
		</g>
		<g id="XMLID_26_">
			<g id="XMLID_303_">
				<path id="XMLID_330_" class="st0" d="M-318.2,1547.7c-1.8,0-3.2-1.4-3.2-3.2c0-10.5-8.5-19-19-19c-1.8,0-3.2-1.4-3.2-3.2
					s1.4-3.2,3.2-3.2c14.1,0,25.5,11.4,25.5,25.5C-315,1546.3-316.4,1547.7-318.2,1547.7z"/>
			</g>
		</g>
		<g id="XMLID_27_">
			<g id="XMLID_301_">
				<path id="XMLID_332_" class="st2" d="M-362.7,1547.7c-1.8,0-3.2-1.4-3.2-3.2c0-14.1,11.4-25.5,25.5-25.5c1.8,0,3.2,1.4,3.2,3.2
					c0,1.8-1.4,3.2-3.2,3.2c-10.5,0-19,8.5-19,19C-359.5,1546.3-361,1547.7-362.7,1547.7z"/>
			</g>
		</g>
		<g id="XMLID_28_">
			<g id="XMLID_299_">
				<path id="XMLID_334_" class="st1" d="M-340.5,1570c-14,0-25.5-11.4-25.5-25.5c0-1.8,1.4-3.2,3.2-3.2c1.8,0,3.2,1.4,3.2,3.2
					c0,10.5,8.5,19,19,19c1.8,0,3.2,1.4,3.2,3.2C-337.2,1568.6-338.7,1570-340.5,1570z"/>
			</g>
		</g>
		<g id="XMLID_29_">
			<g id="XMLID_268_">
				<path id="XMLID_335_" class="st3" d="M-340.5,1570c-1.8,0-3.2-1.4-3.2-3.2s1.4-3.2,3.2-3.2c10.5,0,19-8.5,19-19
					c0-1.8,1.4-3.2,3.2-3.2c1.8,0,3.2,1.4,3.2,3.2C-315,1558.6-326.4,1570-340.5,1570z"/>
			</g>
		</g>
		<g id="XMLID_30_">
			<g id="XMLID_264_">
				<path id="XMLID_336_" class="st0" d="M-70.7,1481.3c-1.8,0-3.2-1.4-3.2-3.2v-41.6c0-1.8,1.4-3.2,3.2-3.2c1.8,0,3.2,1.4,3.2,3.2
					v41.6C-67.4,1479.9-68.9,1481.3-70.7,1481.3z"/>
			</g>
		</g>
		<g id="XMLID_31_">
			<g id="XMLID_256_">
				<path id="XMLID_337_" class="st2" d="M-110.6,1481.3c-1.8,0-3.2-1.4-3.2-3.2v-41.6c0-1.8,1.4-3.2,3.2-3.2c1.8,0,3.2,1.4,3.2,3.2
					v41.6C-107.4,1479.9-108.8,1481.3-110.6,1481.3z"/>
			</g>
		</g>
		<g id="XMLID_32_">
			<g id="XMLID_198_">
				<path id="XMLID_338_" class="st2" d="M99.4,1439.8H62.1c-1.8,0-3.2-1.4-3.2-3.2c0-1.8,1.4-3.2,3.2-3.2h37.3
					c1.8,0,3.2,1.4,3.2,3.2C102.6,1438.4,101.2,1439.8,99.4,1439.8z"/>
			</g>
		</g>
		<g id="XMLID_33_">
			<g id="XMLID_197_">
				<path id="XMLID_339_" class="st3" d="M99.4,1460.3H62.1c-1.8,0-3.2-1.4-3.2-3.2c0-1.8,1.4-3.2,3.2-3.2h37.3
					c1.8,0,3.2,1.4,3.2,3.2C102.6,1458.9,101.2,1460.3,99.4,1460.3z"/>
			</g>
		</g>
		<g id="XMLID_34_">
			<g id="XMLID_196_">
				<path id="XMLID_340_" class="st0" d="M99.4,1480.9H62.1c-1.8,0-3.2-1.4-3.2-3.2c0-1.8,1.4-3.2,3.2-3.2h37.3
					c1.8,0,3.2,1.4,3.2,3.2C102.6,1479.5,101.2,1480.9,99.4,1480.9z"/>
			</g>
		</g>
		<g id="XMLID_35_">
			<g id="XMLID_195_">
				<path id="XMLID_341_" class="st0" d="M-235.7,1568.3c-1.8,0-3.2-1.4-3.2-3.2v-42c0-1.8,1.4-3.2,3.2-3.2c1.8,0,3.2,1.4,3.2,3.2
					v42C-232.4,1566.9-233.9,1568.3-235.7,1568.3z"/>
			</g>
		</g>
		<g id="XMLID_36_">
			<g id="XMLID_194_">
				<path id="XMLID_342_" class="st0" d="M-319.2,1481.3c-1.8,0-3.2-1.4-3.2-3.2v-41.6c0-1.8,1.4-3.2,3.2-3.2c1.8,0,3.2,1.4,3.2,3.2
					v41.6C-316,1479.9-317.4,1481.3-319.2,1481.3z"/>
			</g>
		</g>
		<g id="XMLID_37_">
			<g id="XMLID_191_">
				<path id="XMLID_343_" class="st2" d="M-359.1,1481.3c-1.8,0-3.2-1.4-3.2-3.2v-41.6c0-1.8,1.4-3.2,3.2-3.2c1.8,0,3.2,1.4,3.2,3.2
					v41.6C-355.9,1479.9-357.4,1481.3-359.1,1481.3z"/>
			</g>
		</g>
		<g id="XMLID_38_">
			<g id="XMLID_190_">
				<path id="XMLID_344_" class="st2" d="M-276.2,1567.4c-1.8,0-3.2-1.4-3.2-3.2v-41.1c0-1.8,1.4-3.2,3.2-3.2c1.8,0,3.2,1.4,3.2,3.2
					v41.1C-273,1566-274.5,1567.4-276.2,1567.4z"/>
			</g>
		</g>
		<g id="XMLID_39_">
			<g id="XMLID_189_">
				<path id="XMLID_345_" class="st0" d="M-235.7,1460.3c-1.8,0-3.2-1.4-3.2-3.2v-20.6c0-1.8,1.4-3.2,3.2-3.2c1.8,0,3.2,1.4,3.2,3.2
					v20.6C-232.4,1458.9-233.9,1460.3-235.7,1460.3z"/>
			</g>
		</g>
		<g id="XMLID_40_">
			<g id="XMLID_183_">
				<path id="XMLID_346_" class="st1" d="M-276.2,1480.9c-1.8,0-3.2-1.4-3.2-3.2v-20.6c0-1.8,1.4-3.2,3.2-3.2c1.8,0,3.2,1.4,3.2,3.2
					v20.5C-273,1479.4-274.5,1480.9-276.2,1480.9z"/>
			</g>
		</g>
	</g>
</g>
<g id="XMLID_87_">
	<g id="XMLID_248_">
		<path id="XMLID_250_" class="st0" d="M-191.3,1567.4c-1.8,0-3.2-1.4-3.2-3.2v-20.6c0-1.8,1.4-3.2,3.2-3.2c1.8,0,3.2,1.4,3.2,3.2
			v20.6C-188.1,1566-189.6,1567.4-191.3,1567.4z"/>
	</g>
	<g id="XMLID_244_">
		<g id="XMLID_245_">
			<path id="XMLID_246_" class="st0" d="M-191.3,1546.9c-1.8,0-3.2-1.4-3.2-3.2v-20.6c0-1.8,1.4-3.2,3.2-3.2c1.8,0,3.2,1.4,3.2,3.2
				v20.6C-188.1,1545.5-189.6,1546.9-191.3,1546.9z"/>
		</g>
	</g>
	<g id="XMLID_239_">
		<g id="XMLID_241_">
			<path id="XMLID_242_" class="st0" d="M-154.6,1480.9c0.4,0,0.9-0.1,1.3-0.3c1.6-0.7,2.3-2.6,1.6-4.3l-18.6-41.1
				c-0.8-1.6-2.7-2.3-4.3-1.6c-1.6,0.7-2.3,2.6-1.6,4.3l18.7,41.1C-157,1480.2-155.8,1480.9-154.6,1480.9z"/>
		</g>
	</g>
	<g id="XMLID_234_">
		<g id="XMLID_236_">
			<path id="XMLID_238_" class="st1" d="M-441.4,1480.9c-1.8,0-3.2-1.4-3.2-3.2v-41.2c0-1.8,1.4-3.2,3.2-3.2c1.8,0,3.2,1.4,3.2,3.2
				v41.1C-438.2,1479.4-439.7,1480.9-441.4,1480.9z"/>
		</g>
	</g>
	<g id="XMLID_231_">
		<g id="XMLID_232_">
			<path id="XMLID_233_" class="st2" d="M-235.7,1460.3h-40.6c-1.8,0-3.2-1.4-3.2-3.2c0-1.8,1.4-3.2,3.2-3.2h40.6
				c1.8,0,3.2,1.4,3.2,3.2S-233.9,1460.3-235.7,1460.3z"/>
		</g>
	</g>
	<g id="XMLID_228_">
		<g id="XMLID_229_">
			<path id="XMLID_230_" class="st2" d="M-235.7,1480.9c-1.8,0-3.2-1.4-3.2-3.2v-20.6c0-1.8,1.4-3.2,3.2-3.2c1.8,0,3.2,1.4,3.2,3.2
				v20.5C-232.4,1479.4-233.9,1480.9-235.7,1480.9z"/>
		</g>
	</g>
	<g id="XMLID_225_">
		<g id="XMLID_226_">
			<path id="XMLID_227_" class="st2" d="M-276.2,1460.3c-1.8,0-3.2-1.4-3.2-3.2v-20.6c0-1.8,1.4-3.2,3.2-3.2c1.8,0,3.2,1.4,3.2,3.2
				v20.6C-273,1458.9-274.5,1460.3-276.2,1460.3z"/>
		</g>
	</g>
	<g id="XMLID_222_">
		<g id="XMLID_223_">
			<path id="XMLID_224_" class="st3" d="M-235.6,1568.3c-0.9,0-1.8-0.4-2.4-1.1l-123.5-128.5c-1.2-1.3-1.1-3.4,0.2-4.6
				c1.3-1.1,3.3-1,4.5,0.3l123.5,128.5c1.2,1.3,1.1,3.4-0.2,4.6C-234.1,1568-234.8,1568.3-235.6,1568.3z"/>
		</g>
	</g>
	<g id="XMLID_219_">
		<g id="XMLID_220_">
			<path id="XMLID_221_" class="st3" d="M-70.6,1481.3c-0.9,0-1.8-0.4-2.4-1.1l-40-41.5c-1.2-1.3-1.1-3.4,0.2-4.6
				c1.3-1.2,3.4-1.1,4.6,0.2l40,41.6c1.2,1.3,1.1,3.4-0.2,4.6C-69.1,1481.1-69.9,1481.3-70.6,1481.3z"/>
		</g>
	</g>
	<g id="XMLID_216_">
		<g id="XMLID_217_">
			<path id="XMLID_218_" class="st1" d="M62.1,1480.9c-1.8,0-3.2-1.4-3.2-3.2v-41.2c0-1.8,1.4-3.2,3.2-3.2s3.2,1.4,3.2,3.2v41.1
				C65.3,1479.4,63.9,1480.9,62.1,1480.9z"/>
		</g>
	</g>
	<g>
		<g id="XMLID_213_">
			<g id="XMLID_214_">
				<path id="XMLID_215_" class="st2" d="M-404.2,1439.8h-37.2c-1.8,0-3.2-1.4-3.2-3.2c0-1.8,1.4-3.2,3.2-3.2h37.3
					c1.8,0,3.2,1.4,3.2,3.2C-400.9,1438.4-402.4,1439.8-404.2,1439.8z"/>
			</g>
		</g>
		<g id="XMLID_208_">
			<g id="XMLID_209_">
				<path id="XMLID_210_" class="st3" d="M-404.2,1460.3h-37.2c-1.8,0-3.2-1.4-3.2-3.2c0-1.8,1.4-3.2,3.2-3.2h37.3
					c1.8,0,3.2,1.4,3.2,3.2C-400.9,1458.9-402.4,1460.3-404.2,1460.3z"/>
			</g>
		</g>
		<g id="XMLID_205_">
			<g id="XMLID_206_">
				<path id="XMLID_207_" class="st0" d="M-404.2,1480.9h-37.2c-1.8,0-3.2-1.4-3.2-3.2c0-1.8,1.4-3.2,3.2-3.2h37.3
					c1.8,0,3.2,1.4,3.2,3.2C-400.9,1479.5-402.4,1480.9-404.2,1480.9z"/>
			</g>
		</g>
		<g id="XMLID_202_">
			<g id="XMLID_203_">
				<path id="XMLID_204_" class="st2" d="M-154,1526.3h-37.4c-1.8,0-3.2-1.4-3.2-3.2c0-1.8,1.4-3.2,3.2-3.2h37.4
					c1.8,0,3.2,1.4,3.2,3.2S-152.2,1526.3-154,1526.3z"/>
			</g>
		</g>
		<g id="XMLID_199_">
			<g id="XMLID_200_">
				<path id="XMLID_201_" class="st3" d="M-154,1546.9h-37.4c-1.8,0-3.2-1.4-3.2-3.2c0-1.8,1.4-3.2,3.2-3.2h37.4
					c1.8,0,3.2,1.4,3.2,3.2S-152.2,1546.9-154,1546.9z"/>
			</g>
		</g>
		<g id="XMLID_188_">
			<g id="XMLID_192_">
				<path id="XMLID_193_" class="st2" d="M-159.3,1470.6h-27.8c-1.8,0-3.2-1.4-3.2-3.2c0-1.8,1.4-3.2,3.2-3.2h27.8
					c1.8,0,3.2,1.4,3.2,3.2S-157.5,1470.6-159.3,1470.6z"/>
			</g>
		</g>
		<g id="XMLID_185_">
			<g id="XMLID_186_">
				<path id="XMLID_187_" class="st1" d="M-192,1480.9c-0.4,0-0.9-0.1-1.3-0.3c-1.6-0.7-2.3-2.6-1.6-4.3l18.7-41.1
					c0.7-1.6,2.6-2.3,4.3-1.6c1.6,0.7,2.3,2.6,1.6,4.3L-189,1479C-189.6,1480.2-190.7,1480.9-192,1480.9z"/>
			</g>
		</g>
		<g id="XMLID_180_">
			<g id="XMLID_181_">
				<path id="XMLID_184_" class="st1" d="M12.9,1444.6c-0.8,0-1.7-0.3-2.3-0.9c-7.4-7.4-19.5-7.4-26.9,0c-1.3,1.3-3.3,1.3-4.6,0
					c-1.3-1.3-1.3-3.3,0-4.6c9.9-9.9,26.1-9.9,36.1,0c1.3,1.3,1.3,3.3,0,4.6C14.6,1444.3,13.8,1444.6,12.9,1444.6z"/>
			</g>
		</g>
		<g id="XMLID_177_">
			<g id="XMLID_178_">
				<path id="XMLID_179_" class="st3" d="M-18.6,1476.1c-0.8,0-1.7-0.3-2.3-0.9c-9.9-9.9-9.9-26.1,0-36.1c1.3-1.3,3.3-1.3,4.6,0
					s1.3,3.3,0,4.6c-7.4,7.4-7.4,19.5,0,26.9c1.3,1.3,1.3,3.3,0,4.6C-16.9,1475.7-17.7,1476.1-18.6,1476.1z"/>
			</g>
		</g>
		<g id="XMLID_174_">
			<g id="XMLID_175_">
				<path id="XMLID_176_" class="st2" d="M-2.8,1482.6c-6.8,0-13.2-2.7-18-7.5c-1.3-1.3-1.3-3.3,0-4.6c1.3-1.3,3.3-1.3,4.6,0
					c3.6,3.6,8.4,5.6,13.5,5.6s9.9-2,13.5-5.6c1.3-1.3,3.3-1.3,4.6,0s1.3,3.3,0,4.6C10.4,1479.9,4,1482.6-2.8,1482.6z"/>
			</g>
		</g>
		<g id="XMLID_171_">
			<g id="XMLID_172_">
				<path id="XMLID_173_" class="st1" d="M-403.8,1532c-0.8,0-1.7-0.3-2.3-0.9c-7.4-7.5-19.4-7.5-26.9,0c-1.3,1.3-3.3,1.3-4.6,0
					c-1.3-1.3-1.3-3.3,0-4.6c9.9-9.9,26.1-9.9,36.1,0c1.3,1.3,1.3,3.3,0,4.6C-402.1,1531.7-402.9,1532-403.8,1532z"/>
			</g>
		</g>
		<g id="XMLID_168_">
			<g id="XMLID_169_">
				<path id="XMLID_170_" class="st3" d="M-435.2,1563.5c-0.8,0-1.7-0.3-2.3-0.9c-4.8-4.8-7.5-11.2-7.5-18s2.7-13.2,7.5-18
					c1.3-1.3,3.3-1.3,4.6,0c1.3,1.3,1.3,3.3,0,4.6c-3.6,3.6-5.6,8.4-5.6,13.5s2,9.9,5.6,13.5c1.3,1.3,1.3,3.3,0,4.6
					C-433.6,1563.2-434.4,1563.5-435.2,1563.5z"/>
			</g>
		</g>
		<g id="XMLID_165_">
			<g id="XMLID_166_">
				<path id="XMLID_167_" class="st2" d="M-419.5,1570c-6.5,0-13.1-2.5-18-7.5c-1.3-1.3-1.3-3.3,0-4.6c1.3-1.3,3.3-1.3,4.6,0
					c7.4,7.4,19.5,7.4,26.9,0c1.3-1.3,3.3-1.3,4.6,0c1.3,1.3,1.3,3.3,0,4.6C-406.4,1567.5-413,1570-419.5,1570z"/>
			</g>
		</g>
		<g id="XMLID_162_">
			<g id="XMLID_163_">
				<path id="XMLID_164_" class="st0" d="M-318.2,1547.7c-1.8,0-3.2-1.4-3.2-3.2c0-10.5-8.5-19-19-19c-1.8,0-3.2-1.4-3.2-3.2
					s1.4-3.2,3.2-3.2c14.1,0,25.5,11.4,25.5,25.5C-315,1546.3-316.4,1547.7-318.2,1547.7z"/>
			</g>
		</g>
		<g id="XMLID_159_">
			<g id="XMLID_160_">
				<path id="XMLID_161_" class="st2" d="M-362.7,1547.7c-1.8,0-3.2-1.4-3.2-3.2c0-14.1,11.4-25.5,25.5-25.5c1.8,0,3.2,1.4,3.2,3.2
					c0,1.8-1.4,3.2-3.2,3.2c-10.5,0-19,8.5-19,19C-359.5,1546.3-361,1547.7-362.7,1547.7z"/>
			</g>
		</g>
		<g id="XMLID_156_">
			<g id="XMLID_157_">
				<path id="XMLID_158_" class="st1" d="M-340.5,1570c-14,0-25.5-11.4-25.5-25.5c0-1.8,1.4-3.2,3.2-3.2c1.8,0,3.2,1.4,3.2,3.2
					c0,10.5,8.5,19,19,19c1.8,0,3.2,1.4,3.2,3.2C-337.2,1568.6-338.7,1570-340.5,1570z"/>
			</g>
		</g>
		<g id="XMLID_153_">
			<g id="XMLID_154_">
				<path id="XMLID_155_" class="st3" d="M-340.5,1570c-1.8,0-3.2-1.4-3.2-3.2s1.4-3.2,3.2-3.2c10.5,0,19-8.5,19-19
					c0-1.8,1.4-3.2,3.2-3.2c1.8,0,3.2,1.4,3.2,3.2C-315,1558.6-326.4,1570-340.5,1570z"/>
			</g>
		</g>
		<g id="XMLID_148_">
			<g id="XMLID_151_">
				<path id="XMLID_152_" class="st0" d="M-70.7,1481.3c-1.8,0-3.2-1.4-3.2-3.2v-41.6c0-1.8,1.4-3.2,3.2-3.2c1.8,0,3.2,1.4,3.2,3.2
					v41.6C-67.4,1479.9-68.9,1481.3-70.7,1481.3z"/>
			</g>
		</g>
		<g id="XMLID_139_">
			<g id="XMLID_142_">
				<path id="XMLID_145_" class="st2" d="M-110.6,1481.3c-1.8,0-3.2-1.4-3.2-3.2v-41.6c0-1.8,1.4-3.2,3.2-3.2c1.8,0,3.2,1.4,3.2,3.2
					v41.6C-107.4,1479.9-108.8,1481.3-110.6,1481.3z"/>
			</g>
		</g>
		<g id="XMLID_135_">
			<g id="XMLID_136_">
				<path id="XMLID_137_" class="st2" d="M99.4,1439.8H62.1c-1.8,0-3.2-1.4-3.2-3.2c0-1.8,1.4-3.2,3.2-3.2h37.3
					c1.8,0,3.2,1.4,3.2,3.2C102.6,1438.4,101.2,1439.8,99.4,1439.8z"/>
			</g>
		</g>
		<g id="XMLID_132_">
			<g id="XMLID_133_">
				<path id="XMLID_134_" class="st3" d="M99.4,1460.3H62.1c-1.8,0-3.2-1.4-3.2-3.2c0-1.8,1.4-3.2,3.2-3.2h37.3
					c1.8,0,3.2,1.4,3.2,3.2C102.6,1458.9,101.2,1460.3,99.4,1460.3z"/>
			</g>
		</g>
		<g id="XMLID_129_">
			<g id="XMLID_130_">
				<path id="XMLID_131_" class="st0" d="M99.4,1480.9H62.1c-1.8,0-3.2-1.4-3.2-3.2c0-1.8,1.4-3.2,3.2-3.2h37.3
					c1.8,0,3.2,1.4,3.2,3.2C102.6,1479.5,101.2,1480.9,99.4,1480.9z"/>
			</g>
		</g>
		<g id="XMLID_126_">
			<g id="XMLID_127_">
				<path id="XMLID_128_" class="st0" d="M-235.7,1568.3c-1.8,0-3.2-1.4-3.2-3.2v-42c0-1.8,1.4-3.2,3.2-3.2c1.8,0,3.2,1.4,3.2,3.2
					v42C-232.4,1566.9-233.9,1568.3-235.7,1568.3z"/>
			</g>
		</g>
		<g id="XMLID_123_">
			<g id="XMLID_124_">
				<path id="XMLID_125_" class="st0" d="M-319.2,1481.3c-1.8,0-3.2-1.4-3.2-3.2v-41.6c0-1.8,1.4-3.2,3.2-3.2c1.8,0,3.2,1.4,3.2,3.2
					v41.6C-316,1479.9-317.4,1481.3-319.2,1481.3z"/>
			</g>
		</g>
		<g id="XMLID_117_">
			<g id="XMLID_120_">
				<path id="XMLID_122_" class="st2" d="M-359.1,1481.3c-1.8,0-3.2-1.4-3.2-3.2v-41.6c0-1.8,1.4-3.2,3.2-3.2c1.8,0,3.2,1.4,3.2,3.2
					v41.6C-355.9,1479.9-357.4,1481.3-359.1,1481.3z"/>
			</g>
		</g>
		<g id="XMLID_108_">
			<g id="XMLID_111_">
				<path id="XMLID_114_" class="st2" d="M-276.2,1567.4c-1.8,0-3.2-1.4-3.2-3.2v-41.1c0-1.8,1.4-3.2,3.2-3.2c1.8,0,3.2,1.4,3.2,3.2
					v41.1C-273,1566-274.5,1567.4-276.2,1567.4z"/>
			</g>
		</g>
		<g id="XMLID_99_">
			<g id="XMLID_102_">
				<path id="XMLID_105_" class="st0" d="M-235.7,1460.3c-1.8,0-3.2-1.4-3.2-3.2v-20.6c0-1.8,1.4-3.2,3.2-3.2c1.8,0,3.2,1.4,3.2,3.2
					v20.6C-232.4,1458.9-233.9,1460.3-235.7,1460.3z"/>
			</g>
		</g>
		<g id="XMLID_90_">
			<g id="XMLID_93_">
				<path id="XMLID_96_" class="st1" d="M-276.2,1480.9c-1.8,0-3.2-1.4-3.2-3.2v-20.6c0-1.8,1.4-3.2,3.2-3.2c1.8,0,3.2,1.4,3.2,3.2
					v20.5C-273,1479.4-274.5,1480.9-276.2,1480.9z"/>
			</g>
		</g>
	</g>
</g>
<g id="XMLID_251_">
	<g id="XMLID_384_">
		<path class="st0" d="M-188,1543.6v3.3h-3.3c-1.5,0-2.8-1-3.1-2.4v-0.9c0-0.8,0.3-1.5,0.7-2.1c0.1-0.1,0.2-0.2,0.3-0.3
			c0.6-0.5,1.3-0.8,2.2-0.8c0.3,0,0.5,0,0.8,0.1C-189,1540.9-188,1542.1-188,1543.6z"/>
	</g>
	<g id="XMLID_382_">
		<g id="XMLID_383_">
			<path class="st0" d="M-190.4,1540.5h2.4v3.2c0,1.8-1.5,3.2-3.2,3.2c-1.8,0-3.2-1.4-3.2-3.2v-0.8c0.1-0.5,0.4-1,0.7-1.3
				c0.1-0.1,0.2-0.2,0.3-0.3c0.6-0.5,1.3-0.8,2.2-0.8C-191,1540.4-190.7,1540.4-190.4,1540.5z"/>
			<path class="st0" d="M-188,1523.1v3.2h-3.3c-1.5,0-2.8-1-3.1-2.4v-0.8c0-1.8,1.4-3.2,3.2-3.2S-188,1521.3-188,1523.1z"/>
		</g>
	</g>
	<g id="XMLID_380_">
		<g id="XMLID_381_">
			<path class="st0" d="M-170.3,1435.1c0.4,0.8,0.5,1.9,0.1,2.8l-3,6.5l-3-6.5c-0.5-1.2-0.3-2.6,0.5-3.5c0.1-0.1,0.2-0.2,0.3-0.3
				c0.2-0.2,0.5-0.4,0.8-0.5c0.3-0.1,0.5-0.2,0.8-0.2c0.2,0,0.3,0,0.5,0c0.1,0,0.3,0,0.4,0C-171.8,1433.5-170.9,1434.1-170.3,1435.1
				z"/>
			<path class="st0" d="M-156,1467.4c0,1.8-1.4,3.2-3.2,3.2h-2l-2.9-6.4h4.9C-157.5,1464.2-156,1465.6-156,1467.4z"/>
		</g>
	</g>
	<g id="XMLID_378_">
		<g id="XMLID_379_">
			<path class="st1" d="M-438.2,1436.5v3.3h-3.2c-1.8,0-3.2-1.4-3.2-3.2v-0.1c0-1.8,1.4-3.2,3.2-3.2c0.3,0,0.5,0,0.8,0.1
				C-439.2,1433.8-438.2,1435-438.2,1436.5z"/>
			<path class="st1" d="M-438.2,1453.9v6.4h-3.2c-1.8,0-3.2-1.4-3.2-3.2c0-1.8,1.4-3.2,3.2-3.2H-438.2z"/>
			<path class="st1" d="M-438.2,1474.5v3.1c0,1.8-1.5,3.3-3.2,3.3c-1.8,0-3.2-1.4-3.2-3.2s1.4-3.2,3.2-3.2H-438.2z"/>
		</g>
	</g>
	<g id="XMLID_376_">
		<g id="XMLID_377_">
			<path class="st2" d="M-276.2,1453.9h3.2v6.4h-3.2c-1.8,0-3.2-1.4-3.2-3.2C-279.5,1455.3-278,1453.9-276.2,1453.9z"/>
			<path class="st2" d="M-232.5,1457.1c0,1.2-0.7,2.3-1.7,2.8c-0.1,0.1-0.2,0.1-0.3,0.1c-0.1,0-0.2,0.1-0.3,0.1
				c-0.3,0.1-0.6,0.1-1,0.1h-3.2v-6.4h3.2C-233.8,1453.9-232.5,1455.3-232.5,1457.1z"/>
		</g>
	</g>
	<g id="XMLID_374_">
		<g id="XMLID_375_">
			<path class="st2" d="M-232.5,1457.1v0.2c0,1.2-0.7,2.2-1.7,2.7c-0.1,0.1-0.2,0.1-0.3,0.1c-0.1,0-0.2,0.1-0.3,0.1
				c-0.3,0.1-0.6,0.1-1,0.1h-3.2v-3.2c0-1.8,1.4-3.2,3.2-3.2C-233.8,1453.9-232.5,1455.3-232.5,1457.1z"/>
		</g>
	</g>
	<g id="XMLID_372_">
		<g id="XMLID_373_">
			<path class="st2" d="M-273,1453.9v3.4c0,1.7-1.5,3-3.2,3c-1.8,0-3.2-1.4-3.2-3.2c0-1.8,1.4-3.2,3.2-3.2H-273z"/>
		</g>
	</g>
	<g id="XMLID_370_">
		<g id="XMLID_371_">
			<path class="st3" d="M-356.3,1434.9c0.3,0.5,0.4,1,0.4,1.6v8l-5.6-5.8c-0.4-0.5-0.7-1.1-0.8-1.7c-0.2-1,0.2-2.2,1-2.9
				c0.1-0.1,0.2-0.1,0.3-0.2c0.1-0.1,0.3-0.2,0.4-0.2c0.1,0,0.2-0.1,0.2-0.1c0,0,0.1,0,0.1,0c1.2-0.4,2.6-0.1,3.5,0.9L-356.3,1434.9
				z"/>
			<path class="st3" d="M-322.3,1470.2l6.4,6.7v1.2c0,1.8-1.4,3.2-3.2,3.2c-0.8,0-1.5-0.3-2-0.7l-0.5-0.5c-0.4-0.5-0.7-1.2-0.7-2
				V1470.2z"/>
			<path class="st3" d="M-273,1523.1v7.6l-6.4-6.7v-0.9c0-1.8,1.4-3.2,3.2-3.2S-273,1521.3-273,1523.1z"/>
			<path class="st3" d="M-232.5,1565.5C-232.5,1565.5-232.5,1565.6-232.5,1565.5c0,0.2,0,0.3-0.1,0.4c0,0.1,0,0.1-0.1,0.2
				c0,0.1-0.1,0.2-0.1,0.4c-0.1,0.1-0.1,0.3-0.2,0.4c-0.1,0.1-0.1,0.2-0.2,0.3c0,0,0,0-0.1,0.1c-0.1,0.1-0.1,0.2-0.2,0.2
				c0,0-0.1,0.1-0.2,0.1c-0.1,0.1-0.2,0.1-0.3,0.2c-0.5,0.3-1,0.5-1.6,0.5h-0.1c-0.1,0-0.2,0-0.3,0c-0.8-0.1-1.5-0.5-2-1.1l-0.5-0.5
				c-0.3-0.5-0.4-1-0.4-1.6v-8l5.6,5.8c0.4,0.5,0.7,1.1,0.8,1.7C-232.4,1564.9-232.4,1565.2-232.5,1565.5z"/>
		</g>
	</g>
	<g id="XMLID_368_">
		<g id="XMLID_369_">
			<path class="st3" d="M-107.3,1436.5v8l-5.6-5.8c-0.4-0.5-0.7-1.1-0.8-1.7v-0.5c0-1.8,1.4-3.2,3.2-3.2S-107.3,1434.7-107.3,1436.5
				z"/>
			<path class="st3" d="M-68.3,1480.5c-0.7,0.6-1.5,0.8-2.2,0.8h0c-0.9,0-1.8-0.4-2.4-1.1l-0.5-0.5c-0.3-0.5-0.4-1-0.4-1.6v-8.1
				l5.7,5.9c0.3,0.4,0.6,0.8,0.7,1.2C-67.1,1478.3-67.4,1479.7-68.3,1480.5z"/>
		</g>
	</g>
	<g id="XMLID_366_">
		<g id="XMLID_367_">
			<path class="st1" d="M65.3,1436.5v3.3h-3.2c-1.8,0-3.2-1.4-3.2-3.2v-0.1c0-1.8,1.4-3.2,3.2-3.2c0.3,0,0.5,0,0.8,0.1
				C64.3,1433.8,65.3,1435,65.3,1436.5z"/>
			<path class="st1" d="M62.2,1453.9h3.2v6.4h-3.2c-1.8,0-3.2-1.4-3.2-3.2C59,1455.3,60.3,1453.9,62.2,1453.9z"/>
			<path class="st1" d="M62.2,1474.5h3.2v3.1c0,1.8-1.4,3.3-3.2,3.3c-1.8,0-3.2-1.4-3.2-3.2S60.3,1474.5,62.2,1474.5z"/>
		</g>
	</g>
	<g>
		<g id="XMLID_364_">
			<g id="XMLID_365_">
				<path class="st4" d="M-438.2,1436.5v3.3h-3.2c-1.8,0-3.2-1.4-3.2-3.2c0-1.8,1.4-3.2,3.2-3.2h0.8
					C-439.2,1433.8-438.2,1435-438.2,1436.5z"/>
			</g>
		</g>
		<g id="XMLID_362_">
			<g id="XMLID_363_">
				<path class="st5" d="M-438.2,1453.9v6.4h-3.2c-1.8,0-3.2-1.4-3.2-3.2c0-1.8,1.4-3.2,3.2-3.2H-438.2z"/>
			</g>
		</g>
		<g id="XMLID_360_">
			<g id="XMLID_361_">
				<path class="st6" d="M-438.2,1474.5v3.1c0,1.8-1.5,3.3-3.2,3.3c-1.8,0-3.2-1.4-3.2-3.2s1.4-3.2,3.2-3.2H-438.2z"/>
			</g>
		</g>
		<g id="XMLID_358_">
			<g id="XMLID_359_">
				<path class="st7" d="M-188,1523.1v3.2h-3.3c-1.5,0-2.8-1-3.1-2.4c-0.1-0.3-0.1-0.5-0.1-0.8c0-1.8,1.4-3.2,3.2-3.2h0.1
					C-189.5,1519.9-188,1521.3-188,1523.1z"/>
			</g>
		</g>
		<g id="XMLID_356_">
			<g id="XMLID_357_">
				<path class="st8" d="M-188,1540.5v6.4h-3.3c-1.5,0-2.8-1-3.1-2.4c-0.1-0.3-0.1-0.5-0.1-0.8s0-0.6,0.1-0.8c0.1-0.5,0.4-1,0.7-1.3
					c0.1-0.1,0.2-0.2,0.3-0.3c0.6-0.5,1.3-0.7,2.1-0.7H-188z"/>
			</g>
		</g>
		<g id="XMLID_354_">
			<g id="XMLID_355_">
				<path class="st2" d="M-187,1464.2h4.8l-2.9,6.4h-1.9c-1.8,0-3.2-1.4-3.2-3.2C-190.2,1465.6-188.8,1464.2-187,1464.2z"/>
				<path class="st7" d="M-156,1467.4c0,1.8-1.4,3.2-3.2,3.2h-2l-2.9-6.4h4.9C-157.5,1464.2-156,1465.6-156,1467.4z"/>
			</g>
		</g>
		<g id="XMLID_352_">
			<g id="XMLID_353_">
				<path class="st4" d="M-187,1464.2h4.8l-2.9,6.4h-1.9c-1.8,0-3.2-1.4-3.2-3.2C-190.2,1465.6-188.8,1464.2-187,1464.2z"/>
				<path class="st6" d="M-170.2,1437.9l-3,6.5l-3-6.5c-0.5-1.2-0.3-2.6,0.5-3.5c0.1-0.1,0.2-0.2,0.3-0.3c0.5-0.4,1-0.6,1.6-0.7
					c0.2,0,0.3,0,0.5,0c0.1,0,0.3,0,0.4,0c0.3,0,0.6,0.1,1,0.2c0.7,0.3,1.2,0.8,1.5,1.5C-169.9,1435.9-169.8,1436.9-170.2,1437.9z"
					/>
			</g>
		</g>
		<g id="XMLID_350_">
			<g id="XMLID_351_">
				<path class="st1" d="M-16.2,1443.7c-1.3,1.3-3.3,1.3-4.6,0c-1.2-1.2-1.3-3.1-0.2-4.3c0.1-0.1,0.2-0.2,0.2-0.2
					c0.1-0.1,0.2-0.2,0.2-0.2c1.3-1.1,3.1-1,4.3,0.2C-15,1440.4-15,1442.4-16.2,1443.7z"/>
			</g>
		</g>
		<g id="XMLID_348_">
			<g id="XMLID_349_">
				<path class="st3" d="M-16.2,1470.6c1.3,1.3,1.3,3.3,0,4.6c-0.6,0.5-1.4,0.9-2.3,0.9c-0.5,0-1-0.1-1.5-0.3
					c-0.2-0.2-0.5-0.4-0.7-0.7c-1.3-1.3-1.3-3.3,0-4.6c1.1-1.1,2.7-1.3,3.9-0.5C-16.7,1470.2-16.5,1470.4-16.2,1470.6z"/>
				<path class="st5" d="M-20.8,1443.7c-1.2-1.2-1.3-3.1-0.2-4.3c0.1-0.1,0.2-0.2,0.2-0.2c0.1-0.1,0.2-0.2,0.2-0.2
					c1.3-1.1,3.1-1,4.3,0.2c1.3,1.3,1.3,3.3,0,4.6S-19.5,1445-20.8,1443.7z"/>
			</g>
		</g>
		<g id="XMLID_333_">
			<g id="XMLID_347_">
				<path class="st9" d="M-16.2,1475.2c-0.6,0.5-1.4,0.9-2.3,0.9c-0.5,0-1-0.1-1.5-0.3c-0.2-0.2-0.5-0.4-0.7-0.7
					c-1.3-1.3-1.3-3.3,0-4.6c1.1-1.1,2.7-1.3,3.9-0.5c0.2,0.2,0.4,0.4,0.6,0.6C-15,1471.9-15,1473.9-16.2,1475.2z"/>
			</g>
		</g>
		<g id="XMLID_329_">
			<g id="XMLID_331_">
				<path class="st1" d="M-432.5,1530.7c-0.1,0.1-0.3,0.2-0.4,0.4c-1.3,1.3-3.3,1.3-4.6,0c-1.1-1.1-1.3-2.7-0.5-4
					c0.2-0.2,0.3-0.3,0.5-0.5c1.3-1.3,3.3-1.3,4.6,0C-431.8,1527.8-431.7,1529.5-432.5,1530.7z"/>
			</g>
		</g>
		<g id="XMLID_296_">
			<g id="XMLID_298_">
				<path class="st3" d="M-433,1562.8c-0.6,0.4-1.4,0.7-2.3,0.7c-0.5,0-1-0.1-1.5-0.4c0,0,0,0,0,0c-0.2-0.2-0.4-0.4-0.7-0.6
					c-1.3-1.3-1.3-3.3,0-4.6c1-1,2.4-1.2,3.6-0.7c0.3,0.3,0.6,0.7,0.9,1C-431.7,1559.5-431.7,1561.5-433,1562.8z"/>
				<path class="st5" d="M-437.5,1531.1c-1.1-1.1-1.3-2.7-0.5-4c0.2-0.2,0.3-0.3,0.5-0.5c1.3-1.3,3.3-1.3,4.6,0
					c1.2,1.2,1.3,2.9,0.4,4.1c-0.1,0.1-0.3,0.2-0.4,0.4C-434.2,1532.4-436.2,1532.4-437.5,1531.1z"/>
			</g>
		</g>
		<g id="XMLID_294_">
			<g id="XMLID_295_">
				<path class="st9" d="M-433,1562.8c-0.6,0.4-1.4,0.7-2.3,0.7c-0.5,0-1-0.1-1.5-0.4c0,0,0,0,0,0c-0.2-0.2-0.4-0.4-0.7-0.6
					c-1.3-1.3-1.3-3.3,0-4.6c1-1,2.4-1.2,3.6-0.7c0.3,0.3,0.6,0.7,0.9,1C-431.7,1559.5-431.7,1561.5-433,1562.8z"/>
			</g>
		</g>
		<g id="XMLID_291_">
			<g id="XMLID_292_">
				<path class="st0" d="M-337.2,1522.2c0,1.8-1.4,3.2-3.2,3.2c-0.2,0-0.5,0-0.8,0c-1.4-0.3-2.5-1.6-2.5-3.1c0-1.8,1.4-3.2,3.2-3.2
					c0.3,0,0.6,0,0.9,0C-338.1,1519.5-337.2,1520.7-337.2,1522.2z"/>
				<path class="st0" d="M-315,1544.6c0,0.3,0,0.7,0,1c-0.5,1.2-1.6,2.1-3.1,2.1c-1.8,0-3.2-1.4-3.2-3.2c0-0.2,0-0.4,0-0.7
					c0.3-1.4,1.6-2.5,3.1-2.5C-316.5,1541.4-315,1542.8-315,1544.6z"/>
			</g>
		</g>
		<g id="XMLID_288_">
			<g id="XMLID_290_">
				<path class="st2" d="M-359.5,1544.5c0,0.3,0,0.6,0,0.8c-0.4,1.4-1.7,2.3-3.1,2.3c-1.8,0-3.2-1.4-3.2-3.2c0-0.3,0-0.6,0-0.9
					c0.4-1.4,1.6-2.3,3.1-2.3C-361,1541.3-359.5,1542.7-359.5,1544.5z"/>
				<path class="st7" d="M-337.2,1522.2c0,1.8-1.4,3.2-3.2,3.2c-0.2,0-0.5,0-0.8,0c-1.4-0.3-2.5-1.6-2.5-3.1c0-1.8,1.4-3.2,3.2-3.2
					c0.3,0,0.6,0,0.9,0C-338.1,1519.5-337.2,1520.7-337.2,1522.2z"/>
			</g>
		</g>
		<g id="XMLID_286_">
			<g id="XMLID_287_">
				<path class="st4" d="M-359.5,1544.5c0,0.3,0,0.6,0,0.8c-0.4,1.4-1.7,2.3-3.1,2.3c-1.8,0-3.2-1.4-3.2-3.2c0-0.3,0-0.6,0-0.9
					c0.4-1.4,1.6-2.3,3.1-2.3C-361,1541.3-359.5,1542.7-359.5,1544.5z"/>
				<path class="st1" d="M-340.1,1570c-0.1,0-0.2,0-0.3,0c-1.8,0-3.2-1.4-3.2-3.2c0-1.8,1.4-3.2,3.2-3.2c0.2,0,0.4,0,0.7,0
					c1.4,0.3,2.5,1.6,2.5,3.1C-337.2,1568.5-338.5,1569.8-340.1,1570z"/>
			</g>
		</g>
		<g id="XMLID_283_">
			<g id="XMLID_284_">
				<path class="st5" d="M-337.3,1566.7c0.2,1.8-1.1,3.1-2.8,3.3c-0.1,0-0.2,0-0.3,0c-1.8,0-3.2-1.4-3.2-3.2c0-1.8,1.4-3.2,3.2-3.2
					c0.2,0,0.4,0,0.7,0C-338.4,1563.9-337.3,1565.2-337.3,1566.7z"/>
				<path class="st8" d="M-315,1544.6c0,0.3,0,0.7,0,1c-0.5,1.2-1.6,2.1-3.1,2.1c-1.8,0-3.2-1.4-3.2-3.2c0-0.2,0-0.4,0-0.7
					c0.3-1.4,1.6-2.5,3.1-2.5C-316.5,1541.4-315,1542.8-315,1544.6z"/>
			</g>
		</g>
		<g id="XMLID_280_">
			<g id="XMLID_282_">
				<path class="st8" d="M-67.5,1477.2v1c0.1,1.8-1.4,3.2-3.1,3.2h-0.1c-1.2,0-2.2-0.6-2.8-1.6c-0.3-0.5-0.4-1-0.4-1.6v-8.1l5.7,5.9
					C-67.8,1476.3-67.6,1476.7-67.5,1477.2z"/>
			</g>
		</g>
		<g id="XMLID_278_">
			<g id="XMLID_279_">
				<path class="st9" d="M-107.3,1436.5v8l-5.6-5.8c-0.4-0.5-0.7-1.1-0.8-1.7v-0.5c0-1.8,1.4-3.2,3.2-3.2
					S-107.3,1434.7-107.3,1436.5z"/>
			</g>
		</g>
		<g id="XMLID_276_">
			<g id="XMLID_277_">
				<path class="st4" d="M65.3,1436.5v3.3h-3.2c-1.8,0-3.2-1.4-3.2-3.2c0-1.8,1.4-3.2,3.2-3.2H63C64.3,1433.8,65.3,1435,65.3,1436.5
					z"/>
			</g>
		</g>
		<g id="XMLID_274_">
			<g id="XMLID_275_">
				<path class="st5" d="M65.3,1453.9v6.4h-3.2c-1.8,0-3.2-1.4-3.2-3.2c0-1.8,1.4-3.2,3.2-3.2H65.3z"/>
			</g>
		</g>
		<g id="XMLID_272_">
			<g id="XMLID_273_">
				<path class="st6" d="M65.3,1474.5v3.1c0,1.8-1.4,3.3-3.2,3.3c-1.8,0-3.2-1.4-3.2-3.2s1.4-3.2,3.2-3.2H65.3z"/>
			</g>
		</g>
		<g id="XMLID_270_">
			<g id="XMLID_271_">
				<path class="st8" d="M-232.5,1564.6v0.5c0,0.2,0,0.3,0,0.5c0,0.1,0,0.2-0.1,0.3c0,0.1,0,0.1-0.1,0.2c0,0.1-0.1,0.2-0.1,0.4
					c-0.1,0.1-0.1,0.3-0.2,0.4c-0.1,0.1-0.1,0.2-0.2,0.3c0,0,0,0-0.1,0.1c-0.1,0.1-0.3,0.3-0.4,0.4c-0.1,0.1-0.2,0.1-0.3,0.2
					c-0.5,0.3-1.1,0.5-1.7,0.5h-0.1c-0.1,0-0.2,0-0.3,0c-1.1-0.1-2-0.7-2.5-1.6c-0.3-0.5-0.4-1-0.4-1.6v-8l5.6,5.8
					C-232.8,1563.4-232.5,1564-232.5,1564.6z"/>
			</g>
		</g>
		<g id="XMLID_266_">
			<g id="XMLID_267_">
				<path class="st8" d="M-316,1476.9v1.2c0,1.8-1.4,3.2-3.2,3.2c-0.8,0-1.5-0.3-2-0.7l-0.5-0.5c-0.4-0.5-0.7-1.2-0.7-2v-7.9
					L-316,1476.9z"/>
			</g>
		</g>
		<g id="XMLID_262_">
			<g id="XMLID_263_">
				<path class="st9" d="M-355.8,1436.5v8l-5.6-5.8c-0.4-0.5-0.7-1.1-0.8-1.7v-0.5c0-1.2,0.7-2.3,1.7-2.8c0.1,0,0.2-0.1,0.2-0.1
					c0,0,0.1,0,0.1,0c0.4-0.1,0.8-0.2,1.2-0.2c1.2,0,2.2,0.6,2.8,1.6C-356,1435.4-355.8,1435.9-355.8,1436.5z"/>
			</g>
		</g>
		<g id="XMLID_259_">
			<g id="XMLID_260_">
				<path class="st9" d="M-273,1523.1v7.6l-6.4-6.7v-0.9c0-1.8,1.4-3.2,3.2-3.2S-273,1521.3-273,1523.1z"/>
			</g>
		</g>
		<g id="XMLID_255_">
			<g id="XMLID_258_">
				<path class="st7" d="M-232.5,1457.1v0.2c0,1.2-0.7,2.2-1.7,2.7c-0.1,0.1-0.2,0.1-0.3,0.1c-0.1,0-0.2,0.1-0.3,0.1
					c-0.3,0.1-0.6,0.1-1,0.1c-1.8,0-3.2-1.4-3.2-3.2v-3.2h3.2C-233.8,1453.9-232.5,1455.3-232.5,1457.1z"/>
			</g>
		</g>
		<g id="XMLID_252_">
			<g id="XMLID_254_">
				<path class="st4" d="M-273,1457.1v3.2h-3.2c-1.8,0-3.2-1.4-3.2-3.2c0-1.8,1.4-3.2,3.2-3.2S-273,1455.3-273,1457.1z"/>
			</g>
		</g>
	</g>
</g>
</svg>
