<?xml version="1.0" encoding="utf-8"?>
<!-- Generator: Adobe Illustrator 19.0.0, SVG Export Plug-In . SVG Version: 6.00 Build 0)  -->
<svg version="1.1" id="Layer_1" xmlns="http://www.w3.org/2000/svg" xmlns:xlink="http://www.w3.org/1999/xlink" x="0px" y="0px"
	 viewBox="-581.8 1395.4 81 210.6" style="enable-background:new -581.8 1395.4 81 210.6;" xml:space="preserve">
<style type="text/css">
	.st0{fill:#C23556;}
	.st1{fill:#DDA600;}
	.st2{fill:#8CB22A;}
	.st3{fill:#5A7BBD;}
	.st4{fill:#454600;}
	.st5{fill:#9E1F01;}
</style>
<g id="XMLID_17_">
	<g id="XMLID_18_">
		<path id="XMLID_19_" class="st0" d="M-507.4,1407.7h-67.9c-3.2,0-5.9-2.6-5.9-5.9c0-3.2,2.6-5.9,5.9-5.9h67.9
			c3.2,0,5.9,2.6,5.9,5.9C-501.6,1405.1-504.2,1407.7-507.4,1407.7z"/>
	</g>
</g>
<g id="XMLID_14_">
	<g id="XMLID_15_">
		<path id="XMLID_16_" class="st1" d="M-507.4,1445.2h-67.9c-3.2,0-5.9-2.6-5.9-5.9c0-3.2,2.6-5.9,5.9-5.9h67.9
			c3.2,0,5.9,2.6,5.9,5.9C-501.6,1442.6-504.2,1445.2-507.4,1445.2z"/>
	</g>
</g>
<g id="XMLID_11_">
	<g id="XMLID_12_">
		<path id="XMLID_13_" class="st2" d="M-507.4,1482.6h-67.9c-3.2,0-5.9-2.6-5.9-5.9c0-3.2,2.6-5.9,5.9-5.9h67.9
			c3.2,0,5.9,2.6,5.9,5.9C-501.6,1480-504.2,1482.6-507.4,1482.6z"/>
	</g>
</g>
<g id="XMLID_8_">
	<g id="XMLID_9_">
		<path id="XMLID_10_" class="st3" d="M-506.7,1536.2c-1.5,0-3-0.6-4.2-1.7c-13.5-13.5-35.5-13.5-49.1,0c-2.3,2.3-6,2.3-8.3,0
			c-2.3-2.3-2.3-6,0-8.3c18.1-18.1,47.6-18.1,65.7,0c2.3,2.3,2.3,6,0,8.3C-503.6,1535.6-505.2,1536.2-506.7,1536.2z"/>
	</g>
</g>
<g id="XMLID_5_">
	<g id="XMLID_6_">
		<path id="XMLID_7_" class="st1" d="M-564,1593.6c-1.5,0-3-0.6-4.2-1.7c-8.8-8.8-13.6-20.5-13.6-32.9c0-12.4,4.8-24.1,13.6-32.9
			c2.3-2.3,6-2.3,8.3,0c2.3,2.3,2.3,6,0,8.3c-6.6,6.6-10.2,15.3-10.2,24.5c0,9.3,3.6,18,10.2,24.5c2.3,2.3,2.3,6,0,8.3
			C-561,1593-562.5,1593.6-564,1593.6z"/>
	</g>
</g>
<g id="XMLID_2_">
	<g id="XMLID_3_">
		<path id="XMLID_4_" class="st0" d="M-535.3,1605.4c-11.9,0-23.8-4.5-32.8-13.6c-2.3-2.3-2.3-6,0-8.3s6-2.3,8.3,0
			c13.5,13.5,35.5,13.5,49.1,0c2.3-2.3,6-2.3,8.3,0c2.3,2.3,2.3,6,0,8.3C-511.6,1600.9-523.5,1605.4-535.3,1605.4z"/>
	</g>
</g>
<g id="XMLID_26_">
	<g id="XMLID_28_">
		<path class="st4" d="M-559.9,1534.4C-559.9,1534.4-560,1534.5-559.9,1534.4c-0.1,0.1-0.1,0.1-0.1,0.1c-2.3,2.3-6,2.3-8.3,0
			c-2.3-2.3-2.3-6,0-8.3c0.1-0.1,0.2-0.2,0.2-0.2c2.3-2.2,5.9-2.1,8.2,0.1C-557.6,1528.4-557.6,1532.1-559.9,1534.4z"/>
	</g>
</g>
<g id="XMLID_20_">
	<g id="XMLID_21_">
		<path class="st5" d="M-559.9,1591.7c-1.1,1.3-2.6,1.9-4.1,1.9c-1.1,0-2.3-0.3-3.3-1c-0.3-0.3-0.5-0.5-0.8-0.8
			c-2.3-2.3-2.3-6,0-8.3c2.3-2.3,6-2.3,8.2,0C-557.6,1585.8-557.6,1589.4-559.9,1591.7z"/>
	</g>
</g>
</svg>
