<?xml version="1.0" encoding="utf-8"?>
<!-- Generator: Adobe Illustrator 19.0.0, SVG Export Plug-In . SVG Version: 6.00 Build 0)  -->
<svg version="1.1" id="Layer_1" xmlns="http://www.w3.org/2000/svg" xmlns:xlink="http://www.w3.org/1999/xlink" x="0px" y="0px"
	 viewBox="-598 1591 241.2 158" style="enable-background:new -598 1591 241.2 158;" xml:space="preserve">
<style type="text/css">
	.st0{fill:#5A7BBD;}
	.st1{fill:#DDA600;}
	.st2{fill:#C23556;}
	.st3{fill:#8CB22A;}
	.st4{fill:#3B1938;}
	.st5{fill:#454600;}
	.st6{fill:#2B4C1D;}
	.st7{fill:#9E1F01;}
	.st8{fill:#602110;}
	.st9{fill:#6E6901;}
</style>
<g>
	<g id="XMLID_80_">
		<g id="XMLID_81_">
			<path id="XMLID_82_" class="st0" d="M-594,1646c-2,0-3.7-1.7-3.7-3.7v-47.4c0.1-2.1,1.7-3.7,3.7-3.7s3.7,1.7,3.7,3.7v47.4
				C-590.3,1644.4-591.9,1646-594,1646z"/>
		</g>
	</g>
	<g id="XMLID_77_">
		<g id="XMLID_78_">
			<path id="XMLID_79_" class="st1" d="M-360.4,1746.9c-1,0-2-0.4-2.7-1.2l-140.2-148.3c-1.4-1.5-1.2-3.9,0.2-5.3
				c1.5-1.4,3.8-1.3,5.2,0.3l140.2,148.3c1.4,1.5,1.2,3.9-0.2,5.3C-358.7,1746.5-359.5,1746.9-360.4,1746.9z"/>
		</g>
	</g>
	<g id="XMLID_74_">
		<g id="XMLID_75_">
			<path id="XMLID_76_" class="st2" d="M-551.7,1598.6H-594c-2,0-3.7-1.7-3.7-3.7s1.7-3.7,3.7-3.7h42.3c2,0,3.7,1.7,3.7,3.7
				S-549.7,1598.6-551.7,1598.6z"/>
		</g>
	</g>
	<g id="XMLID_71_">
		<g id="XMLID_72_">
			<path id="XMLID_73_" class="st1" d="M-551.7,1622.3H-594c-2,0-3.7-1.7-3.7-3.7s1.7-3.7,3.7-3.7h42.3c2,0,3.7,1.7,3.7,3.7
				S-549.7,1622.3-551.7,1622.3z"/>
		</g>
	</g>
	<g id="XMLID_68_">
		<g id="XMLID_69_">
			<path id="XMLID_70_" class="st3" d="M-551.7,1646H-594c-2,0-3.7-1.7-3.7-3.7c0-2.1,1.6-3.7,3.7-3.7h42.3c2,0,3.7,1.7,3.7,3.7
				C-548,1644.4-549.7,1646-551.7,1646z"/>
		</g>
	</g>
	<g id="XMLID_51_">
		<g id="XMLID_52_">
			<path id="XMLID_54_" class="st0" d="M-551.2,1705c-0.9,0-1.9-0.4-2.6-1.1c-8.4-8.6-22.1-8.6-30.6,0c-1.4,1.5-3.7,1.5-5.2,0
				c-1.4-1.5-1.4-3.8,0-5.3c11.3-11.5,29.6-11.5,40.9,0c1.4,1.5,1.4,3.8,0,5.3C-549.3,1704.6-550.3,1705-551.2,1705z"/>
		</g>
	</g>
	<g id="XMLID_48_">
		<g id="XMLID_49_">
			<path id="XMLID_50_" class="st1" d="M-586.9,1741.3c-0.9,0-1.9-0.4-2.6-1.1c-5.5-5.5-8.5-12.9-8.5-20.8s3-15.2,8.5-20.8
				c1.4-1.5,3.7-1.5,5.2,0c1.4,1.5,1.4,3.8,0,5.3c-4.1,4.2-6.3,9.7-6.3,15.5c0,5.9,2.2,11.4,6.3,15.5c1.4,1.5,1.4,3.8,0,5.3
				C-585.1,1741-586,1741.3-586.9,1741.3z"/>
		</g>
	</g>
	<g id="XMLID_45_">
		<g id="XMLID_46_">
			<path id="XMLID_47_" class="st2" d="M-569.1,1748.8c-7.4,0-14.8-2.9-20.5-8.6c-1.4-1.5-1.4-3.8,0-5.3c1.4-1.5,3.7-1.5,5.2,0
				c8.4,8.6,22.1,8.6,30.6,0c1.4-1.5,3.7-1.5,5.2,0c1.4,1.5,1.4,3.8,0,5.3C-554.3,1746-561.7,1748.8-569.1,1748.8z"/>
		</g>
	</g>
	<g id="XMLID_42_">
		<g id="XMLID_43_">
			<path id="XMLID_44_" class="st3" d="M-454.1,1723.2c-2,0-3.7-1.7-3.7-3.7c0-12.1-9.7-22-21.6-22c-2,0-3.7-1.7-3.7-3.7
				s1.6-3.7,3.7-3.7c16,0,28.9,13.2,28.9,29.4C-450.5,1721.5-452.1,1723.2-454.1,1723.2z"/>
		</g>
	</g>
	<g id="XMLID_39_">
		<g id="XMLID_40_">
			<path id="XMLID_41_" class="st2" d="M-504.7,1723.2c-2,0-3.7-1.7-3.7-3.7c0-16.2,13-29.4,28.9-29.4c2,0,3.7,1.7,3.7,3.7
				s-1.6,3.7-3.7,3.7c-11.9,0-21.6,9.9-21.6,22C-501,1721.5-502.6,1723.2-504.7,1723.2z"/>
		</g>
	</g>
	<g id="XMLID_36_">
		<g id="XMLID_37_">
			<path id="XMLID_38_" class="st0" d="M-479.4,1748.8c-16,0-28.9-13.2-28.9-29.4c0-2.1,1.6-3.7,3.7-3.7c2,0,3.7,1.7,3.7,3.7
				c0,12.1,9.7,22,21.6,22c2,0,3.7,1.7,3.7,3.7C-475.7,1747.2-477.4,1748.8-479.4,1748.8z"/>
		</g>
	</g>
	<g id="XMLID_31_">
		<g id="XMLID_34_">
			<path id="XMLID_35_" class="st1" d="M-479.4,1748.8c-2,0-3.7-1.7-3.7-3.7c0-2.1,1.6-3.7,3.7-3.7c11.9,0,21.6-9.9,21.6-22
				c0-2.1,1.6-3.7,3.7-3.7c2,0,3.7,1.7,3.7,3.7C-450.5,1735.7-463.4,1748.8-479.4,1748.8z"/>
		</g>
	</g>
	<g id="XMLID_28_">
		<g id="XMLID_29_">
			<path id="XMLID_30_" class="st3" d="M-360.5,1746.9c-2,0-3.7-1.7-3.7-3.7v-48.4c0-2.1,1.6-3.7,3.7-3.7c2,0,3.7,1.7,3.7,3.7v48.4
				C-356.8,1745.2-358.5,1746.9-360.5,1746.9z"/>
		</g>
	</g>
	<g id="XMLID_25_">
		<g id="XMLID_26_">
			<path id="XMLID_27_" class="st3" d="M-455.2,1646.5c-2,0-3.7-1.7-3.7-3.7v-48c0-2.1,1.6-3.7,3.7-3.7c2,0,3.7,1.7,3.7,3.7v48
				C-451.6,1644.9-453.2,1646.5-455.2,1646.5z"/>
		</g>
	</g>
	<g id="XMLID_22_">
		<g id="XMLID_23_">
			<path id="XMLID_24_" class="st2" d="M-500.6,1646.5c-2,0-3.7-1.7-3.7-3.7v-48c0-2.1,1.6-3.7,3.7-3.7c2,0,3.7,1.7,3.7,3.7v48
				C-496.9,1644.9-498.6,1646.5-500.6,1646.5z"/>
		</g>
	</g>
	<g id="XMLID_18_">
		<g id="XMLID_20_">
			<path id="XMLID_21_" class="st2" d="M-406.5,1745.9c-2,0-3.7-1.7-3.7-3.7v-47.4c0-2.1,1.6-3.7,3.7-3.7c2,0,3.7,1.7,3.7,3.7v47.4
				C-402.9,1744.2-404.5,1745.9-406.5,1745.9z"/>
		</g>
	</g>
	<g id="XMLID_149_">
		<g id="XMLID_150_">
			<path class="st0" d="M-590.3,1594.9v3.7h-3.7c-2,0-3.7-1.7-3.7-3.7c0-0.9,0.4-1.7,0.9-2.3c0.1-0.1,0.2-0.2,0.3-0.3
				c0.2-0.2,0.3-0.3,0.5-0.4c0.1-0.1,0.2-0.1,0.3-0.2c0.4-0.2,0.9-0.4,1.4-0.4c0.1,0,0.2,0,0.4,0
				C-592,1591.2-590.3,1592.9-590.3,1594.9z"/>
			<path class="st0" d="M-594,1614.9h3.7v7.4h-3.7c-2,0-3.7-1.7-3.7-3.7S-596,1614.9-594,1614.9z"/>
			<path class="st0" d="M-594,1638.6h3.7v3.7c0,2.1-1.6,3.7-3.7,3.7c-2,0-3.7-1.7-3.7-3.7C-597.7,1640.2-596.1,1638.6-594,1638.6z"
				/>
		</g>
	</g>
	<g id="XMLID_146_">
		<g id="XMLID_147_">
			<path class="st1" d="M-497.5,1592.8c0.4,0.6,0.6,1.2,0.6,2v9.4l-6.4-6.8c-1.4-1.5-1.2-3.9,0.2-5.3c1.5-1.4,3.8-1.3,5.2,0.3
				L-497.5,1592.8z"/>
			<path class="st1" d="M-458.9,1633.6l7.4,7.8v1.3c-0.1,2.1-1.7,3.7-3.7,3.7s-3.7-1.7-3.7-3.7V1633.6z"/>
			<path class="st1" d="M-402.8,1694.8v8.9l-7.4-7.8v-1.1c0-2.1,1.6-3.7,3.7-3.7C-404.5,1691.1-402.8,1692.8-402.8,1694.8z"/>
			<path class="st1" d="M-357.9,1746c-0.7,0.4-1.4,0.8-2.2,0.9c-0.1,0-0.2,0-0.3,0h0c-1,0-2-0.4-2.6-1.2l-0.5-0.6
				c-0.4-0.6-0.6-1.2-0.6-1.9v-9.4l6.5,6.9c0.5,0.5,0.8,1.2,0.9,1.8C-356.6,1743.8-357,1745.1-357.9,1746z"/>
		</g>
	</g>
	<g id="XMLID_143_">
		<g id="XMLID_144_">
			<path class="st4" d="M-590.3,1594.9v3.7h-3.7c-2,0-3.7-1.7-3.7-3.7c0-0.9,0.3-1.7,0.9-2.3c0.1-0.1,0.2-0.2,0.3-0.3
				c0.2-0.2,0.3-0.3,0.5-0.4c0.1-0.1,0.2-0.1,0.3-0.2c0.4-0.2,0.9-0.4,1.4-0.4c0.1,0,0.2,0,0.4,0
				C-592,1591.2-590.3,1592.9-590.3,1594.9z"/>
		</g>
	</g>
	<g id="XMLID_140_">
		<g id="XMLID_141_">
			<path class="st5" d="M-590.3,1614.9v7.4h-3.7c-2,0-3.7-1.7-3.7-3.7s1.7-3.7,3.7-3.7H-590.3z"/>
		</g>
	</g>
	<g id="XMLID_121_">
		<g id="XMLID_138_">
			<path class="st6" d="M-590.3,1638.6v3.7c0,2.1-1.6,3.7-3.7,3.7c-2,0-3.7-1.7-3.7-3.7c0-2.1,1.6-3.7,3.7-3.7H-590.3z"/>
		</g>
	</g>
	<g id="XMLID_118_">
		<g id="XMLID_119_">
			<path class="st0" d="M-584,1703.5c-0.1,0.1-0.3,0.3-0.4,0.4c-1.4,1.5-3.7,1.5-5.2,0c-1.2-1.3-1.4-3.2-0.5-4.7
				c0.2-0.2,0.4-0.4,0.6-0.6c1.4-1.5,3.7-1.5,5.2,0C-583,1700-582.9,1702-584,1703.5z"/>
		</g>
	</g>
	<g id="XMLID_115_">
		<g id="XMLID_116_">
			<path class="st1" d="M-584.3,1740.2c-0.8,0.8-1.7,1.1-2.6,1.1c-0.9,0-1.9-0.4-2.6-1.1c-0.2-0.2-0.4-0.4-0.5-0.6
				c-0.9-1.5-0.8-3.4,0.4-4.7c1.4-1.5,3.7-1.5,5.2,0c0.2,0.2,0.3,0.3,0.5,0.4C-582.9,1736.8-583,1738.8-584.3,1740.2z"/>
			<path class="st5" d="M-589.6,1703.9c-1.2-1.3-1.4-3.2-0.5-4.7c0.2-0.2,0.4-0.4,0.6-0.6c1.4-1.5,3.7-1.5,5.2,0
				c1.3,1.4,1.4,3.4,0.3,4.9c-0.1,0.1-0.3,0.3-0.4,0.4C-585.8,1705.4-588.1,1705.4-589.6,1703.9z"/>
		</g>
	</g>
	<g id="XMLID_112_">
		<g id="XMLID_113_">
			<path class="st7" d="M-584.3,1740.2c-0.8,0.8-1.7,1.1-2.6,1.1c-0.9,0-1.9-0.4-2.6-1.1c-0.2-0.2-0.4-0.4-0.5-0.6
				c-0.9-1.5-0.8-3.4,0.4-4.7c1.4-1.5,3.7-1.5,5.2,0c0.2,0.2,0.3,0.3,0.5,0.4C-582.9,1736.8-583,1738.8-584.3,1740.2z"/>
		</g>
	</g>
	<g id="XMLID_109_">
		<g id="XMLID_110_">
			<path class="st3" d="M-475.8,1693.8c0,2-1.5,3.6-3.6,3.7h0c-2,0-3.6-1.7-3.6-3.7c0-2,1.5-3.7,3.6-3.7h0
				C-477.5,1690.1-475.8,1691.8-475.8,1693.8z"/>
			<path class="st3" d="M-450.5,1719.5c0,2-1.6,3.7-3.6,3.7s-3.7-1.7-3.7-3.7v-0.1c0-2.1,1.6-3.7,3.7-3.7c1.7,0,3.2,1.2,3.6,2.8
				C-450.5,1718.8-450.5,1719.2-450.5,1719.5z"/>
		</g>
	</g>
	<g id="XMLID_106_">
		<g id="XMLID_107_">
			<path class="st2" d="M-501.1,1718.3C-501.1,1718.3-501.1,1718.3-501.1,1718.3c0,0.4,0,0.8,0,1.2c0.1,2-1.5,3.7-3.6,3.7
				c-1.7,0-3.2-1.2-3.6-2.8c0-0.3,0-0.7,0-1c0-2.1,1.6-3.7,3.7-3.7C-503,1715.7-501.5,1716.8-501.1,1718.3z"/>
			<path class="st8" d="M-475.8,1693.8c0,2-1.5,3.6-3.6,3.7h0c-2,0-3.6-1.7-3.6-3.7c0-2,1.5-3.7,3.6-3.7h0
				C-477.5,1690.1-475.8,1691.8-475.8,1693.8z"/>
		</g>
	</g>
	<g id="XMLID_103_">
		<g id="XMLID_104_">
			<path class="st4" d="M-501.1,1718.3C-501.1,1718.3-501.1,1718.3-501.1,1718.3c0,0.4,0,0.8,0,1.2c0.1,2-1.5,3.7-3.6,3.7
				c-1.7,0-3.2-1.2-3.6-2.8c0-0.3,0-0.7,0-1c0-2.1,1.6-3.7,3.7-3.7C-503,1715.7-501.5,1716.8-501.1,1718.3z"/>
			<path class="st0" d="M-475.6,1745.1c-0.1,2.1-1.8,3.7-3.8,3.7s-3.7-1.7-3.7-3.7c0-2.1,1.6-3.7,3.7-3.7h0.1
				C-477.3,1741.4-475.6,1743.1-475.6,1745.1z"/>
		</g>
	</g>
	<g id="XMLID_100_">
		<g id="XMLID_101_">
			<path class="st5" d="M-475.6,1745.1c-0.1,2.1-1.8,3.7-3.8,3.7s-3.7-1.7-3.7-3.7c0-2.1,1.6-3.7,3.7-3.7h0.1
				C-477.3,1741.4-475.6,1743.1-475.6,1745.1z"/>
			<path class="st9" d="M-450.5,1719.5c0,2-1.6,3.7-3.6,3.7s-3.7-1.7-3.7-3.7v-0.1c0-2.1,1.6-3.7,3.7-3.7c1.7,0,3.2,1.2,3.6,2.8
				C-450.5,1718.8-450.5,1719.2-450.5,1719.5z"/>
		</g>
	</g>
	<g id="XMLID_97_">
		<g id="XMLID_98_">
			<path class="st9" d="M-356.8,1742.5v0.7c0,1.9-1.5,3.5-3.3,3.7c-0.1,0-0.2,0-0.3,0h0c-1.3,0-2.5-0.7-3.1-1.8
				c-0.4-0.6-0.6-1.2-0.6-1.9v-9.4l6.5,6.9C-357.2,1741.2-356.9,1741.9-356.8,1742.5z"/>
		</g>
	</g>
	<g id="XMLID_94_">
		<g id="XMLID_95_">
			<path class="st9" d="M-451.5,1641.5v1.3c-0.1,2.1-1.7,3.7-3.7,3.7s-3.7-1.7-3.7-3.7v-9.2L-451.5,1641.5z"/>
		</g>
	</g>
	<g id="XMLID_91_">
		<g id="XMLID_92_">
			<path class="st7" d="M-496.9,1594.8v9.4l-6.4-6.8c-1.4-1.5-1.2-3.9,0.2-5.3c1.5-1.4,3.8-1.3,5.2,0.3l0.4,0.4
				C-497.1,1593.4-496.9,1594.1-496.9,1594.8z"/>
		</g>
	</g>
	<g id="XMLID_88_">
		<g id="XMLID_89_">
			<path class="st7" d="M-402.8,1694.8v8.9l-7.4-7.8v-1.1c0-2.1,1.6-3.7,3.7-3.7C-404.5,1691.1-402.8,1692.8-402.8,1694.8z"/>
		</g>
	</g>
</g>
</svg>
